<?xml version="1.0" encoding="UTF-8" standalone="no"?>
<!-- Created with Inkscape (http://www.inkscape.org/) -->

<svg
	 xmlns:dc="http://purl.org/dc/elements/1.1/"
	 xmlns:cc="http://creativecommons.org/ns#"
	 xmlns:rdf="http://www.w3.org/1999/02/22-rdf-syntax-ns#"
	 xmlns:svg="http://www.w3.org/2000/svg"
	 xmlns="http://www.w3.org/2000/svg"
	 xmlns:sodipodi="http://sodipodi.sourceforge.net/DTD/sodipodi-0.dtd"
	 xmlns:inkscape="http://www.inkscape.org/namespaces/inkscape"
	 version="1.1"
	 id="svg2"
	 xml:space="preserve"
	 width="378"
	 height="94"
	 viewBox="0 0 378 94"
	 sodipodi:docname="logo_ntp.svg"
	 inkscape:version="0.92.4 5da689c313, 2019-01-14"><metadata
		 id="metadata8"><rdf:RDF><cc:Work
				 rdf:about=""><dc:format>image/svg+xml</dc:format><dc:type
					 rdf:resource="http://purl.org/dc/dcmitype/StillImage" /><dc:title></dc:title></cc:Work></rdf:RDF></metadata><defs
		 id="defs6" /><sodipodi:namedview
		 pagecolor="#ffffff"
		 bordercolor="#666666"
		 borderopacity="1"
		 objecttolerance="10"
		 gridtolerance="10"
		 guidetolerance="10"
		 inkscape:pageopacity="0"
		 inkscape:pageshadow="2"
		 inkscape:window-width="828"
		 inkscape:window-height="1065"
		 id="namedview4"
		 showgrid="false"
		 inkscape:zoom="0.457001"
		 inkscape:cx="150.62494"
		 inkscape:cy="-115.79921"
		 inkscape:window-x="1090"
		 inkscape:window-y="14"
		 inkscape:window-maximized="0"
		 inkscape:current-layer="g12" /><g
		 id="g10"
		 inkscape:groupmode="layer"
		 inkscape:label="ink_ext_XXXXXX"
		 transform="matrix(1.3333333,0,0,-1.3333333,0,93.999998)"><g
			 id="g12"
			 transform="scale(0.1)" ><path
				 d="m 930.012,525.535 c 0,12.656 -1.938,18.879 -5.578,23.176 l 1.496,3.641 c 2.144,1.496 6.433,2.57 10.73,2.57 3.86,0 7.727,-0.859 9.649,-2.356 -1.282,-28.535 -2.571,-66.941 -2.571,-100.613 0,-16.308 0.434,-30.898 1.075,-40.976 h -11.805 l -81.524,93.32 c 0,0 -7.296,9.433 -8.789,13.301 0.418,-2.364 0.633,-6.223 0.633,-9.434 0,-10.519 -0.418,-21.035 -0.418,-31.758 0,-25.312 0.418,-51.914 2.141,-65.429 h -15.449 v 3.425 c 0.211,27.891 0.211,55.782 0.211,76.594 0,20.809 0,34.539 0,34.539 0,11.367 -1.063,17.16 -5.575,23.176 l 1.504,3.641 c 3.223,1.281 8.153,3.429 12.871,2.14 10.52,-12.656 4.297,-4.707 84.532,-97.179 4.5,-4.93 7.941,-13.727 7.941,-13.727 0,0 -1.508,9.012 -1.508,13.512 0,0 0.434,0.851 0.434,68.437"
				 style="fill:#4f4c4c;fill-opacity:1;fill-rule:nonzero;stroke:none"
				 id="path14"
				 inkscape:connector-curvature="0" /><path
				 d="m 1017.92,477.91 45.91,0.86 c 0,13.73 -7.08,28.964 -22.96,28.964 -14.16,0 -19.09,-13.086 -22.95,-29.824 z m 52.34,-9.23 -51.7,0.644 c 0.22,-3.211 0.22,-5.574 0.22,-8.582 0,-23.164 13.3,-36.25 31.53,-36.25 12.23,0 25.74,7.071 33.47,18.875 0,0 0.86,-2.574 0.86,-5.144 0,-16.524 -21.46,-30.039 -41.84,-30.039 -22.74,0 -43.335,15.019 -43.972,51.054 0,34.551 17.802,60.508 45.052,60.508 37.12,0 38.83,-33.047 38.83,-43.555 0,-2.363 0,-4.941 0,-4.941 -4.08,-2.355 -7.94,-2.57 -12.45,-2.57"
				 style="fill:#4f4c4c;fill-opacity:1;fill-rule:nonzero;stroke:none"
				 id="path16"
				 inkscape:connector-curvature="0" /><path
				 d="m 1268.46,410.977 c -0.43,2.996 -0.65,6.425 -0.43,10.293 l 0.43,51.484 c 0.21,20.605 -3.66,29.824 -17.39,30.039 -14.37,0 -23.8,-7.082 -28.75,-12.227 -0.21,-13.086 -1.49,-63.293 2.15,-79.589 h -21.02 c -0.43,2.996 -0.65,6.425 -0.43,10.293 l 0.43,51.484 c 0.21,20.605 -3.65,29.824 -17.38,30.039 -15.66,0 -25.53,-9.004 -30.25,-14.59 0,-8.789 0,-38.398 0.43,-61.144 0,-6.434 0.86,-12.012 1.72,-16.082 h -21.46 v 0.859 l 0.86,72.293 c 0.43,25.098 -10.94,25.957 -10.94,25.957 v 3.859 c 3.86,2.364 10.3,5.371 19.1,5.371 10.29,0 11.58,-8.156 10.93,-18.027 0,0 -0.42,-1.934 -1.07,-6.008 6.44,10.735 20.17,24.465 41.19,24.465 13.73,0 23.61,-10.519 25.53,-22.531 6.66,10.09 19.32,22.531 39.48,22.531 15.02,0 25.31,-12.441 25.74,-25.527 0.43,-9.024 -1.71,-65.008 2.14,-83.242 h -21.01"
				 style="fill:#4f4c4c;fill-opacity:1;fill-rule:nonzero;stroke:none"
				 id="path18"
				 inkscape:connector-curvature="0" /><path
				 d="m 1337.91,415.047 c 0,0 3.44,2.785 5.78,6.437 l 47.85,75.731 c 2.8,4.289 6.02,6.867 6.02,6.867 h -30.04 c -12.66,0 -21.68,-4.941 -22.54,-11.367 h -4.06 c -1.51,2.148 -3.44,17.586 3.42,25.098 l 29.61,-1.29 h 49.78 l 0.65,-4.082 c 0,0 -3.66,-2.785 -5.81,-6.425 l -47.85,-76.594 c -2.34,-3.856 -5.13,-6.004 -5.13,-6.004 h 33.67 c 12.65,0 21.68,4.93 22.54,11.367 h 4.06 c 1.5,-2.148 3.44,-16.308 -3.42,-23.808 h -29.61 -54.28 l -0.64,4.07"
				 style="fill:#4f4c4c;fill-opacity:1;fill-rule:nonzero;stroke:none"
				 id="path20"
				 inkscape:connector-curvature="0" /><path
				 d="m 1487.62,477.91 45.9,0.86 c 0,13.73 -7.07,28.964 -22.95,28.964 -14.16,0 -19.11,-13.086 -22.95,-29.824 z m 52.34,-9.23 -51.7,0.644 c 0.22,-3.211 0.22,-5.574 0.22,-8.582 0,-23.164 13.3,-36.25 31.52,-36.25 12.23,0 25.74,7.071 33.48,18.875 0,0 0.86,-2.574 0.86,-5.144 0,-16.524 -21.47,-30.039 -41.84,-30.039 -22.75,0 -43.34,15.019 -43.98,51.054 0,34.551 17.81,60.508 45.05,60.508 37.11,0 38.83,-33.047 38.83,-43.555 0,-2.363 0,-4.941 0,-4.941 -4.08,-2.355 -7.95,-2.57 -12.44,-2.57"
				 style="fill:#4f4c4c;fill-opacity:1;fill-rule:nonzero;stroke:none"
				 id="path22"
				 inkscape:connector-curvature="0" /><path
				 d="m 1629.16,516.523 c 0,0 20.82,0 26.17,0 6.45,0 7.52,2.579 7.52,2.579 0,0 0.43,-1.719 0.43,-4.082 0,-7.5 -7.73,-11.582 -16.52,-11.582 -3.87,0 -10.3,0.429 -14.38,0.429 -1.29,0 -2.36,0 -3,-0.215 l -0.22,-54.492 c 0,-13.73 1.72,-23.594 16.95,-23.594 8.81,0 18.89,3.645 19.96,5.997 0.86,-1.29 1.29,-3 1.29,-4.504 0,-8.582 -12.65,-18.875 -28.32,-18.875 -24.25,0 -28.75,12.871 -28.75,34.754 0,11.796 1.29,30.031 1.29,43.332 0,7.304 -0.43,14.16 -2.15,16.523 -4.94,6.863 -10.07,7.293 -9.86,7.293 l 1.06,6.437 c 0.85,0 10.52,-0.214 20.6,17.813 h 10.51 l -2.58,-17.813"
				 style="fill:#4f4c4c;fill-opacity:1;fill-rule:nonzero;stroke:none"
				 id="path24"
				 inkscape:connector-curvature="0" /><path
				 d="m 1726.33,559.648 c 5.99,0 11.37,-5.156 11.37,-11.152 0,-6.016 -5.38,-11.594 -11.37,-11.594 -6.45,0 -11.6,5.578 -11.6,11.594 0,5.996 5.15,11.152 11.6,11.152 z m -9.45,-148.671 v 0.859 l 1.71,72.293 c 0.86,25.098 -10.29,25.957 -10.29,25.957 v 3.859 c 3.87,2.364 10.29,5.371 19.1,5.371 10.3,0 11.37,-8.156 10.73,-18.027 0,0 -1.29,-25.527 -1.29,-74.23 0,-6.219 0.43,-12.012 1.29,-16.082 h -21.25"
				 style="fill:#4f4c4c;fill-opacity:1;fill-rule:nonzero;stroke:none"
				 id="path26"
				 inkscape:connector-curvature="0" /><path
				 d="m 398.457,405.184 c -24.102,-16.786 -50.812,-45.84 -50.812,-45.84 0,0 -7.938,132.219 109.628,178.457 1.832,0.722 89.872,42.687 177.688,-21.797 0,0 19.797,-13.289 33.363,-34.121 0,0 16.981,-24.949 9.039,-55.828 C 673.746,411.973 667.324,395.332 647.73,384.141 588.738,350.438 545,395.793 545,395.793 c 0,0 -50.355,53.484 -113.285,26.902 -13.895,-5.871 -23.453,-10.683 -33.258,-17.511"
				 style="fill:#c4161d;fill-opacity:1;fill-rule:nonzero;stroke:none"
				 id="path28"
				 inkscape:connector-curvature="0" /><path
				 d="m 688.043,449.414 c 0,0 3.68,-25.254 -7.176,-50.676 -10.945,-25.633 -34.832,-55.117 -82.508,-58.816 -47.754,-3.711 -86.386,35.664 -86.386,35.664 0,0 -25.379,25.937 -59.977,21.523 -12.941,-1.64 -28.887,-8.593 -44.933,-19.746 C 344.668,334.023 133.035,170.41 133.035,170.41 l 282.262,176.934 c 0,0 20.933,13.242 38.516,13.535 11.269,0.184 23.98,-4.367 35.523,-13.059 22.656,-17.058 50.703,-33.367 82.598,-35.593 14.304,-1.008 29.527,-0.02 45.144,6.464 94.637,39.297 70.965,130.723 70.965,130.723"
				 style="fill:#80cc28;fill-opacity:1;fill-rule:nonzero;stroke:none"
				 id="path30"
				 inkscape:connector-curvature="0" /><path
				 d="m 674.254,316.102 c 35.574,59.628 22.848,111.074 22.848,111.074 0,0 5.027,-64.793 -39.934,-108.153 -19.516,-18.82 -44.961,-36.464 -89.063,-35.312 -43.851,1.141 -82.48,29.25 -82.48,29.25 0,0 -22.363,14.082 -38.77,13.875 -10.699,-0.137 -20.324,-2.793 -35.832,-12.531 C 382.676,296.504 69.043,84.6484 69.043,84.6484 L 411.93,279.277 c 0,0 15.586,11.27 37.133,8.289 11.55,-1.601 23.265,-11.269 40.605,-19.382 32.066,-15.012 69.297,-17.512 95.836,-11.672 47.637,10.468 72.726,32.746 88.75,59.59"
				 style="fill:#80cc28;fill-opacity:1;fill-rule:nonzero;stroke:none"
				 id="path32"
				 inkscape:connector-curvature="0" /><path
				 d="m 666.582,260.957 c 20.434,24.785 32.074,52.578 35.453,74.219 2.578,16.484 6.07,29.472 2.559,61.054 0,0 0.855,-29.238 -10.063,-62.042 -9.437,-28.36 -35.531,-63.778 -59.125,-80.672 -34.875,-24.981 -74.285,-29.289 -105.324,-26.993 -28.699,2.11 -59.516,15.125 -59.516,15.125 0,0 -14.812,7.188 -28.949,6.915 -8.59,-0.165 -22.301,-4.5 -29.523,-7.684 C 392.223,232.129 0,0 0,0 l 402.715,201.219 c 0,0 11.09,6.613 26.254,7.941 9.097,0.809 19.09,-1.855 30.633,-4.57 29.386,-6.906 136.101,-29.602 206.98,56.367"
				 style="fill:#80cc28;fill-opacity:1;fill-rule:nonzero;stroke:none"
				 id="path34"
				 inkscape:connector-curvature="0" /><path
				 d="m 769.996,191.66 h -11.633 v 363.008 h 11.633 V 191.66"
				 style="fill:#4f4c4c;fill-opacity:1;fill-rule:nonzero;stroke:none"
				 id="path36"
				 inkscape:connector-curvature="0" /><path
				 d="m 906.699,361.152 35.547,1.543 c 8.242,-9.023 5.938,-26.797 4.121,-29.375 h -4.883 c -1.035,7.735 -11.855,13.653 -27.05,13.653 h -19.825 c 0,-3.086 -1.289,-108.176 -0.527,-143.977 0,-4.637 1.035,-8.242 1.543,-11.336 h -28.066 v 4.121 c 0.507,66.973 0,131.621 0,131.621 0,7.469 -0.254,14.942 -1.036,19.571 h -19.828 c -15.195,0 -26.015,-5.918 -27.043,-13.653 h -4.902 c -1.797,2.578 -4.121,20.352 4.121,29.375 l 35.543,-1.543 h 52.285"
				 style="fill:#4f4c4c;fill-opacity:1;fill-rule:nonzero;stroke:none"
				 id="path38"
				 inkscape:connector-curvature="0" /><path
				 d="m 960.762,272.031 55.118,1.024 c 0,16.488 -8.5,34.777 -27.56,34.777 -16.992,0 -22.91,-15.723 -27.558,-35.801 z m 62.848,-11.074 -62.067,0.762 c 0.254,-3.86 0.254,-6.699 0.254,-10.293 0,-27.824 15.976,-43.535 37.871,-43.535 14.672,0 30.902,8.496 40.172,22.664 0,0 1.04,-3.094 1.04,-6.18 0,-19.824 -25.76,-36.055 -50.235,-36.055 -27.305,0 -52.032,18.028 -52.793,61.297 0,41.477 21.367,72.629 54.082,72.629 44.546,0 46.616,-39.66 46.616,-52.285 0,-2.832 0,-5.918 0,-5.918 -4.9,-2.832 -9.53,-3.086 -14.94,-3.086"
				 style="fill:#4f4c4c;fill-opacity:1;fill-rule:nonzero;stroke:none"
				 id="path40"
				 inkscape:connector-curvature="0" /><path
				 d="m 1150.57,191.66 c -0.53,3.613 -0.78,7.735 -0.53,12.363 l 0.53,61.817 c 0.25,24.726 -4.38,35.801 -20.86,36.062 -18.3,0 -29.89,-10.047 -35.8,-16.746 0.25,-24.199 1.29,-66.965 2.05,-82.676 0.25,-4.375 0.5,-7.988 1.29,-10.82 h -25.51 v 3.867 c 0.53,63.875 -0.26,135.743 -0.51,156.348 0,14.414 -4.63,22.148 -12.11,23.184 v 4.629 c 0,0 8.77,6.445 21.13,6.445 17.5,0 16.74,-13.906 14.95,-41.731 -1.04,-14.675 -1.57,-34.519 -1.29,-51.511 7.71,12.871 23.16,29.355 48.41,29.355 18.03,0 30.39,-14.933 30.9,-30.644 0.53,-10.821 -2.05,-78.047 2.58,-99.942 h -25.23"
				 style="fill:#4f4c4c;fill-opacity:1;fill-rule:nonzero;stroke:none"
				 id="path42"
				 inkscape:connector-curvature="0" /><path
				 d="m 1224.96,272.031 55.12,1.024 c 0,16.488 -8.5,34.777 -27.56,34.777 -17.01,0 -22.93,-15.723 -27.56,-35.801 z m 62.83,-11.074 -62.07,0.762 c 0.26,-3.86 0.26,-6.699 0.26,-10.293 0,-27.824 15.97,-43.535 37.87,-43.535 14.69,0 30.92,8.496 40.17,22.664 0,0 1.04,-3.094 1.04,-6.18 0,-19.824 -25.76,-36.055 -50.24,-36.055 -27.28,0 -52.01,18.028 -52.79,61.297 0,41.477 21.39,72.629 54.08,72.629 44.57,0 46.62,-39.66 46.62,-52.285 0,-2.832 0,-5.918 0,-5.918 -4.88,-2.832 -9.53,-3.086 -14.94,-3.086"
				 style="fill:#4f4c4c;fill-opacity:1;fill-rule:nonzero;stroke:none"
				 id="path44"
				 inkscape:connector-curvature="0" /><path
				 d="m 1357.32,318.387 c 0,0 24.98,0 31.41,0 7.73,0 9.02,3.097 9.02,3.097 0,0 0.51,-2.07 0.51,-4.902 0,-9.004 -9.26,-13.906 -19.82,-13.906 -4.63,0 -12.37,0.515 -17.27,0.515 -1.54,0 -2.83,0 -3.59,-0.261 l -0.26,-65.41 c 0,-16.485 2.06,-28.34 20.34,-28.34 10.56,0 22.67,4.375 23.96,7.207 1.04,-1.543 1.54,-3.594 1.54,-5.41 0,-10.293 -15.19,-22.657 -34,-22.657 -29.1,0 -34.51,15.45 -34.51,41.719 0,14.172 1.54,36.063 1.54,52.031 0,8.758 -0.51,17 -2.58,19.832 -5.91,8.243 -12.11,8.762 -11.83,8.762 l 1.29,7.723 c 1.01,0 12.61,-0.262 24.72,21.379 h 12.62 l -3.09,-21.379"
				 style="fill:#4f4c4c;fill-opacity:1;fill-rule:nonzero;stroke:none"
				 id="path46"
				 inkscape:connector-curvature="0" /><path
				 d="m 1431.74,293.66 c 0,-27.558 66.7,-23.699 66.7,-66.199 0,-22.91 -18.54,-39.141 -46.1,-39.141 -19.59,0 -39.16,12.11 -39.16,26.524 0,2.832 0.78,5.926 2.58,9.023 2.07,-9.797 22.15,-20.605 36.84,-20.605 12.11,0 24.72,4.629 24.72,18.281 0,22.402 -64.9,23.691 -64.9,62.852 0,20.605 18.54,37.851 43.01,37.851 20.1,0 28.85,-5.148 35.29,-9.004 1.8,-5.929 2.05,-19.844 -4.12,-26.015 l -4.65,1.027 c -5.66,17.508 -19.06,21.629 -28.59,21.629 -13.63,0 -21.62,-7.715 -21.62,-16.223"
				 style="fill:#4f4c4c;fill-opacity:1;fill-rule:nonzero;stroke:none"
				 id="path48"
				 inkscape:connector-curvature="0" /><path
				 d="m 1599.9,378.145 -10.04,-17.52 c -8.51,-14.68 -19.84,-23.437 -34.78,-23.437 -4.38,0 -9.53,3.359 -9.53,4.121 23.96,7.48 21.64,36.836 38.9,36.836 z m -63.36,-106.114 55.12,1.024 c 0,16.488 -8.5,34.777 -27.56,34.777 -17.01,0 -22.93,-15.723 -27.56,-35.801 z m 62.84,-11.074 -62.08,0.762 c 0.26,-3.86 0.26,-6.699 0.26,-10.293 0,-27.824 15.98,-43.535 37.87,-43.535 14.69,0 30.92,8.496 40.18,22.664 0,0 1.03,-3.094 1.03,-6.18 0,-19.824 -25.76,-36.055 -50.23,-36.055 -27.29,0 -52.02,18.028 -52.8,61.297 0,41.477 21.39,72.629 54.09,72.629 44.57,0 46.62,-39.66 46.62,-52.285 0,-2.832 0,-5.918 0,-5.918 -4.89,-2.832 -9.53,-3.086 -14.94,-3.086"
				 style="fill:#4f4c4c;fill-opacity:1;fill-rule:nonzero;stroke:none"
				 id="path50"
				 inkscape:connector-curvature="0" /><path
				 d="m 1930.27,304.473 c 0,32.715 -21.64,44.316 -37.87,43.789 l -13.9,-0.508 c -0.77,-9.277 -0.77,-45.586 -0.77,-68.77 0,-3.359 0,-5.929 0,-7.734 3.6,-1.797 7.97,-2.316 16.22,-2.316 19.84,0 36.32,13.652 36.32,35.539 z m -78.3,-112.813 v 4.121 c 0,22.41 0.51,44.571 0.26,64.395 0,43.535 2.32,85 -6.96,96.59 l 1.8,4.386 46.37,1.543 c 1.03,0 1.79,0 2.83,0 25.76,0 56.93,-10.566 56.93,-52.55 0,-31.68 -27.83,-54.09 -61.81,-54.09 -4.65,0 -9.03,0.515 -13.66,1.543 0.51,-26.016 1.29,-57.95 2.31,-65.938 h -28.07"
				 style="fill:#4f4c4c;fill-opacity:1;fill-rule:nonzero;stroke:none"
				 id="path52"
				 inkscape:connector-curvature="0" /><path
				 d="m 1984.57,191.66 c 0,15.457 1.04,52.031 1.04,87.832 0,30.137 -11.08,31.172 -12.62,31.172 v 4.629 c 4.63,2.832 12.36,6.445 22.93,6.445 10.29,0 12.36,-6.183 12.36,-14.687 0,-2.051 -0.27,-4.375 -0.78,-6.953 l -1.29,-11.328 c 0.78,1.796 16.23,33.476 39.92,33.476 11.6,0 17.78,-6.953 17.78,-15.449 0,-6.184 -4.38,-13.137 -13.13,-13.137 -1.56,0 -3.1,0 -4.9,0.52 -2.83,7.207 -7.99,8.75 -11.86,8.75 -20.33,0 -26.27,-39.141 -26.27,-56.66 0,-9.016 0,-45.586 2.58,-54.61 h -25.76"
				 style="fill:#4f4c4c;fill-opacity:1;fill-rule:nonzero;stroke:none"
				 id="path54"
				 inkscape:connector-curvature="0" /><path
				 d="m 2093.52,263.789 c 0,-35.039 15.44,-62.851 36.58,-62.851 16.99,0 30.9,19.57 30.9,48.679 0,34.25 -17.27,59.504 -38.38,59.504 -20.61,0 -29.1,-26.016 -29.1,-45.332 z m -25.24,-10.82 c 0,39.922 26.78,69.277 63.61,69.277 28.6,0 54.61,-20.605 54.61,-64.387 0,-37.089 -26.01,-69.539 -63.37,-69.539 -53.58,0 -54.85,60.528 -54.85,64.649"
				 style="fill:#4f4c4c;fill-opacity:1;fill-rule:nonzero;stroke:none"
				 id="path56"
				 inkscape:connector-curvature="0" /><path
				 d="m 2345.59,191.66 c 0,15.457 1.03,52.031 1.03,87.832 0,30.137 -11.07,31.172 -12.62,31.172 v 4.629 c 4.63,2.832 12.37,6.445 22.93,6.445 10.3,0 12.37,-6.183 12.37,-14.687 0,-2.051 -0.28,-4.375 -0.78,-6.953 l -1.29,-11.328 c 0.78,1.796 16.23,33.476 39.92,33.476 11.6,0 17.77,-6.953 17.77,-15.449 0,-6.184 -4.37,-13.137 -13.12,-13.137 -1.57,0 -3.11,0 -4.91,0.52 -2.83,7.207 -7.98,8.75 -11.85,8.75 -20.33,0 -26.27,-39.141 -26.27,-56.66 0,-9.016 0,-45.586 2.58,-54.61 h -25.76"
				 style="fill:#4f4c4c;fill-opacity:1;fill-rule:nonzero;stroke:none"
				 id="path58"
				 inkscape:connector-curvature="0" /><path
				 d="m 2499.34,251.426 c -0.26,0 -48.17,-0.528 -48.17,-25.508 0,-8.75 5.92,-19.063 20.1,-19.063 12.87,0 24.73,6.954 27.3,12.364 0,5.41 0.77,32.207 0.77,32.207 z m 44.29,-52.031 v -4.641 c -4.88,-3.094 -16.48,-6.434 -23.94,-6.434 -17.27,0 -19.57,21.368 -19.57,25.235 -4.91,-15.703 -23.19,-25.235 -36.84,-25.235 -24.22,0 -35.29,16.739 -35.29,33.223 0,24.98 24.22,38.633 52.03,38.633 6.44,0 12.87,-1.035 19.32,-2.578 0.25,5.156 0.5,10.566 0.5,15.457 0,20.343 -3.34,37.355 -24.2,37.355 -12.1,0 -19.84,-9.023 -19.84,-18.301 0,-0.761 0.27,-1.796 0.27,-2.566 -2.57,-1.809 -5.68,-2.57 -8.77,-2.57 -6.42,0 -12.36,4.121 -12.36,11.582 0,15.449 21.39,23.691 41.21,23.691 28.34,0 46.62,-10.547 46.62,-36.828 0,-5.41 -0.5,-10.809 -0.5,-49.969 0,-9.277 1.28,-21.894 3.59,-26.777 4.9,-9.793 17.01,-9.277 17.77,-9.277"
				 style="fill:#4f4c4c;fill-opacity:1;fill-rule:nonzero;stroke:none"
				 id="path60"
				 inkscape:connector-curvature="0" /><path
				 d="m 2723.65,191.66 c -0.52,3.613 -0.78,7.735 -0.52,12.363 l 0.52,61.817 c 0.26,24.726 -4.37,35.801 -20.86,36.062 -17.26,0 -28.59,-8.504 -34.53,-14.675 -0.25,-15.723 -1.8,-75.989 2.58,-95.567 h -25.23 c -0.51,3.613 -0.79,7.735 -0.51,12.363 l 0.51,61.817 c 0.25,24.726 -4.38,35.801 -20.86,36.062 -18.81,0 -30.67,-10.808 -36.33,-17.507 0,-10.567 0,-46.114 0.53,-73.418 0,-7.715 1.01,-14.414 2.05,-19.317 h -25.77 v 1.035 l 1.04,86.797 c 0.53,30.137 -13.13,31.172 -13.13,31.172 v 4.629 c 4.63,2.832 12.37,6.445 22.91,6.445 12.37,0 13.91,-9.785 13.15,-21.64 0,0 -0.53,-2.317 -1.29,-7.207 7.73,12.871 24.22,29.355 49.45,29.355 16.49,0 28.34,-12.617 30.65,-27.031 7.99,12.098 23.18,27.031 47.4,27.031 18.03,0 30.39,-14.933 30.9,-30.644 0.53,-10.821 -2.05,-78.047 2.58,-99.942 h -25.24"
				 style="fill:#4f4c4c;fill-opacity:1;fill-rule:nonzero;stroke:none"
				 id="path62"
				 inkscape:connector-curvature="0" /><path
				 d="m 2260.37,232.109 c -18.28,0 -28.07,19.317 -28.07,45.586 0,11.328 2.58,33.739 21.9,33.739 18.28,0 29.61,-18.543 29.61,-44.559 0,-21.641 -8.75,-34.766 -23.44,-34.766 z m 47.15,70.567 c 8.5,0 16.74,3.347 16.74,11.855 0,2.051 -0.51,4.375 -1.55,6.953 0,0 -1.28,-3.097 -9.02,-3.097 h -22.91 l -4.65,-3.348 c -4.88,4.902 -16.74,7.207 -24.47,7.207 -31.93,0 -53.83,-21.894 -53.83,-51.504 0,-21.387 10.04,-34.777 21.64,-41.992 -7.99,-3.594 -18.02,-10.82 -18.02,-22.922 0,-44.812 83.96,-11.336 83.96,-42.488 0,-15.469 -18.55,-25.762 -38.12,-25.762 -1.59,0 -3.13,0.098 -10.16,0.352 v -11.192 c 6.6,-0.195 7.73,-0.234 8.87,-0.234 29.88,0 61.56,15.195 61.56,42.754 0,48.418 -82.17,20.859 -88.09,40.691 -0.51,1.809 -0.78,2.844 -0.78,4.387 0,4.883 2.58,9.004 5.94,11.582 6.95,-2.578 14.41,-3.867 21.89,-3.867 26.27,0 51.25,17.012 51.25,52.293 0,12.101 -4.9,24.726 -12.87,30.91 0,0 0.51,0.254 1.02,0.254 2.07,0 4.37,-2.832 11.6,-2.832"
				 style="fill:#4f4c4c;fill-opacity:1;fill-rule:nonzero;stroke:none"
				 id="path64"
				 inkscape:connector-curvature="0" /><path
				 d="m 1690.02,232.109 c -18.28,0 -28.07,19.317 -28.07,45.586 0,11.328 2.56,33.739 21.88,33.739 18.3,0 29.63,-18.543 29.63,-44.559 0,-21.641 -8.75,-34.766 -23.44,-34.766 z m 47.13,70.567 c 8.49,0 16.74,3.347 16.74,11.855 0,2.051 -0.51,4.375 -1.55,6.953 0,0 -1.29,-3.097 -9,-3.097 h -22.93 l -4.63,-3.348 c -4.9,4.902 -16.74,7.207 -24.47,7.207 -31.93,0 -53.83,-21.894 -53.83,-51.504 0,-21.387 10.04,-34.777 21.62,-41.992 -7.97,-3.594 -18.03,-10.82 -18.03,-22.922 0,-44.812 83.97,-11.336 83.97,-42.488 0,-15.469 -18.54,-25.762 -38.11,-25.762 -1.58,0 -3.14,0.098 -10.15,0.508 v -11.191 c 6.6,-0.352 7.71,-0.391 8.86,-0.391 29.89,0 61.57,15.195 61.57,42.754 0,48.418 -82.17,20.859 -88.11,40.691 -0.51,1.809 -0.76,2.844 -0.76,4.387 0,4.883 2.58,9.004 5.92,11.582 6.95,-2.578 14.43,-3.867 21.89,-3.867 26.27,0 51.25,17.012 51.25,52.293 0,12.101 -4.88,24.726 -12.87,30.91 0,0 0.51,0.254 1.04,0.254 2.05,0 4.37,-2.832 11.58,-2.832"
				 style="fill:#4f4c4c;fill-opacity:1;fill-rule:nonzero;stroke:none"
				 id="path66"
				 inkscape:connector-curvature="0" /></g></g></svg>
