<?xml version="1.0" encoding="UTF-8" standalone="no"?>
<svg
   xmlns:dc="http://purl.org/dc/elements/1.1/"
   xmlns:cc="http://creativecommons.org/ns#"
   xmlns:rdf="http://www.w3.org/1999/02/22-rdf-syntax-ns#"
   xmlns:svg="http://www.w3.org/2000/svg"
   xmlns="http://www.w3.org/2000/svg"
   viewBox="0 0 1686.6667 466.66666"
   height="466.66666"
   width="1686.6667"
   xml:space="preserve"
   id="svg2"
   version="1.1"><metadata
     id="metadata8"><rdf:RDF><cc:Work
         rdf:about=""><dc:format>image/svg+xml</dc:format><dc:type
           rdf:resource="http://purl.org/dc/dcmitype/StillImage" /></cc:Work></rdf:RDF></metadata><defs
     id="defs6"><clipPath
       id="clipPath18"
       clipPathUnits="userSpaceOnUse"><path
         id="path16"
         d="M 0,350 H 1265 V 0 H 0 Z" /></clipPath></defs><g
     transform="matrix(1.3333333,0,0,-1.3333333,0,466.66667)"
     id="g10"><g
       id="g12"><g
         clip-path="url(#clipPath18)"
         id="g14"><g
           transform="translate(335.6299,329.8701)"
           id="g20"><path
             id="path22"
             style="fill:#1f1f1f;fill-opacity:1;fill-rule:nonzero;stroke:none"
             d="m 0,0 c 9.91,0.25 19.83,0.25 29.74,0 0.25,-10.24 0.25,-20.5 0,-30.74 -9.91,-0.25 -19.83,-0.25 -29.74,0 -0.25,10.24 -0.25,20.5 0,30.74" /></g><g
           transform="translate(90.8799,238.6299)"
           id="g24"><path
             id="path26"
             style="fill:#1f1f1f;fill-opacity:1;fill-rule:nonzero;stroke:none"
             d="m 0,0 c -12.05,-1.27 -22.58,-9.46 -27.76,-20.26 -7.66,-14.2 -8.76,-30.6 -9.61,-46.38 0.7,-11.56 1.73,-23.47 6.93,-34.03 3.78,-8.34 10.54,-15.43 19.06,-18.93 10.83,-4.14 23.17,-4.13 34,-0.01 8.27,3.4 14.62,10.26 19.26,17.73 2.41,3.62 1.72,8.15 1.79,12.26 -0.13,21.35 -0.02,42.7 -0.03,64.05 0.13,3.72 -2.31,6.75 -4.45,9.53 -4.42,5.27 -9.44,10.43 -15.96,13.02 C 15.91,-0.1 7.84,1.24 0,0 M -42.6,8.59 C -31.9,18.8 -17.17,24.56 -2.39,24.47 10.28,24.43 23.5,21.4 33.53,13.28 38.67,9.74 42.19,4.52 46.49,0.1 c 0.47,8.04 -0.23,16.1 0.26,24.14 8.91,0.26 17.83,0.26 26.74,0 0.33,-57.62 0,-115.26 0.16,-172.89 -0.57,-15.9 -5.32,-32.6 -17.21,-43.79 -13.14,-12.85 -31.92,-17.5 -49.79,-18.24 -12.02,-0.41 -24.02,1.48 -35.62,4.49 -6.56,2.02 -13.22,4.1 -19.17,7.59 2.47,7.62 4.88,15.24 7.11,22.93 15.95,-7.26 33.66,-11.64 51.25,-9.57 8.4,1.05 17.17,3.54 23.21,9.79 6.9,6.72 9.25,16.6 10.07,25.87 0.3,7.7 0.14,15.42 0.06,23.13 -3.93,-3.45 -7.33,-7.51 -11.69,-10.45 -10.46,-7.41 -23.64,-10.13 -36.29,-9.78 -10.33,0.59 -20.88,2.71 -29.79,8.2 -5.52,3.3 -10.06,7.93 -14.36,12.66 -9.44,10.56 -14.35,24.36 -16.95,38.09 -1.44,11.34 -2.76,22.84 -1.19,34.25 0.99,22.51 8.41,45.47 24.11,62.07" /></g><g
           transform="translate(182.6299,262.8701)"
           id="g28"><path
             id="path30"
             style="fill:#1f1f1f;fill-opacity:1;fill-rule:nonzero;stroke:none"
             d="m 0,0 c 9.91,0.25 19.83,0.25 29.74,0 0.31,-29.28 0.04,-58.58 0.12,-87.87 -0.37,-9.18 0.61,-18.33 1.56,-27.45 0.98,-7.85 3.37,-16.11 9.32,-21.68 5.8,-4.93 13.6,-7.01 21.11,-6.97 9,-0.15 18.15,1.63 26.07,6.05 4.21,2.26 7.48,5.85 10.69,9.31 3.14,3.55 6.35,7.7 6.28,12.69 0.06,38.64 -0.2,77.29 0.11,115.92 9.91,0.25 19.83,0.25 29.74,0 0.32,-33.61 0.03,-67.25 0.13,-100.87 -0.1,-21.29 0.2,-42.59 -0.13,-63.87 -8.88,-0.23 -17.78,-0.32 -26.66,0.05 -1.7,7.86 -1.41,15.98 -2.38,23.94 -2.48,-3.49 -4.8,-7.11 -7.62,-10.35 -10.39,-11.35 -25.96,-17.19 -41.22,-16.86 -13.97,0.21 -28.59,4.3 -38.78,14.29 -5.91,5.23 -9.46,12.46 -12.34,19.67 -4.55,11.81 -5.37,24.61 -5.91,37.13 C 0.03,-64.58 -0.35,-32.28 0,0" /></g><g
           transform="translate(335.6299,262.8701)"
           id="g32"><path
             id="path34"
             style="fill:#1f1f1f;fill-opacity:1;fill-rule:nonzero;stroke:none"
             d="m 0,0 c 9.9,0.25 19.83,0.25 29.74,0 0.32,-31.28 0.03,-62.58 0.13,-93.87 -0.1,-23.62 0.2,-47.25 -0.13,-70.87 -9.91,-0.25 -19.83,-0.25 -29.74,0 -0.32,32.28 -0.03,64.58 -0.13,96.87 0.1,22.62 -0.2,45.25 0.13,67.87" /></g><g
           transform="translate(672.2002,159.2998)"
           id="g36"><path
             id="path38"
             style="fill:#1f1f1f;fill-opacity:1;fill-rule:nonzero;stroke:none"
             d="m 0,0 c -5.12,-5.01 -7.57,-12.19 -7.62,-19.26 0.47,-8.5 4.98,-17.46 13.31,-20.63 11.69,-4.35 24.87,-2.62 36.21,2.02 9.32,4.27 18.06,10.75 23.1,19.87 1.77,3.27 1.29,7.12 1.36,10.7 -0.21,6.62 0.2,13.25 -0.19,19.87 C 55.22,12.96 44.25,12.52 33.3,12.75 21.17,13.05 8.17,9.45 0,0 M 22.12,102.97 C 40.88,105.29 61.42,102.9 76.99,91.39 89.6,82.52 96.37,66.91 96.33,51.73 96.25,23.71 96.35,-4.3 96.27,-32.31 c 0.52,-10.95 1.22,-22.03 4.89,-32.46 -10.48,1.1 -21.03,-0.03 -31.53,0.66 -1.57,7.9 -2.59,15.9 -3.54,23.89 -10.93,-14.1 -26.85,-25.07 -44.92,-26.88 -13.46,-1.11 -27.8,0.88 -39.3,8.36 -10.74,6.78 -17.15,18.98 -18.73,31.37 -1.92,10.19 -0.62,21.01 3.85,30.39 6.61,13.11 20.1,21.04 33.66,25.34 11.56,3.28 23.64,4.76 35.65,4.35 9.96,0.09 19.92,-0.24 29.87,0.12 -0.09,10.51 1.79,21.82 -3.2,31.56 -4.22,7.2 -11.46,12.7 -19.71,14.3 C 32.94,80.85 21.54,80.16 12.31,74.7 8.17,72.33 4.36,69.1 2.18,64.79 0.52,61.74 0.41,58.21 -0.08,54.85 c -9.77,-0.17 -19.6,-0.57 -29.35,0.26 -0.68,8.76 2.55,17.51 7.99,24.31 10.52,13.37 26.74,21.72 43.56,23.55" /></g><g
           transform="translate(848.9102,259.5601)"
           id="g40"><path
             id="path42"
             style="fill:#1f1f1f;fill-opacity:1;fill-rule:nonzero;stroke:none"
             d="m 0,0 c 12.53,4.53 26.42,4.5 39.22,1.1 13.25,-3.43 25.17,-12.66 30.74,-25.3 5.11,-11.36 6.86,-23.99 6.67,-36.37 -0.19,-34.62 0.17,-69.25 -0.17,-103.86 -9.91,-0.25 -19.84,-0.25 -29.74,0 -0.33,35.96 0,71.94 -0.15,107.9 -0.73,9.69 -2.43,20.26 -9.36,27.61 -8.42,7.52 -20.48,9.42 -31.38,8.09 -13.44,-1.49 -25.76,-9.81 -32.39,-21.56 -0.72,-1.24 -0.81,-2.71 -0.88,-4.11 -0.04,-39.31 0.2,-78.63 -0.1,-117.93 -9.91,-0.25 -19.84,-0.25 -29.74,0 -0.31,46.95 -0.04,93.91 -0.13,140.87 0.12,7.96 -0.26,15.92 0.13,23.87 8.85,0.25 17.73,0.26 26.59,0 0.9,-7.96 1.06,-15.99 2.35,-23.9 C -21.17,-13.46 -11.84,-4.35 0,0" /></g><g
           transform="translate(975.25,251.25)"
           id="g44"><path
             id="path46"
             style="fill:#1f1f1f;fill-opacity:1;fill-rule:nonzero;stroke:none"
             d="m 0,0 c 14.97,10.38 34.05,13.08 51.85,11.33 18,-1.84 35.64,-10.9 46,-25.99 6.8,-9.64 10.54,-21.63 9.3,-33.46 -8.85,-0.22 -17.71,-0.33 -26.54,0.06 -1.04,5.12 -1.51,10.48 -3.96,15.18 -4.92,10.27 -14.87,18.01 -26.11,19.97 -9.23,1.65 -18.98,0.7 -27.6,-3.05 -7.31,-3.26 -12.93,-9.48 -16.41,-16.59 -8.23,-15.49 -8.89,-33.56 -8.19,-50.71 1.06,-14 4.5,-28.38 13.2,-39.7 7.09,-8.75 18.79,-12.24 29.7,-12.39 11.61,-0.4 23.32,4.38 31.33,12.8 4.93,5.17 6.94,12.23 8.12,19.1 8.81,0.42 17.65,0.28 26.47,0.07 1.67,-13.31 -5.2,-26.21 -14.61,-35.18 -7.23,-7.59 -16.42,-13.07 -26.17,-16.77 -20,-6.63 -42.79,-5.1 -61.5,4.69 -11.76,6.17 -20.48,16.82 -26.64,28.38 -7.83,15.01 -10.84,32.19 -9.99,49.01 -0.73,13.26 1.45,26.56 5.96,39.03 C -20.73,-20.64 -11.69,-8.56 0,0" /></g><g
           transform="translate(1153.6602,233.8398)"
           id="g48"><path
             id="path50"
             style="fill:#1f1f1f;fill-opacity:1;fill-rule:nonzero;stroke:none"
             d="m 0,0 c -12.54,-8.75 -19.84,-23.69 -21.25,-38.69 8.68,-0.43 17.39,-0.01 26.09,-0.15 16.62,0.12 33.24,-0.22 49.86,0.13 C 56.58,-23.81 50.98,-7 37.44,0.75 25.89,6.45 11.05,7.32 0,0 m -19.34,17.35 c 13.64,9.8 31.07,13.59 47.62,11.3 13.5,-1.44 27.26,-6.22 36.86,-16.18 12.31,-12.13 18.62,-29.28 19.79,-46.31 1.1,-9.58 1.16,-19.24 0.79,-28.87 -35.94,-0.4 -71.9,0.14 -107.83,-0.25 -0.45,-16.33 4.81,-33.53 16.72,-45.11 6.3,-5.24 14.16,-8.8 22.35,-9.61 18.49,-1.46 37.91,3.57 52.01,15.96 4.36,-6.17 7.95,-12.85 11.89,-19.29 -6.62,-7.21 -15.66,-11.44 -24.44,-15.38 -10.96,-4.27 -22.9,-5.5 -34.58,-5.54 -16.42,0.05 -33.09,4.78 -46.12,14.98 -10.73,9.06 -19.24,20.89 -23.7,34.26 -4.91,14.7 -5.79,30.42 -5.02,45.8 0.78,9.28 2.39,18.56 5.52,27.36 5.44,14.74 15.58,27.54 28.14,36.88" /></g><g
           transform="translate(1089.52,74.9399)"
           id="g52"><path
             id="path54"
             style="fill:#1f1f1f;fill-opacity:1;fill-rule:nonzero;stroke:none"
             d="M 0,0 C 2.73,0.17 5.48,0.16 8.23,0 8.33,-2.29 8.33,-4.59 8.24,-6.88 5.48,-7.04 2.73,-7.04 0,-6.88 -0.08,-4.58 -0.08,-2.29 0,0" /></g><g
           transform="translate(1066.3701,67.96)"
           id="g56"><path
             id="path58"
             style="fill:#1f1f1f;fill-opacity:1;fill-rule:nonzero;stroke:none"
             d="m 0,0 c 2.59,0.13 5.2,0.12 7.8,-0.06 0.14,-2.85 0.26,-5.71 0.44,-8.56 2.18,-0.29 4.39,-0.49 6.59,-0.79 0.02,-2.03 0.02,-4.07 0,-6.1 -2.21,-0.3 -4.44,-0.5 -6.64,-0.79 -0.36,-7.72 -0.59,-15.51 0.23,-23.2 2,-0.91 4.08,-1.62 6.14,-2.45 0.27,-1.79 0.35,-3.61 0.27,-5.43 -3.47,-0.55 -7.28,-1.17 -10.51,0.59 -2.88,1.47 -4.31,4.71 -4.48,7.8 -0.54,7.49 0.23,15 -0.15,22.5 -1.9,0.33 -3.8,0.64 -5.68,0.95 -0.17,2.05 -0.17,4.11 0,6.15 1.85,0.32 3.71,0.64 5.58,0.96 0.14,2.81 0.25,5.62 0.41,8.43" /></g><g
           transform="translate(929.3398,53.1201)"
           id="g60"><path
             id="path62"
             style="fill:#1f1f1f;fill-opacity:1;fill-rule:nonzero;stroke:none"
             d="m 0,0 c 5.97,7.73 19.51,8.1 25.56,0.29 1.92,-2.35 2.4,-5.43 2.76,-8.35 -2.26,-0.06 -4.55,-0.34 -6.75,0.18 -1.79,1.65 -2.69,4.02 -4.4,5.72 C 13.52,-0.09 7.86,-0.97 6,-5.06 3.83,-9.97 3.87,-15.76 5.42,-20.84 c 1,-3.71 4.93,-5.86 8.63,-5.24 3.6,0 5.16,3.63 7.57,5.65 2.14,0.72 4.48,0.25 6.71,0.23 -0.28,-8.47 -9.22,-13.84 -17.07,-12.88 -7.02,0.24 -13.03,5.75 -14.5,12.5 C -4.67,-13.71 -4.49,-5.75 0,0" /></g><g
           transform="translate(963.8901,58.8101)"
           id="g64"><path
             id="path66"
             style="fill:#1f1f1f;fill-opacity:1;fill-rule:nonzero;stroke:none"
             d="M 0,0 C 2.53,0.23 5.07,0.27 7.62,0.14 7.73,-1.71 7.86,-3.57 7.97,-5.43 10.87,-2 14.72,1.06 19.53,0.16 19.54,-2.38 19.25,-4.93 18.56,-7.38 15.15,-8.14 9.55,-7.49 8.7,-11.99 7.88,-20.53 8.91,-29.15 8.37,-37.71 5.58,-37.92 2.78,-37.89 0,-37.61 -0.06,-25.07 -0.06,-12.53 0,0" /></g><g
           transform="translate(997.9199,49.5801)"
           id="g68"><path
             id="path70"
             style="fill:#1f1f1f;fill-opacity:1;fill-rule:nonzero;stroke:none"
             d="M 0,0 C -1.59,-1.76 -1.97,-4.18 -2.56,-6.39 2.51,-6.77 7.62,-6.78 12.7,-6.35 12.27,-4.07 12.18,-1.51 10.56,0.31 7.87,3.35 2.54,3.08 0,0 m -5.35,5.38 c 6.08,5.85 17.37,5.45 22.56,-1.38 3.7,-4.96 3.95,-11.5 3.51,-17.45 -7.83,-0.52 -15.67,0.28 -23.49,-0.31 0.48,-3.19 1.79,-6.67 5.02,-8 5.06,-2.23 10.39,0.29 15.25,1.86 0.87,-1.74 1.6,-3.56 2.16,-5.44 -8.16,-6.09 -21.95,-6.22 -27.83,3.06 -5.1,8.34 -4.42,20.72 2.82,27.66" /></g><g
           transform="translate(1035.4902,34.9302)"
           id="g72"><path
             id="path74"
             style="fill:#1f1f1f;fill-opacity:1;fill-rule:nonzero;stroke:none"
             d="m 0,0 c -2.62,-1.1 -4.01,-5.47 -1.11,-7.04 3.46,-1.75 7.88,-0.91 10.97,1.28 2.25,1.41 1.829,4.33 2.09,6.6 C 7.979,1.14 3.729,1.72 0,0 m -9.43,12.85 c 0.39,7.61 8.6,11.6 15.409,11.25 6.101,0.08 13.231,-3.38 13.931,-10.1 0.93,-9.26 -0.07,-18.62 0.94,-27.9 -2.49,-0.14 -4.99,-0.1 -7.46,0.13 -0.6,1.43 -1.19,2.86 -1.78,4.28 -2.94,-2.24 -5.79,-5.17 -9.69,-5.42 -4.63,-0.46 -9.96,1.4 -11.981,5.88 -2.009,4.64 -1.359,11.05 3.181,13.99 5.49,3.84 12.5,2.78 18.8,3.4 -0.28,2.52 0.2,5.79 -2.17,7.46 -3.22,2.21 -7.57,1.48 -10.22,-1.25 -2.36,-2.52 -5.87,-2.08 -8.96,-1.72" /></g><g
           transform="translate(1089.6201,58.9399)"
           id="g76"><path
             id="path78"
             style="fill:#1f1f1f;fill-opacity:1;fill-rule:nonzero;stroke:none"
             d="M 0,0 C 2.66,0.16 5.33,0.16 8.01,-0.01 8.54,-6.3 8.18,-12.63 8.24,-18.94 8.19,-25.25 8.55,-31.57 8.01,-37.87 5.33,-38.03 2.66,-38.04 0.01,-37.89 -0.23,-25.26 -0.22,-12.62 0,0" /></g><g
           transform="translate(1103.73,58.9702)"
           id="g80"><path
             id="path82"
             style="fill:#1f1f1f;fill-opacity:1;fill-rule:nonzero;stroke:none"
             d="m 0,0 c 2.83,0.17 5.68,0.12 8.52,-0.14 3.24,-9.17 5.43,-18.67 8.59,-27.87 2.53,9.3 5.12,18.58 8.08,27.74 2.82,0.37 5.67,0.45 8.53,0.29 -4.18,-12.7 -8.62,-25.33 -13.23,-37.87 -2.43,-0.24 -4.87,-0.2 -7.26,0.17 C 8.7,-25.16 4.24,-12.61 0,0" /></g><g
           transform="translate(1152.9102,49.5801)"
           id="g84"><path
             id="path86"
             style="fill:#1f1f1f;fill-opacity:1;fill-rule:nonzero;stroke:none"
             d="M 0,0 C -1.59,-1.76 -1.97,-4.18 -2.55,-6.39 2.52,-6.77 7.63,-6.78 12.71,-6.36 12.27,-4.07 12.19,-1.51 10.56,0.31 7.87,3.37 2.55,3.08 0,0 M 1.93,9.12 C 7.4,10.16 13.81,8.69 17.23,4 c 3.68,-4.97 3.94,-11.51 3.5,-17.45 -7.83,-0.52 -15.67,0.29 -23.49,-0.31 0.48,-3.19 1.8,-6.66 5.02,-8 5.05,-2.23 10.38,0.28 15.23,1.86 0.9,-1.73 1.63,-3.55 2.16,-5.44 -7.29,-5.31 -18.67,-6.25 -25.52,0.27 -5.58,5.32 -6.31,13.74 -4.86,20.91 1.31,6.27 6.19,12.06 12.66,13.28" /></g><g
           transform="translate(485.8184,327.8047)"
           id="g88"><path
             id="path90"
             style="fill:#3598db;fill-opacity:1;fill-rule:nonzero;stroke:none"
             d="m 0,0 c 12.88,2.56 26.15,2.81 39.19,1.37 24.38,-2.82 48.94,-12.58 65.37,-31.38 7.23,-6.92 12.01,-15.84 16.15,-24.83 5.87,-14.62 9.42,-30.2 10.06,-45.95 -0.08,-10.02 0.08,-20.05 -0.07,-30.07 -0.73,-9.87 -2.03,-19.74 -4.48,-29.35 -3.55,-14.59 -7.76,-29.12 -14.46,-42.62 -6.02,-13.31 -13.4,-26.07 -22.43,-37.57 -7.35,-10.46 -16.37,-19.63 -25.83,-28.18 -14.73,-13.16 -31.85,-23.68 -50.37,-30.61 -15.52,-5.53 -31.93,-8.24 -48.37,-8.72 -23.07,0.73 -47.02,4.11 -67.03,16.41 0.11,1.69 0.21,3.38 0.65,5.01 3.57,12.34 6.16,24.94 9.77,37.26 3.64,12.64 6.23,25.6 10.48,38.05 7.01,-0.95 13.97,-2.46 21.07,-2.6 6.38,0.04 12.75,-1.48 19.11,-0.31 14,0.41 27.9,3.71 40.59,9.65 8.03,4.24 15.51,9.62 21.8,16.18 5.35,5.5 9.42,12.04 13.48,18.5 9.09,17.25 13.54,36.59 15.08,55.94 1.59,12.51 1.65,25.26 -0.32,37.73 -1.69,12.1 -6.44,24.1 -14.92,33.04 -9.39,8.34 -22.58,10.91 -34.81,10.27 -12.38,0.23 -23.93,-4.77 -35.91,-6.93 0,5.08 2.06,9.8 3.16,14.69 1.63,5.66 2.37,11.7 5,17.01 C -19.27,-3.8 -9.55,-1.76 0,0" /></g><g
           transform="translate(466.6284,269.9048)"
           id="g92"><path
             id="path94"
             style="fill:#3598db;fill-opacity:1;fill-rule:nonzero;stroke:none"
             d="m 0,0 c -1.935,-8.67 -7.063,-35.294 -8.44,-39.54 -8.88,-0.76 -39.617,-4.046 -47.44,-4.27 3.11,12.95 7.42,25.61 11.57,38.27 C -36.06,-4.795 -12.435,0.023 0,0" /></g><g
           transform="translate(451.6084,199.6152)"
           id="g96"><path
             id="path98"
             style="fill:#3598db;fill-opacity:1;fill-rule:nonzero;stroke:none"
             d="m 0,0 c -3.42,-18.5 -7.69,-36.83 -11.53,-55.24 -8.21,0.54 -44.078,-0.722 -54.65,-0.66 0.75,8.47 4.6,16.24 6.59,24.43 3.16,9.32 5.62,18.85 8.95,28.11 C -40.11,-2.68 -6.739,-0.263 0,0" /></g><g
           transform="translate(1180.9785,70.7847)"
           id="g100"><path
             id="path102"
             style="fill:#3598db;fill-opacity:1;fill-rule:nonzero;stroke:none"
             d="m 0,0 c 3.26,0.32 6.55,0.33 9.84,0.14 0.5,-10.64 0.05,-21.3 0.2,-31.94 -0.05,-5.98 0.23,-11.96 -0.2,-17.93 C 6.55,-49.92 3.26,-49.91 0,-49.59 -0.03,-33.06 -0.04,-16.53 0,0" /></g><g
           transform="translate(1197.6084,70.8848)"
           id="g104"><path
             id="path106"
             style="fill:#3598db;fill-opacity:1;fill-rule:nonzero;stroke:none"
             d="m 0,0 c 12.86,0.12 25.75,0.33 38.6,-0.12 0.05,-2.52 0.05,-5.05 0,-7.58 -4.74,-0.33 -9.5,-0.07 -14.23,-0.39 -0.23,-13.91 0.31,-27.82 -0.21,-41.72 -3.33,-0.21 -6.67,-0.21 -9.99,0.04 C 13.84,-35.85 14.41,-21.92 13.95,-8 9.3,-7.81 4.64,-7.98 0,-7.81 -0.12,-5.21 -0.12,-2.6 0,0" /></g></g></g></g></svg>