<svg width="368.5" height="138" xmlns="http://www.w3.org/2000/svg">
 <defs>
  <pattern viewBox="2.1 -70.9 69 69" id="Polka_Dot_Pattern" patternUnits="userSpaceOnUse" height="69" width="69" y="1213.3" x="-1245.5">
   <g id="svg_1">
    <polygon id="svg_2" points="71.1,-1.9 2.1,-1.9 2.1,-70.9 71.1,-70.9   " fill="none"/>
    <polygon id="svg_3" points="71.1,-1.9 2.1,-1.9 2.1,-70.9 71.1,-70.9   " fill="#F7BC60"/>
    <g id="svg_4">
     <path id="svg_5" d="m61.8,-71.7c0,0.1 0,0.1 0,0.2c-0.1,0.1 -0.1,0.1 -0.2,0.1c-0.1,0.1 -0.1,0.3 -0.1,0.4c-0.2,0.1 0,0.2 0,0.3c0,0 0,0.1 0,0.2c0,0.1 0,0.3 0.1,0.4c0.1,0.2 0.3,0.4 0.4,0.5c0.2,0.1 0.4,0.6 0.6,0.6c0.2,0 0.4,-0.1 0.5,-0.1c0.2,0 0.4,0 0.6,-0.1c0.2,-0.1 0.1,-0.3 0.3,-0.5c0.1,-0.1 0.3,0 0.4,-0.1c0.2,-0.1 0.3,-0.3 0.4,-0.5c0,-0.1 0,-0.1 0,-0.2c0,-0.1 0.1,-0.2 0.1,-0.3c0,-0.1 -0.1,-0.1 -0.1,-0.2c0,-0.1 0,-0.2 0,-0.3c0,-0.2 0,-0.4 -0.1,-0.5c-0.4,-0.7 -1.2,-0.9 -2,-0.8c-0.2,0 -0.3,0.1 -0.4,0.2c-0.2,0.1 -0.1,0.2 -0.3,0.2c-0.1,0 -0.2,0.1 -0.2,0.2c0,0.3 0,0.3 0,0.3c0,0.1 0,0.1 0,0" fill="#FFFFFF"/>
     <path id="svg_6" d="m54.1,-71.7c0,0.1 0,0.1 0,0.2c-0.1,0.1 -0.1,0.1 -0.2,0.1c-0.1,0.1 -0.1,0.3 -0.1,0.4c-0.2,0.1 0,0.2 0,0.3c0,0 0,0.1 0,0.2c0,0.1 0,0.3 0.1,0.4c0.1,0.2 0.3,0.4 0.4,0.5c0.2,0.1 0.4,0.6 0.6,0.6c0.2,0 0.4,-0.1 0.5,-0.1c0.2,0 0.4,0 0.6,-0.1c0.2,-0.1 0.1,-0.3 0.3,-0.5c0.1,-0.1 0.3,0 0.4,-0.1c0.2,-0.1 0.3,-0.3 0.4,-0.5c0,-0.1 0,-0.1 0,-0.2c0,-0.1 0.1,-0.2 0.1,-0.3c0,-0.1 -0.1,-0.1 -0.1,-0.2c0,-0.1 0,-0.2 0,-0.3c0,-0.2 0,-0.4 -0.1,-0.5c-0.4,-0.7 -1.2,-0.9 -2,-0.8c-0.2,0 -0.3,0.1 -0.4,0.2c-0.2,0.1 -0.1,0.2 -0.3,0.2c-0.1,0 -0.2,0.1 -0.2,0.2c0,0.3 0,0.3 0,0.3c0,0.1 0,0.1 0,0" fill="#FFFFFF"/>
     <path id="svg_7" d="m46.4,-71.7c0,0.1 0,0.1 0,0.2c-0.1,0.1 -0.1,0.1 -0.2,0.1c-0.1,0.1 -0.1,0.3 -0.1,0.4c-0.2,0.1 0,0.2 0,0.3c0,0 0,0.1 0,0.2c0,0.1 0,0.3 0.1,0.4c0.1,0.2 0.3,0.4 0.4,0.5c0.2,0.1 0.4,0.6 0.6,0.6c0.2,0 0.4,-0.1 0.5,-0.1c0.2,0 0.4,0 0.6,-0.1c0.2,-0.1 0.1,-0.3 0.3,-0.5c0.1,-0.1 0.3,0 0.4,-0.1c0.2,-0.1 0.3,-0.3 0.4,-0.5c0,-0.1 0,-0.1 0,-0.2c0,-0.1 0.1,-0.2 0.1,-0.3c0,-0.1 -0.1,-0.1 -0.1,-0.2c0,-0.1 0,-0.2 0,-0.3c0,-0.2 0,-0.4 -0.1,-0.5c-0.4,-0.7 -1.2,-0.9 -2,-0.8c-0.2,0 -0.3,0.1 -0.4,0.2c-0.2,0.1 -0.1,0.2 -0.3,0.2c-0.1,0 -0.2,0.1 -0.2,0.2c0,0.3 0,0.3 0,0.3c0,0.1 0,0.1 0,0" fill="#FFFFFF"/>
     <path id="svg_8" d="m38.8,-71.7c0,0.1 0,0.1 0,0.2c-0.1,0.1 -0.1,0.1 -0.2,0.1c-0.1,0.1 -0.1,0.3 -0.1,0.4c-0.2,0.1 0,0.2 0,0.3c0,0 0,0.1 0,0.2c0,0.1 0,0.3 0.1,0.4c0.1,0.2 0.3,0.4 0.4,0.5c0.2,0.1 0.4,0.6 0.6,0.6c0.2,0 0.4,-0.1 0.5,-0.1c0.2,0 0.4,0 0.6,-0.1c0.2,-0.1 0.1,-0.3 0.3,-0.5c0.1,-0.1 0.3,0 0.4,-0.1c0.2,-0.1 0.3,-0.3 0.4,-0.5c0,-0.1 0,-0.1 0,-0.2c0,-0.1 0.1,-0.2 0.1,-0.3c0,-0.1 -0.1,-0.1 -0.1,-0.2c0,-0.1 0,-0.2 0,-0.3c0,-0.2 0,-0.4 -0.1,-0.5c-0.4,-0.7 -1.2,-0.9 -2,-0.8c-0.2,0 -0.3,0.1 -0.4,0.2c-0.2,0.1 -0.1,0.2 -0.3,0.2c-0.1,0 -0.2,0.1 -0.2,0.2c0,0.3 0,0.3 0,0.3c0,0.1 0,0.1 0,0" fill="#FFFFFF"/>
     <path id="svg_9" d="m31.1,-71.7c0,0.1 0,0.1 0,0.2c-0.1,0.1 -0.1,0.1 -0.2,0.1c-0.1,0.1 -0.1,0.3 -0.1,0.4c-0.2,0.1 0,0.2 0,0.3c0,0 0,0.1 0,0.2c0,0.1 0,0.3 0.1,0.4c0.1,0.2 0.3,0.4 0.4,0.5c0.2,0.1 0.4,0.6 0.6,0.6c0.2,0 0.4,-0.1 0.5,-0.1c0.2,0 0.4,0 0.6,-0.1c0.2,-0.1 0.1,-0.3 0.3,-0.5c0.1,-0.1 0.3,0 0.4,-0.1c0.2,-0.1 0.3,-0.3 0.4,-0.5c0,-0.1 0,-0.1 0,-0.2c0,-0.1 0.1,-0.2 0.1,-0.3c0,-0.1 -0.1,-0.1 -0.1,-0.2c0,-0.1 0,-0.2 0,-0.3c0,-0.2 0,-0.4 -0.1,-0.5c-0.4,-0.7 -1.2,-0.9 -2,-0.8c-0.2,0 -0.3,0.1 -0.4,0.2c-0.2,0.1 -0.1,0.2 -0.3,0.2c-0.1,0 -0.2,0.1 -0.2,0.2c0,0.3 0,0.3 0,0.3c0,0.1 0,0.1 0,0" fill="#FFFFFF"/>
     <path id="svg_10" d="m23.4,-71.7c0,0.1 0,0.1 0,0.2c-0.1,0.1 -0.1,0.1 -0.2,0.1c-0.1,0.1 -0.1,0.3 -0.1,0.4c-0.2,0.1 0,0.2 0,0.3c0,0 0,0.1 0,0.2c0,0.1 0,0.3 0.1,0.4c0.1,0.2 0.3,0.4 0.4,0.5c0.2,0.1 0.4,0.6 0.6,0.6c0.2,0 0.4,-0.1 0.5,-0.1c0.2,0 0.4,0 0.6,-0.1c0.2,-0.1 0.1,-0.3 0.3,-0.5c0.1,-0.1 0.3,0 0.4,-0.1c0.2,-0.1 0.3,-0.3 0.4,-0.5c0,-0.1 0,-0.1 0,-0.2c0,-0.1 0.1,-0.2 0.1,-0.3c0,-0.1 -0.1,-0.1 -0.1,-0.2c0,-0.1 0,-0.2 0,-0.3c0,-0.2 0,-0.4 -0.1,-0.5c-0.4,-0.7 -1.2,-0.9 -2,-0.8c-0.2,0 -0.3,0.1 -0.4,0.2c-0.2,0.1 -0.1,0.2 -0.3,0.2c-0.1,0 -0.2,0.1 -0.2,0.2c0,0.3 0,0.3 0,0.3c0,0.1 0,0.1 0,0" fill="#FFFFFF"/>
     <path id="svg_11" d="m15.8,-71.7c0,0.1 0,0.1 0,0.2c-0.1,0.1 -0.1,0.1 -0.2,0.1c-0.1,0.1 -0.1,0.3 -0.1,0.4c-0.2,0.1 0,0.2 0,0.3c0,0 0,0.1 0,0.2c0,0.1 0,0.3 0.1,0.4c0.1,0.2 0.3,0.4 0.4,0.5c0.2,0.1 0.4,0.6 0.6,0.6c0.2,0 0.4,-0.1 0.5,-0.1c0.2,0 0.4,0 0.6,-0.1c0.2,-0.1 0.1,-0.3 0.3,-0.5c0.1,-0.1 0.3,0 0.4,-0.1c0.2,-0.1 0.3,-0.3 0.4,-0.5c0,-0.1 0,-0.1 0,-0.2c0,-0.1 0.1,-0.2 0.1,-0.3c0,-0.1 -0.1,-0.1 -0.1,-0.2c0,-0.1 0,-0.2 0,-0.3c0,-0.2 0,-0.4 -0.1,-0.5c-0.4,-0.7 -1.2,-0.9 -2,-0.8c-0.2,0 -0.3,0.1 -0.4,0.2c-0.2,0.1 -0.1,0.2 -0.3,0.2c-0.1,0 -0.2,0.1 -0.2,0.2c0,0.3 0,0.3 0,0.3c0,0.1 0,0.1 0,0" fill="#FFFFFF"/>
     <path id="svg_12" d="m8.1,-71.7c0,0.1 0,0.1 0,0.2c-0.1,0.1 -0.1,0.1 -0.2,0.2c-0.1,0.1 -0.1,0.3 -0.1,0.4c-0.2,0.1 0,0.2 0,0.3c0,0 0,0.1 0,0.2c0,0.1 0,0.3 0.1,0.4c0.1,0.2 0.3,0.4 0.4,0.5c0.2,0.1 0.4,0.6 0.6,0.6c0.2,0 0.4,-0.1 0.5,-0.1c0.2,0 0.4,0 0.6,-0.1c0.2,-0.1 0.1,-0.3 0.3,-0.5c0.1,-0.1 0.3,0 0.4,-0.1c0.2,-0.1 0.3,-0.3 0.4,-0.5c0,-0.1 0,-0.1 0,-0.2c0,-0.1 0.1,-0.2 0.1,-0.3c0,-0.1 -0.1,-0.1 -0.1,-0.2c0,-0.1 0,-0.2 0,-0.3c0,-0.2 0,-0.4 -0.1,-0.5c-0.4,-0.7 -1.2,-0.9 -2,-0.8c-0.2,0 -0.3,0.1 -0.4,0.2c-0.2,0.1 -0.1,0.2 -0.3,0.2c-0.1,0 -0.2,0.1 -0.2,0.2c0,0.2 0,0.2 0,0.2c0,0.1 0,0.1 0,0" fill="#FFFFFF"/>
     <path id="svg_13" d="m0.4,-71.7c0,0.1 0,0.1 0,0.2c-0.1,0.1 -0.1,0.1 -0.2,0.1c-0.1,0.1 -0.1,0.3 -0.1,0.4c-0.2,0.1 0,0.2 0,0.3c0,0 0,0.1 0,0.2c0,0.1 0,0.3 0.1,0.4c0.1,0.2 0.3,0.4 0.4,0.5c0.2,0.2 0.4,0.6 0.6,0.7c0.2,0 0.4,-0.1 0.5,-0.1c0.2,0 0.4,0 0.6,-0.1c0.2,-0.1 0.1,-0.3 0.3,-0.5c0.1,-0.1 0.3,0 0.4,-0.1c0.2,-0.1 0.3,-0.3 0.4,-0.5c0,-0.1 0,-0.1 0,-0.2c0,-0.1 0.1,-0.2 0.1,-0.3c0,-0.1 -0.1,-0.1 -0.1,-0.2c0,-0.1 0,-0.2 0,-0.3c0,-0.2 0,-0.4 -0.1,-0.5c-0.4,-0.7 -1.2,-0.9 -2,-0.8c-0.2,0 -0.3,0.1 -0.4,0.2c-0.2,0.1 -0.1,0.2 -0.3,0.2c-0.1,0 -0.2,0.1 -0.2,0.2c0,0.2 0,0.2 0,0.2c0,0.1 0,0.1 0,0" fill="#FFFFFF"/>
    </g>
    <g id="svg_14">
     <path id="svg_15" d="m69.4,-71.7c0,0.1 0,0.1 0,0.2c-0.1,0.1 -0.1,0.1 -0.2,0.1c-0.1,0.1 -0.1,0.3 -0.1,0.4c-0.2,0.1 0,0.2 0,0.3c0,0 0,0.1 0,0.2c0,0.1 0,0.3 0.1,0.4c0.1,0.2 0.3,0.4 0.4,0.5c0.2,0.1 0.4,0.6 0.6,0.6c0.2,0 0.4,-0.1 0.5,-0.1c0.2,0 0.4,0 0.6,-0.1c0.2,-0.1 0.1,-0.3 0.3,-0.5c0.1,-0.1 0.3,0 0.4,-0.1c0.2,-0.1 0.3,-0.3 0.4,-0.5c0,-0.1 0,-0.1 0,-0.2c0,-0.1 0.1,-0.2 0.1,-0.3c0,-0.1 -0.1,-0.1 -0.1,-0.2c0,-0.1 0,-0.2 0,-0.3c0,-0.2 0,-0.4 -0.1,-0.5c-0.4,-0.7 -1.2,-0.9 -2,-0.8c-0.2,0 -0.3,0.1 -0.4,0.2c-0.2,0.1 -0.1,0.2 -0.3,0.2c-0.1,0 -0.2,0.1 -0.2,0.2c0,0.3 0,0.3 0,0.3c0,0.1 0,0.1 0,0" fill="#FFFFFF"/>
    </g>
    <path id="svg_16" d="m0.5,-71.7c0,0.1 0,0.1 0,0.2c-0.1,0.1 -0.1,0.1 -0.2,0.1c-0.1,0.1 -0.1,0.3 -0.1,0.4c-0.2,0.1 0,0.2 0,0.3c0,0 0,0.1 0,0.2c0,0.1 0,0.3 0.1,0.4c0.1,0.2 0.3,0.4 0.4,0.5c0.2,0.2 0.3,0.6 0.6,0.7c0.2,0 0.4,-0.1 0.5,-0.1c0.2,0 0.4,0 0.6,-0.1c0.2,-0.1 0.1,-0.3 0.3,-0.5c0.1,-0.1 0.3,0 0.4,-0.1c0.2,-0.1 0.3,-0.3 0.4,-0.5c0,-0.1 0,-0.1 0,-0.2c0,-0.1 0.1,-0.2 0.1,-0.3c0,-0.1 -0.1,-0.1 -0.1,-0.2c0,-0.1 0,-0.2 0,-0.3c0,-0.2 0,-0.4 -0.1,-0.5c-0.4,-0.7 -1.2,-0.9 -2,-0.8c-0.2,0 -0.3,0.1 -0.4,0.2c-0.2,0.1 -0.1,0.2 -0.3,0.2c-0.1,0 -0.2,0.1 -0.2,0.2c0,0.2 0,0.2 0,0.2c0,0.1 0,0.1 0,0" fill="#FFFFFF"/>
    <g id="svg_17">
     <g id="svg_18">
      <path id="svg_19" d="m69.4,-64c0,0.1 0,0.1 0,0.2c-0.1,0.1 -0.1,0.1 -0.2,0.1c-0.1,0.1 -0.1,0.3 -0.1,0.4c-0.2,0.1 0,0.2 0,0.3c0,0 0,0.1 0,0.2c0,0.1 0,0.3 0.1,0.4c0.1,0.2 0.3,0.4 0.4,0.5c0.2,0.1 0.4,0.6 0.6,0.6c0.2,0 0.4,-0.1 0.5,-0.1c0.2,0 0.4,0 0.6,-0.1c0.2,-0.1 0.1,-0.3 0.3,-0.5c0.1,-0.1 0.3,0 0.4,-0.1c0.2,-0.1 0.3,-0.3 0.4,-0.5c0,-0.1 0,-0.1 0,-0.2c0,-0.1 0.1,-0.2 0.1,-0.3c0,-0.1 -0.1,-0.1 -0.1,-0.2c0,-0.1 0,-0.2 0,-0.3c0,-0.2 0,-0.4 -0.1,-0.5c-0.4,-0.7 -1.2,-0.9 -2,-0.8c-0.2,0 -0.3,0.1 -0.4,0.2c-0.2,0.1 -0.1,0.2 -0.3,0.2c-0.1,0 -0.2,0.1 -0.2,0.2c0,0.3 0,0.2 0,0.3c0,0 0,0 0,0" fill="#FFFFFF"/>
      <path id="svg_20" d="m61.8,-64c0,0.1 0,0.1 0,0.2c-0.1,0.1 -0.1,0.1 -0.2,0.1c-0.1,0.1 -0.1,0.3 -0.1,0.4c-0.2,0.1 0,0.2 0,0.3c0,0 0,0.1 0,0.2c0,0.1 0,0.3 0.1,0.4c0.1,0.2 0.3,0.4 0.4,0.5c0.2,0.1 0.4,0.6 0.6,0.6c0.2,0 0.4,-0.1 0.5,-0.1c0.2,0 0.4,0 0.6,-0.1c0.2,-0.1 0.1,-0.3 0.3,-0.5c0.1,-0.1 0.3,0 0.4,-0.1c0.2,-0.1 0.3,-0.3 0.4,-0.5c0,-0.1 0,-0.1 0,-0.2c0,-0.1 0.1,-0.2 0.1,-0.3c0,-0.1 -0.1,-0.1 -0.1,-0.2c0,-0.1 0,-0.2 0,-0.3c0,-0.2 0,-0.4 -0.1,-0.5c-0.4,-0.7 -1.2,-0.9 -2,-0.8c-0.2,0 -0.3,0.1 -0.4,0.2c-0.2,0.1 -0.1,0.2 -0.3,0.2c-0.1,0 -0.2,0.1 -0.2,0.2c0,0.3 0,0.2 0,0.3c0,0 0,0 0,0" fill="#FFFFFF"/>
      <path id="svg_21" d="m54.1,-64c0,0.1 0,0.1 0,0.2c-0.1,0.1 -0.1,0.1 -0.2,0.1c-0.1,0.1 -0.1,0.3 -0.1,0.4c-0.2,0.1 0,0.2 0,0.3c0,0 0,0.1 0,0.2c0,0.1 0,0.3 0.1,0.4c0.1,0.2 0.3,0.4 0.4,0.5c0.2,0.1 0.4,0.6 0.6,0.6c0.2,0 0.4,-0.1 0.5,-0.1c0.2,0 0.4,0 0.6,-0.1c0.2,-0.1 0.1,-0.3 0.3,-0.5c0.1,-0.1 0.3,0 0.4,-0.1c0.2,-0.1 0.3,-0.3 0.4,-0.5c0,-0.1 0,-0.1 0,-0.2c0,-0.1 0.1,-0.2 0.1,-0.3c0,-0.1 -0.1,-0.1 -0.1,-0.2c0,-0.1 0,-0.2 0,-0.3c0,-0.2 0,-0.4 -0.1,-0.5c-0.4,-0.7 -1.2,-0.9 -2,-0.8c-0.2,0 -0.3,0.1 -0.4,0.2c-0.2,0.1 -0.1,0.2 -0.3,0.2c-0.1,0 -0.2,0.1 -0.2,0.2c0,0.3 0,0.2 0,0.3c0,0 0,0 0,0" fill="#FFFFFF"/>
      <path id="svg_22" d="m46.5,-64c0,0.1 0,0.1 0,0.2c-0.1,0.1 -0.1,0.1 -0.2,0.1c-0.1,0.1 -0.1,0.3 -0.1,0.4c-0.2,0.1 0,0.2 0,0.3c0,0 0,0.1 0,0.2c0,0.1 0,0.3 0.1,0.4c0.1,0.2 0.3,0.4 0.4,0.5c0.2,0.1 0.4,0.6 0.6,0.6c0.2,0 0.4,-0.1 0.5,-0.1c0.2,0 0.4,0 0.6,-0.1c0.2,-0.1 0.1,-0.3 0.3,-0.5c0.1,-0.1 0.3,0 0.4,-0.1c0.2,-0.1 0.3,-0.3 0.4,-0.5c0,-0.1 0,-0.1 0,-0.2c0,-0.1 0.1,-0.2 0.1,-0.3c0,-0.1 -0.1,-0.1 -0.1,-0.2c0,-0.1 0,-0.2 0,-0.3c0,-0.2 0,-0.4 -0.1,-0.5c-0.4,-0.7 -1.2,-0.9 -2,-0.8c-0.2,0 -0.3,0.1 -0.4,0.2c-0.2,0.1 -0.1,0.2 -0.3,0.2c-0.1,0 -0.2,0.1 -0.2,0.2c0,0.3 0,0.2 0,0.3c0,0 0,0 0,0" fill="#FFFFFF"/>
      <path id="svg_23" d="m38.8,-64c0,0.1 0,0.1 0,0.2c-0.1,0.1 -0.1,0.1 -0.2,0.1c-0.1,0.1 -0.1,0.3 -0.1,0.4c-0.2,0.1 0,0.2 0,0.3c0,0 0,0.1 0,0.2c0,0.1 0,0.3 0.1,0.4c0.1,0.2 0.3,0.4 0.4,0.5c0.2,0.1 0.4,0.6 0.6,0.6c0.2,0 0.4,-0.1 0.5,-0.1c0.2,0 0.4,0 0.6,-0.1c0.2,-0.1 0.1,-0.3 0.3,-0.5c0.1,-0.1 0.3,0 0.4,-0.1c0.2,-0.1 0.3,-0.3 0.4,-0.5c0,-0.1 0,-0.1 0,-0.2c0,-0.1 0.1,-0.2 0.1,-0.3c0,-0.1 -0.1,-0.1 -0.1,-0.2c0,-0.1 0,-0.2 0,-0.3c0,-0.2 0,-0.4 -0.1,-0.5c-0.4,-0.7 -1.2,-0.9 -2,-0.8c-0.2,0 -0.3,0.1 -0.4,0.2c-0.2,0.1 -0.1,0.2 -0.3,0.2c-0.1,0 -0.2,0.1 -0.2,0.2c0,0.3 0,0.2 0,0.3c0,0 0,0 0,0" fill="#FFFFFF"/>
      <path id="svg_24" d="m31.1,-64c0,0.1 0,0.1 0,0.2c-0.1,0.1 -0.1,0.1 -0.2,0.1c-0.1,0.1 -0.1,0.3 -0.1,0.4c-0.2,0.1 0,0.2 0,0.3c0,0 0,0.1 0,0.2c0,0.1 0,0.3 0.1,0.4c0.1,0.2 0.3,0.4 0.4,0.5c0.2,0.1 0.4,0.6 0.6,0.6c0.2,0 0.4,-0.1 0.5,-0.1c0.2,0 0.4,0 0.6,-0.1c0.2,-0.1 0.1,-0.3 0.3,-0.5c0.1,-0.1 0.3,0 0.4,-0.1c0.2,-0.1 0.3,-0.3 0.4,-0.5c0,-0.1 0,-0.1 0,-0.2c0,-0.1 0.1,-0.2 0.1,-0.3c0,-0.1 -0.1,-0.1 -0.1,-0.2c0,-0.1 0,-0.2 0,-0.3c0,-0.2 0,-0.4 -0.1,-0.5c-0.4,-0.7 -1.2,-0.9 -2,-0.8c-0.2,0 -0.3,0.1 -0.4,0.2c-0.2,0.1 -0.1,0.2 -0.3,0.2c-0.1,0 -0.2,0.1 -0.2,0.2c0,0.3 0,0.2 0,0.3c0,0 0,0 0,0" fill="#FFFFFF"/>
      <path id="svg_25" d="m23.5,-64c0,0.1 0,0.1 0,0.2c-0.1,0.1 -0.1,0.1 -0.2,0.1c-0.1,0.1 -0.1,0.3 -0.1,0.4c-0.2,0.1 0,0.2 0,0.3c0,0 0,0.1 0,0.2c0,0.1 0,0.3 0.1,0.4c0.1,0.2 0.3,0.4 0.4,0.5c0.2,0.1 0.4,0.6 0.6,0.6c0.2,0 0.4,-0.1 0.5,-0.1c0.2,0 0.4,0 0.6,-0.1c0.2,-0.1 0.1,-0.3 0.3,-0.5c0.1,-0.1 0.3,0 0.4,-0.1c0.2,-0.1 0.3,-0.3 0.4,-0.5c0,-0.1 0,-0.1 0,-0.2c0,-0.1 0.1,-0.2 0.1,-0.3c0,-0.1 -0.1,-0.1 -0.1,-0.2c0,-0.1 0,-0.2 0,-0.3c0,-0.2 0,-0.4 -0.1,-0.5c-0.4,-0.7 -1.2,-0.9 -2,-0.8c-0.2,0 -0.3,0.1 -0.4,0.2c-0.2,0.1 -0.1,0.2 -0.3,0.2c-0.1,0 -0.2,0.1 -0.2,0.2c0,0.3 0,0.2 0,0.3c0,0 0,0 0,0" fill="#FFFFFF"/>
      <path id="svg_26" d="m15.8,-64c0,0.1 0,0.1 0,0.2c-0.1,0.1 -0.1,0.1 -0.2,0.1c-0.1,0.1 -0.1,0.3 -0.1,0.4c-0.2,0.1 0,0.2 0,0.3c0,0 0,0.1 0,0.2c0,0.1 0,0.3 0.1,0.4c0.1,0.2 0.3,0.4 0.4,0.5c0.2,0.1 0.4,0.6 0.6,0.6c0.2,0 0.4,-0.1 0.5,-0.1c0.2,0 0.4,0 0.6,-0.1c0.2,-0.1 0.1,-0.3 0.3,-0.5c0.1,-0.1 0.3,0 0.4,-0.1c0.2,-0.1 0.3,-0.3 0.4,-0.5c0,-0.1 0,-0.1 0,-0.2c0,-0.1 0.1,-0.2 0.1,-0.3c0,-0.1 -0.1,-0.1 -0.1,-0.2c0,-0.1 0,-0.2 0,-0.3c0,-0.2 0,-0.4 -0.1,-0.5c-0.4,-0.7 -1.2,-0.9 -2,-0.8c-0.2,0 -0.3,0.1 -0.4,0.2c-0.2,0.1 -0.1,0.2 -0.3,0.2c-0.1,0 -0.2,0.1 -0.2,0.2c0,0.3 0,0.2 0,0.3c0,0 0,0 0,0" fill="#FFFFFF"/>
      <path id="svg_27" d="m8.2,-64c0,0.1 0,0.1 0,0.2c-0.1,0.1 -0.2,0.1 -0.2,0.1c-0.1,0.1 -0.1,0.3 -0.1,0.4c-0.2,0.1 0,0.2 0,0.3c0,0 0,0.1 0,0.2c0,0.1 0,0.3 0.1,0.4c0,0.2 0.2,0.4 0.3,0.5c0.2,0.1 0.4,0.6 0.6,0.6c0.2,0 0.4,-0.1 0.5,-0.1c0.2,0 0.4,0 0.6,-0.1c0.2,-0.1 0.1,-0.3 0.3,-0.5c0.1,-0.1 0.3,0 0.4,-0.1c0.2,-0.1 0.3,-0.3 0.4,-0.5c0,-0.1 0,-0.1 0,-0.2c0,-0.1 0.1,-0.2 0.1,-0.3c0,-0.1 -0.1,-0.1 -0.1,-0.2c0,-0.1 0,-0.2 0,-0.3c0,-0.2 0,-0.4 -0.1,-0.5c-0.4,-0.7 -1.2,-0.9 -2,-0.8c-0.2,0 -0.3,0.1 -0.4,0.2c-0.2,0.1 -0.1,0.2 -0.3,0.2c-0.1,0 -0.2,0.1 -0.2,0.2c0.1,0.3 0.1,0.2 0.1,0.3c-0.1,0 -0.1,0 0,0" fill="#FFFFFF"/>
      <path id="svg_28" d="m0.5,-64c0,0.1 0,0.1 0,0.2c-0.1,0.1 -0.1,0.1 -0.2,0.1c-0.1,0.1 -0.1,0.3 -0.1,0.4c-0.2,0.1 0,0.2 0,0.3c0,0 0,0.1 0,0.2c0,0.1 0,0.3 0.1,0.4c0.1,0.2 0.3,0.4 0.4,0.5c0.2,0.1 0.4,0.6 0.6,0.6c0.2,0 0.4,-0.1 0.5,-0.1c0.2,0 0.4,0 0.6,-0.1c0.2,-0.1 0.1,-0.3 0.3,-0.5c0.1,0 0.3,0.1 0.4,0c0.2,-0.1 0.3,-0.3 0.4,-0.5c0,-0.1 0,-0.1 0,-0.2c0,-0.1 0.1,-0.2 0.1,-0.3c0,-0.1 -0.1,-0.1 -0.1,-0.2c0,-0.1 0,-0.2 0,-0.3c0,-0.2 0,-0.4 -0.1,-0.5c-0.4,-0.7 -1.2,-0.9 -2,-0.8c-0.2,0 -0.3,0.1 -0.4,0.2c-0.2,0.1 -0.1,0.2 -0.3,0.2c-0.1,0 -0.2,0.1 -0.2,0.2c0,0.2 0,0.1 0,0.2c0,0 0,0 0,0" fill="#FFFFFF"/>
     </g>
     <g id="svg_29">
      <path id="svg_30" d="m69.4,-56.3c0,0.1 0,0.1 0,0.2c-0.1,0.1 -0.1,0.1 -0.2,0.1c-0.1,0.1 -0.1,0.3 -0.1,0.4c-0.2,0.1 0,0.2 0,0.3c0,0 0,0.1 0,0.2c0,0.1 0,0.3 0.1,0.4c0.1,0.2 0.3,0.4 0.4,0.5c0.2,0.1 0.4,0.6 0.6,0.6c0.2,0 0.4,-0.1 0.5,-0.1c0.2,0 0.4,0 0.6,-0.1c0.2,-0.1 0.1,-0.3 0.3,-0.5c0.1,-0.1 0.3,0 0.4,-0.1c0.2,-0.1 0.3,-0.3 0.4,-0.5c0,-0.1 0,-0.1 0,-0.2c0,-0.1 0.1,-0.2 0.1,-0.3c0,-0.1 -0.1,-0.1 -0.1,-0.2c0,-0.1 0,-0.2 0,-0.3c0,-0.2 0,-0.4 -0.1,-0.5c-0.4,-0.7 -1.2,-0.9 -2,-0.8c-0.2,0 -0.3,0.1 -0.4,0.2c-0.2,0.1 -0.1,0.2 -0.3,0.2c-0.1,0 -0.2,0.1 -0.2,0.2c0,0.2 0,0.2 0,0.3c0,0 0,0 0,0" fill="#FFFFFF"/>
      <path id="svg_31" d="m61.8,-56.3c0,0.1 0,0.1 0,0.2c-0.1,0.1 -0.1,0.1 -0.2,0.1c-0.1,0.1 -0.1,0.3 -0.1,0.4c-0.2,0.1 0,0.2 0,0.3c0,0 0,0.1 0,0.2c0,0.1 0,0.3 0.1,0.4c0.1,0.2 0.3,0.4 0.4,0.5c0.2,0.1 0.4,0.6 0.6,0.6c0.2,0 0.4,-0.1 0.5,-0.1c0.2,0 0.4,0 0.6,-0.1c0.2,-0.1 0.1,-0.3 0.3,-0.5c0.1,-0.1 0.3,0 0.4,-0.1c0.2,-0.1 0.3,-0.3 0.4,-0.5c0,-0.1 0,-0.1 0,-0.2c0,-0.1 0.1,-0.2 0.1,-0.3c0,-0.1 -0.1,-0.1 -0.1,-0.2c0,-0.1 0,-0.2 0,-0.3c0,-0.2 0,-0.4 -0.1,-0.5c-0.4,-0.7 -1.2,-0.9 -2,-0.8c-0.2,0 -0.3,0.1 -0.4,0.2c-0.2,0.1 -0.1,0.2 -0.3,0.2c-0.1,0 -0.2,0.1 -0.2,0.2c0,0.2 0,0.2 0,0.3c0,0 0,0 0,0" fill="#FFFFFF"/>
      <path id="svg_32" d="m54.1,-56.3c0,0.1 0,0.1 0,0.2c-0.1,0 -0.1,0 -0.2,0.1c-0.1,0.1 -0.1,0.3 -0.1,0.4c-0.2,0.1 0,0.2 0,0.3c0,0 0,0.1 0,0.2c0,0.1 0,0.3 0.1,0.4c0.1,0.2 0.3,0.4 0.4,0.5c0.2,0.1 0.4,0.6 0.6,0.6c0.2,0 0.4,-0.1 0.5,-0.1c0.2,0 0.4,0 0.6,-0.1c0.2,-0.1 0.1,-0.3 0.3,-0.5c0.1,-0.1 0.3,0 0.4,-0.1c0.2,-0.1 0.3,-0.3 0.4,-0.5c0,-0.1 0,-0.1 0,-0.2c0,-0.1 0.1,-0.2 0.1,-0.3c0,-0.1 -0.1,-0.1 -0.1,-0.2c0,-0.1 0,-0.2 0,-0.3c0,-0.2 0,-0.4 -0.1,-0.5c-0.4,-0.7 -1.2,-0.9 -2,-0.8c-0.2,0 -0.3,0.1 -0.4,0.2c-0.2,0.1 -0.1,0.2 -0.3,0.2c-0.1,0 -0.2,0.1 -0.2,0.2c0,0.2 0,0.2 0,0.3c0,0 0,0 0,0" fill="#FFFFFF"/>
      <path id="svg_33" d="m46.5,-56.3c0,0.1 0,0.1 0,0.2c-0.1,0.1 -0.1,0.1 -0.2,0.1c-0.1,0.1 -0.1,0.3 -0.1,0.4c-0.2,0.1 0,0.2 0,0.3c0,0 0,0.1 0,0.2c0,0.1 0,0.3 0.1,0.4c0.1,0.2 0.3,0.4 0.4,0.5c0.2,0.1 0.4,0.6 0.6,0.6c0.2,0 0.4,-0.1 0.5,-0.1c0.2,0 0.4,0 0.6,-0.1c0.2,-0.1 0.1,-0.3 0.3,-0.5c0.1,-0.1 0.3,0 0.4,-0.1c0.2,-0.1 0.3,-0.3 0.4,-0.5c0,-0.1 0,-0.1 0,-0.2c0,-0.1 0.1,-0.2 0.1,-0.3c0,-0.1 -0.1,-0.1 -0.1,-0.2c0,-0.1 0,-0.2 0,-0.3c0,-0.2 0,-0.4 -0.1,-0.5c-0.4,-0.7 -1.2,-0.9 -2,-0.8c-0.2,0 -0.3,0.1 -0.4,0.2c-0.2,0.1 -0.1,0.2 -0.3,0.2c-0.1,0 -0.2,0.1 -0.2,0.2c0,0.2 0,0.2 0,0.3c0,0 0,0 0,0" fill="#FFFFFF"/>
      <path id="svg_34" d="m38.8,-56.3c0,0.1 0,0.1 0,0.2c-0.1,0.1 -0.1,0.1 -0.2,0.1c-0.1,0.1 -0.1,0.3 -0.1,0.4c-0.2,0.1 0,0.2 0,0.3c0,0 0,0.1 0,0.2c0,0.1 0,0.3 0.1,0.4c0.1,0.2 0.3,0.4 0.4,0.5c0.2,0.1 0.4,0.6 0.6,0.6c0.2,0 0.4,-0.1 0.5,-0.1c0.2,0 0.4,0 0.6,-0.1c0.2,-0.1 0.1,-0.3 0.3,-0.5c0.1,-0.1 0.3,0 0.4,-0.1c0.2,-0.1 0.3,-0.3 0.4,-0.5c0,-0.1 0,-0.1 0,-0.2c0,-0.1 0.1,-0.2 0.1,-0.3c0,-0.1 -0.1,-0.1 -0.1,-0.2c0,-0.1 0,-0.2 0,-0.3c0,-0.2 0,-0.4 -0.1,-0.5c-0.4,-0.7 -1.2,-0.9 -2,-0.8c-0.2,0 -0.3,0.1 -0.4,0.2c-0.2,0.1 -0.1,0.2 -0.3,0.2c-0.1,0 -0.2,0.1 -0.2,0.2c0,0.2 0,0.2 0,0.3c0,0 0,0 0,0" fill="#FFFFFF"/>
      <path id="svg_35" d="m31.1,-56.3c0,0.1 0,0.1 0,0.2c-0.1,0.1 -0.1,0.1 -0.2,0.1c-0.1,0.1 -0.1,0.3 -0.1,0.4c-0.2,0.1 0,0.2 0,0.3c0,0 0,0.1 0,0.2c0,0.1 0,0.3 0.1,0.4c0.1,0.2 0.3,0.4 0.4,0.5c0.2,0.1 0.4,0.6 0.6,0.6c0.2,0 0.4,-0.1 0.5,-0.1c0.2,0 0.4,0 0.6,-0.1c0.2,-0.1 0.1,-0.3 0.3,-0.5c0.1,-0.1 0.3,0 0.4,-0.1c0.2,-0.1 0.3,-0.3 0.4,-0.5c0,-0.1 0,-0.1 0,-0.2c0,-0.1 0.1,-0.2 0.1,-0.3c0,-0.1 -0.1,-0.1 -0.1,-0.2c0,-0.1 0,-0.2 0,-0.3c0,-0.2 0,-0.4 -0.1,-0.5c-0.4,-0.7 -1.2,-0.9 -2,-0.8c-0.2,0 -0.3,0.1 -0.4,0.2c-0.2,0.1 -0.1,0.2 -0.3,0.2c-0.1,0 -0.2,0.1 -0.2,0.2c0,0.2 0,0.2 0,0.3c0,0 0,0 0,0" fill="#FFFFFF"/>
      <path id="svg_36" d="m23.5,-56.3c0,0.1 0,0.1 0,0.2c-0.1,0.1 -0.1,0.1 -0.2,0.1c-0.1,0.1 -0.1,0.3 -0.1,0.4c-0.2,0.1 0,0.2 0,0.3c0,0 0,0.1 0,0.2c0,0.1 0,0.3 0.1,0.4c0.1,0.2 0.3,0.4 0.4,0.5c0.2,0.1 0.4,0.6 0.6,0.6c0.2,0 0.4,-0.1 0.5,-0.1c0.2,0 0.4,0 0.6,-0.1c0.2,-0.1 0.1,-0.3 0.3,-0.5c0.1,-0.1 0.3,0 0.4,-0.1c0.2,-0.1 0.3,-0.3 0.4,-0.5c0,-0.1 0,-0.1 0,-0.2c0,-0.1 0.1,-0.2 0.1,-0.3c0,-0.1 -0.1,-0.1 -0.1,-0.2c0,-0.1 0,-0.2 0,-0.3c0,-0.2 0,-0.4 -0.1,-0.5c-0.4,-0.7 -1.2,-0.9 -2,-0.8c-0.2,0 -0.3,0.1 -0.4,0.2c-0.2,0.1 -0.1,0.2 -0.3,0.2c-0.1,0 -0.2,0.1 -0.2,0.2c0,0.2 0,0.2 0,0.3c0,0 0,0 0,0" fill="#FFFFFF"/>
      <path id="svg_37" d="m15.8,-56.3c0,0.1 0,0.1 0,0.2c-0.1,0.1 -0.1,0.1 -0.2,0.1c-0.1,0.1 -0.1,0.3 -0.1,0.4c-0.2,0.1 0,0.2 0,0.3c0,0 0,0.1 0,0.2c0,0.1 0,0.3 0.1,0.4c0.1,0.2 0.3,0.4 0.4,0.5c0.2,0.1 0.4,0.6 0.6,0.6c0.2,0 0.4,-0.1 0.5,-0.1c0.2,0 0.4,0 0.6,-0.1c0.2,-0.1 0.1,-0.3 0.3,-0.5c0.1,-0.1 0.3,0 0.4,-0.1c0.2,-0.1 0.3,-0.3 0.4,-0.5c0,-0.1 0,-0.1 0,-0.2c0,-0.1 0.1,-0.2 0.1,-0.3c0,-0.1 -0.1,-0.1 -0.1,-0.2c0,-0.1 0,-0.2 0,-0.3c0,-0.2 0,-0.4 -0.1,-0.5c-0.4,-0.7 -1.2,-0.9 -2,-0.8c-0.2,0 -0.3,0.1 -0.4,0.2c-0.2,0.1 -0.1,0.2 -0.3,0.2c-0.1,0 -0.2,0.1 -0.2,0.2c0,0.2 0,0.2 0,0.3c0,0 0,0 0,0" fill="#FFFFFF"/>
      <path id="svg_38" d="m8.2,-56.3c0,0.1 0,0.1 0,0.2c-0.1,0 -0.2,0 -0.2,0.1c-0.1,0.1 -0.1,0.3 -0.1,0.4c-0.2,0.1 0,0.2 0,0.3c0,0 0,0.1 0,0.2c0,0.1 0,0.3 0.1,0.4c0.1,0.2 0.3,0.4 0.4,0.5c0.2,0.1 0.4,0.6 0.6,0.6c0.2,0 0.4,-0.1 0.5,-0.1c0.2,0 0.4,0 0.6,-0.1c0.2,-0.1 0.1,-0.3 0.3,-0.5c0.1,-0.1 0.3,0 0.4,-0.1c0.2,-0.1 0.3,-0.3 0.4,-0.5c0,-0.1 0,-0.1 0,-0.2c0,-0.1 0.1,-0.2 0.1,-0.3c0,-0.1 -0.1,-0.1 -0.1,-0.2c0,-0.1 0,-0.2 0,-0.3c0,-0.2 0,-0.4 -0.1,-0.5c-0.4,-0.7 -1.2,-0.9 -2,-0.8c-0.2,0 -0.3,0.1 -0.4,0.2c-0.2,0.1 -0.1,0.2 -0.3,0.2c-0.1,0 -0.2,0.1 -0.2,0.2c0,0.2 0,0.2 0,0.3c-0.1,0 -0.1,0 0,0" fill="#FFFFFF"/>
      <path id="svg_39" d="m0.5,-56.3c0,0.1 0,0.1 0,0.2c-0.1,0.1 -0.1,0.1 -0.2,0.1c-0.1,0.1 -0.1,0.3 -0.1,0.4c-0.2,0.1 0,0.2 0,0.3c0,0 0,0.1 0,0.2c0,0.1 0,0.3 0.1,0.4c0.1,0.2 0.3,0.4 0.4,0.5c0.2,0.1 0.4,0.6 0.6,0.6c0.2,0 0.4,-0.1 0.5,-0.1c0.2,0 0.4,0 0.6,-0.1c0.2,-0.1 0.1,-0.3 0.3,-0.5c0.1,-0.1 0.3,0 0.4,-0.1c0.2,-0.1 0.3,-0.3 0.4,-0.5c0,-0.1 0,-0.1 0,-0.2c0,-0.1 0.1,-0.2 0.1,-0.3c0,-0.1 -0.1,-0.1 -0.1,-0.2c0,-0.1 0,-0.2 0,-0.3c0,-0.2 0,-0.4 -0.1,-0.5c-0.4,-0.7 -1.2,-0.9 -2,-0.8c-0.2,0 -0.3,0.1 -0.4,0.2c-0.2,0.1 -0.1,0.2 -0.3,0.2c-0.1,0 -0.2,0.1 -0.2,0.2c0,0.2 0,0.2 0,0.3c0,0 0,0 0,0" fill="#FFFFFF"/>
     </g>
     <g id="svg_40">
      <path id="svg_41" d="m69.4,-48.7c0,0.1 0,0.1 0,0.2c-0.1,0.1 -0.1,0.1 -0.2,0.1c-0.1,0.1 -0.1,0.3 -0.1,0.4c-0.2,0.1 0,0.2 0,0.3c0,0 0,0.1 0,0.2c0,0.1 0,0.3 0.1,0.4c0.1,0.2 0.3,0.4 0.4,0.5c0.2,0.1 0.4,0.6 0.6,0.6c0.2,0 0.4,-0.1 0.5,-0.1c0.2,0 0.4,0 0.6,-0.1c0.2,-0.1 0.1,-0.3 0.3,-0.5c0.1,-0.1 0.3,0 0.4,-0.1c0.2,-0.1 0.3,-0.3 0.4,-0.5c0,-0.1 0,-0.1 0,-0.2c0,-0.1 0.1,-0.2 0.1,-0.3c0,-0.1 -0.1,-0.1 -0.1,-0.2c0,-0.1 0,-0.2 0,-0.3c0,-0.2 0,-0.4 -0.1,-0.5c-0.4,-0.7 -1.2,-0.9 -2,-0.8c-0.2,0 -0.3,0.1 -0.4,0.2c-0.2,0.1 -0.1,0.2 -0.3,0.2c-0.1,0 -0.2,0.1 -0.2,0.2c0,0.3 0,0.2 0,0.3c0,0 0,0 0,0" fill="#FFFFFF"/>
      <path id="svg_42" d="m61.8,-48.7c0,0.1 0,0.1 0,0.2c-0.1,0.1 -0.1,0.1 -0.2,0.1c-0.1,0.1 -0.1,0.3 -0.1,0.4c-0.2,0.1 0,0.2 0,0.3c0,0 0,0.1 0,0.2c0,0.1 0,0.3 0.1,0.4c0.1,0.2 0.3,0.4 0.4,0.5c0.2,0.1 0.4,0.6 0.6,0.6c0.2,0 0.4,-0.1 0.5,-0.1c0.2,0 0.4,0 0.6,-0.1c0.2,-0.1 0.1,-0.3 0.3,-0.5c0.1,-0.1 0.3,0 0.4,-0.1c0.2,-0.1 0.3,-0.3 0.4,-0.5c0,-0.1 0,-0.1 0,-0.2c0,-0.1 0.1,-0.2 0.1,-0.3c0,-0.1 -0.1,-0.1 -0.1,-0.2c0,-0.1 0,-0.2 0,-0.3c0,-0.2 0,-0.4 -0.1,-0.5c-0.4,-0.7 -1.2,-0.9 -2,-0.8c-0.2,0 -0.3,0.1 -0.4,0.2c-0.2,0.1 -0.1,0.2 -0.3,0.2c-0.1,0 -0.2,0.1 -0.2,0.2c0,0.3 0,0.2 0,0.3c0,0 0,0 0,0" fill="#FFFFFF"/>
      <path id="svg_43" d="m54.1,-48.7c0,0.1 0,0.1 0,0.2c-0.1,0.1 -0.1,0.1 -0.2,0.1c-0.1,0.1 -0.1,0.3 -0.1,0.4c-0.2,0.1 0,0.2 0,0.3c0,0 0,0.1 0,0.2c0,0.1 0,0.3 0.1,0.4c0.1,0.2 0.3,0.4 0.4,0.5c0.2,0.1 0.4,0.6 0.6,0.6c0.2,0 0.4,-0.1 0.5,-0.1c0.2,0 0.4,0 0.6,-0.1c0.2,-0.1 0.1,-0.3 0.3,-0.5c0.1,-0.1 0.3,0 0.4,-0.1c0.2,-0.1 0.3,-0.3 0.4,-0.5c0,-0.1 0,-0.1 0,-0.2c0,-0.1 0.1,-0.2 0.1,-0.3c0,-0.1 -0.1,-0.1 -0.1,-0.2c0,-0.1 0,-0.2 0,-0.3c0,-0.2 0,-0.4 -0.1,-0.5c-0.4,-0.7 -1.2,-0.9 -2,-0.8c-0.2,0 -0.3,0.1 -0.4,0.2c-0.2,0.1 -0.1,0.2 -0.3,0.2c-0.1,0 -0.2,0.1 -0.2,0.2c0,0.3 0,0.2 0,0.3c0,0 0,0 0,0" fill="#FFFFFF"/>
      <path id="svg_44" d="m46.5,-48.7c0,0.1 0,0.1 0,0.2c-0.1,0.1 -0.1,0.1 -0.2,0.1c-0.1,0.1 -0.1,0.3 -0.1,0.4c-0.2,0.1 0,0.2 0,0.3c0,0 0,0.1 0,0.2c0,0.1 0,0.3 0.1,0.4c0.1,0.2 0.3,0.4 0.4,0.5c0.2,0.1 0.4,0.6 0.6,0.6c0.2,0 0.4,-0.1 0.5,-0.1c0.2,0 0.4,0 0.6,-0.1c0.2,-0.1 0.1,-0.3 0.3,-0.5c0.1,-0.1 0.3,0 0.4,-0.1c0.2,-0.1 0.3,-0.3 0.4,-0.5c0,-0.1 0,-0.1 0,-0.2c0,-0.1 0.1,-0.2 0.1,-0.3c0,-0.1 -0.1,-0.1 -0.1,-0.2c0,-0.1 0,-0.2 0,-0.3c0,-0.2 0,-0.4 -0.1,-0.5c-0.4,-0.7 -1.2,-0.9 -2,-0.8c-0.2,0 -0.3,0.1 -0.4,0.2c-0.2,0.1 -0.1,0.2 -0.3,0.2c-0.1,0 -0.2,0.1 -0.2,0.2c0,0.3 0,0.2 0,0.3c0,0 0,0 0,0" fill="#FFFFFF"/>
      <path id="svg_45" d="m38.8,-48.7c0,0.1 0,0.1 0,0.2c-0.1,0.1 -0.1,0.1 -0.2,0.1c-0.1,0.1 -0.1,0.3 -0.1,0.4c-0.2,0.1 0,0.2 0,0.3c0,0 0,0.1 0,0.2c0,0.1 0,0.3 0.1,0.4c0.1,0.2 0.3,0.4 0.4,0.5c0.2,0.1 0.4,0.6 0.6,0.6c0.2,0 0.4,-0.1 0.5,-0.1c0.2,0 0.4,0 0.6,-0.1c0.2,-0.1 0.1,-0.3 0.3,-0.5c0.1,-0.1 0.3,0 0.4,-0.1c0.2,-0.1 0.3,-0.3 0.4,-0.5c0,-0.1 0,-0.1 0,-0.2c0,-0.1 0.1,-0.2 0.1,-0.3c0,-0.1 -0.1,-0.1 -0.1,-0.2c0,-0.1 0,-0.2 0,-0.3c0,-0.2 0,-0.4 -0.1,-0.5c-0.4,-0.7 -1.2,-0.9 -2,-0.8c-0.2,0 -0.3,0.1 -0.4,0.2c-0.2,0.1 -0.1,0.2 -0.3,0.2c-0.1,0 -0.2,0.1 -0.2,0.2c0,0.3 0,0.2 0,0.3c0,0 0,0 0,0" fill="#FFFFFF"/>
      <path id="svg_46" d="m31.1,-48.7c0,0.1 0,0.1 0,0.2c-0.1,0.1 -0.1,0.1 -0.2,0.1c-0.1,0.1 -0.1,0.3 -0.1,0.4c-0.2,0.1 0,0.2 0,0.3c0,0 0,0.1 0,0.2c0,0.1 0,0.3 0.1,0.4c0.1,0.2 0.3,0.4 0.4,0.5c0.2,0.1 0.4,0.6 0.6,0.6c0.2,0 0.4,-0.1 0.5,-0.1c0.2,0 0.4,0 0.6,-0.1c0.2,-0.1 0.1,-0.3 0.3,-0.5c0.1,-0.1 0.3,0 0.4,-0.1c0.2,-0.1 0.3,-0.3 0.4,-0.5c0,-0.1 0,-0.1 0,-0.2c0,-0.1 0.1,-0.2 0.1,-0.3c0,-0.1 -0.1,-0.1 -0.1,-0.2c0,-0.1 0,-0.2 0,-0.3c0,-0.2 0,-0.4 -0.1,-0.5c-0.4,-0.7 -1.2,-0.9 -2,-0.8c-0.2,0 -0.3,0.1 -0.4,0.2c-0.2,0.1 -0.1,0.2 -0.3,0.2c-0.1,0 -0.2,0.1 -0.2,0.2c0,0.3 0,0.2 0,0.3c0,0 0,0 0,0" fill="#FFFFFF"/>
      <path id="svg_47" d="m23.5,-48.7c0,0.1 0,0.1 0,0.2c-0.1,0.1 -0.1,0.1 -0.2,0.1c-0.1,0.1 -0.1,0.3 -0.1,0.4c-0.2,0.1 0,0.2 0,0.3c0,0 0,0.1 0,0.2c0,0.1 0,0.3 0.1,0.4c0.1,0.2 0.3,0.4 0.4,0.5c0.2,0.1 0.4,0.6 0.6,0.6c0.2,0 0.4,-0.1 0.5,-0.1c0.2,0 0.4,0 0.6,-0.1c0.2,-0.1 0.1,-0.3 0.3,-0.5c0.1,-0.1 0.3,0 0.4,-0.1c0.2,-0.1 0.3,-0.3 0.4,-0.5c0,-0.1 0,-0.1 0,-0.2c0,-0.1 0.1,-0.2 0.1,-0.3c0,-0.1 -0.1,-0.1 -0.1,-0.2c0,-0.1 0,-0.2 0,-0.3c0,-0.2 0,-0.4 -0.1,-0.5c-0.4,-0.7 -1.2,-0.9 -2,-0.8c-0.2,0 -0.3,0.1 -0.4,0.2c-0.2,0.1 -0.1,0.2 -0.3,0.2c-0.1,0 -0.2,0.1 -0.2,0.2c0,0.3 0,0.2 0,0.3c0,0 0,0 0,0" fill="#FFFFFF"/>
      <path id="svg_48" d="m15.8,-48.7c0,0.1 0,0.1 0,0.2c-0.1,0.1 -0.1,0.1 -0.2,0.1c-0.1,0.1 -0.1,0.3 -0.1,0.4c-0.2,0.1 0,0.2 0,0.3c0,0 0,0.1 0,0.2c0,0.1 0,0.3 0.1,0.4c0.1,0.2 0.3,0.4 0.4,0.5c0.2,0.1 0.4,0.6 0.6,0.6c0.2,0 0.4,-0.1 0.5,-0.1c0.2,0 0.4,0 0.6,-0.1c0.2,-0.1 0.1,-0.3 0.3,-0.5c0.1,-0.1 0.3,0 0.4,-0.1c0.2,-0.1 0.3,-0.3 0.4,-0.5c0,-0.1 0,-0.1 0,-0.2c0,-0.1 0.1,-0.2 0.1,-0.3c0,-0.1 -0.1,-0.1 -0.1,-0.2c0,-0.1 0,-0.2 0,-0.3c0,-0.2 0,-0.4 -0.1,-0.5c-0.4,-0.7 -1.2,-0.9 -2,-0.8c-0.2,0 -0.3,0.1 -0.4,0.2c-0.2,0.1 -0.1,0.2 -0.3,0.2c-0.1,0 -0.2,0.1 -0.2,0.2c0,0.3 0,0.2 0,0.3c0,0 0,0 0,0" fill="#FFFFFF"/>
      <path id="svg_49" d="m8.2,-48.7c0,0.1 0,0.1 0,0.2c-0.1,0.1 -0.2,0.1 -0.2,0.1c-0.1,0.1 -0.1,0.3 -0.1,0.4c-0.2,0.1 0,0.2 0,0.3c0,0 0,0.1 0,0.2c0,0.1 0,0.3 0.1,0.4c0.1,0.2 0.3,0.4 0.4,0.5c0.1,0.2 0.3,0.6 0.5,0.6c0.2,0 0.4,-0.1 0.5,-0.1c0.2,0 0.4,0 0.6,-0.1c0.2,-0.1 0.1,-0.3 0.3,-0.5c0.1,-0.1 0.3,0 0.4,-0.1c0.2,-0.1 0.3,-0.3 0.4,-0.5c0,-0.1 0,-0.1 0,-0.2c0,-0.1 0.1,-0.2 0.1,-0.3c0,-0.1 -0.1,-0.1 -0.1,-0.2c0,-0.1 0,-0.2 0,-0.3c0,-0.2 0,-0.4 -0.1,-0.5c-0.4,-0.7 -1.2,-0.9 -2,-0.8c-0.2,0 -0.3,0.1 -0.4,0.2c-0.2,0.1 -0.1,0.2 -0.3,0.2c-0.1,0 -0.2,0.1 -0.2,0.2c0.1,0.3 0.1,0.2 0.1,0.3c-0.1,0 -0.1,0 0,0" fill="#FFFFFF"/>
      <path id="svg_50" d="m0.5,-48.7c0,0.1 0,0.1 0,0.2c-0.1,0.1 -0.1,0.1 -0.2,0.1c-0.1,0.1 -0.1,0.3 -0.1,0.4c-0.2,0.1 0,0.2 0,0.3c0,0 0,0.1 0,0.2c0,0.1 0,0.3 0.1,0.4c0.1,0.2 0.3,0.4 0.4,0.5c0.2,0.2 0.3,0.6 0.6,0.6c0.2,0 0.4,-0.1 0.5,-0.1c0.2,0 0.4,0 0.6,-0.1c0.2,-0.1 0.1,-0.3 0.3,-0.5c0.1,-0.1 0.3,0 0.4,-0.1c0.2,-0.1 0.3,-0.3 0.4,-0.5c0,-0.1 0,-0.1 0,-0.2c0,-0.1 0.1,-0.2 0.1,-0.3c0,-0.1 -0.1,-0.1 -0.1,-0.2c0,-0.1 0,-0.2 0,-0.3c0,-0.2 0,-0.4 -0.1,-0.5c-0.4,-0.7 -1.2,-0.9 -2,-0.8c-0.2,0 -0.3,0.1 -0.4,0.2c-0.2,0.1 -0.1,0.2 -0.3,0.2c-0.1,0 -0.2,0.1 -0.2,0.2c0,0.3 0,0.2 0,0.3c0,0 0,0 0,0" fill="#FFFFFF"/>
     </g>
     <g id="svg_51">
      <path id="svg_52" d="m69.4,-41c0,0.1 0,0.1 0,0.2c-0.1,0.1 -0.1,0.1 -0.2,0.1c-0.1,0.1 -0.1,0.3 -0.1,0.4c-0.2,0.1 0,0.2 0,0.3c0,0 0,0.1 0,0.2c0,0.1 0,0.3 0.1,0.4c0.1,0.2 0.3,0.4 0.4,0.5c0.2,0.1 0.4,0.6 0.6,0.6c0.2,0 0.4,-0.1 0.5,-0.1c0.2,0 0.4,0 0.6,-0.1c0.2,-0.1 0.1,-0.3 0.3,-0.5c0.1,-0.1 0.3,0 0.4,-0.1c0.2,-0.1 0.3,-0.3 0.4,-0.5c0,-0.1 0,-0.1 0,-0.2c0,-0.1 0.1,-0.2 0.1,-0.3c0,-0.1 -0.1,-0.1 -0.1,-0.2c0,-0.1 0,-0.2 0,-0.3c0,-0.2 0,-0.4 -0.1,-0.5c-0.4,-0.7 -1.2,-0.9 -2,-0.8c-0.2,0 -0.3,0.1 -0.4,0.2c-0.2,0.1 -0.1,0.2 -0.3,0.2c-0.1,0 -0.2,0.1 -0.2,0.2c0,0.2 0,0.2 0,0.3c0,0 0,0 0,0" fill="#FFFFFF"/>
      <path id="svg_53" d="m61.8,-41c0,0.1 0,0.1 0,0.2c-0.1,0.1 -0.1,0.1 -0.2,0.1c-0.1,0.1 -0.1,0.3 -0.1,0.4c-0.2,0.1 0,0.2 0,0.3c0,0 0,0.1 0,0.2c0,0.1 0,0.3 0.1,0.4c0.1,0.2 0.3,0.4 0.4,0.5c0.2,0.1 0.4,0.6 0.6,0.6c0.2,0 0.4,-0.1 0.5,-0.1c0.2,0 0.4,0 0.6,-0.1c0.2,-0.1 0.1,-0.3 0.3,-0.5c0.1,-0.1 0.3,0 0.4,-0.1c0.2,-0.1 0.3,-0.3 0.4,-0.5c0,-0.1 0,-0.1 0,-0.2c0,-0.1 0.1,-0.2 0.1,-0.3c0,-0.1 -0.1,-0.1 -0.1,-0.2c0,-0.1 0,-0.2 0,-0.3c0,-0.2 0,-0.4 -0.1,-0.5c-0.4,-0.7 -1.2,-0.9 -2,-0.8c-0.2,0 -0.3,0.1 -0.4,0.2c-0.2,0.1 -0.1,0.2 -0.3,0.2c-0.1,0 -0.2,0.1 -0.2,0.2c0,0.2 0,0.2 0,0.3c0,0 0,0 0,0" fill="#FFFFFF"/>
      <path id="svg_54" d="m54.1,-41c0,0.1 0,0.1 0,0.2c-0.1,0.1 -0.1,0.1 -0.2,0.1c-0.1,0.1 -0.1,0.3 -0.1,0.4c-0.2,0.1 0,0.2 0,0.3c0,0 0,0.1 0,0.2c0,0.1 0,0.3 0.1,0.4c0.1,0.2 0.3,0.4 0.4,0.5c0.2,0.1 0.4,0.6 0.6,0.6c0.2,0 0.4,-0.1 0.5,-0.1c0.2,0 0.4,0 0.6,-0.1c0.2,-0.1 0.1,-0.3 0.3,-0.5c0.1,-0.1 0.3,0 0.4,-0.1c0.2,-0.1 0.3,-0.3 0.4,-0.5c0,-0.1 0,-0.1 0,-0.2c0,-0.1 0.1,-0.2 0.1,-0.3c0,-0.1 -0.1,-0.1 -0.1,-0.2c0,-0.1 0,-0.2 0,-0.3c0,-0.2 0,-0.4 -0.1,-0.5c-0.4,-0.7 -1.2,-0.9 -2,-0.8c-0.2,0 -0.3,0.1 -0.4,0.2c-0.2,0.1 -0.1,0.2 -0.3,0.2c-0.1,0 -0.2,0.1 -0.2,0.2c0,0.2 0,0.2 0,0.3c0,0 0,0 0,0" fill="#FFFFFF"/>
      <path id="svg_55" d="m46.5,-41c0,0.1 0,0.1 0,0.2c-0.1,0.1 -0.1,0.1 -0.2,0.1c-0.1,0.1 -0.1,0.3 -0.1,0.4c-0.2,0.1 0,0.2 0,0.3c0,0 0,0.1 0,0.2c0,0.1 0,0.3 0.1,0.4c0.1,0.2 0.3,0.4 0.4,0.5c0.2,0.1 0.4,0.6 0.6,0.6c0.2,0 0.4,-0.1 0.5,-0.1c0.2,0 0.4,0 0.6,-0.1c0.2,-0.1 0.1,-0.3 0.3,-0.5c0.1,-0.1 0.3,0 0.4,-0.1c0.2,-0.1 0.3,-0.3 0.4,-0.5c0,-0.1 0,-0.1 0,-0.2c0,-0.1 0.1,-0.2 0.1,-0.3c0,-0.1 -0.1,-0.1 -0.1,-0.2c0,-0.1 0,-0.2 0,-0.3c0,-0.2 0,-0.4 -0.1,-0.5c-0.4,-0.7 -1.2,-0.9 -2,-0.8c-0.2,0 -0.3,0.1 -0.4,0.2c-0.2,0.1 -0.1,0.2 -0.3,0.2c-0.1,0 -0.2,0.1 -0.2,0.2c0,0.2 0,0.2 0,0.3c0,0 0,0 0,0" fill="#FFFFFF"/>
      <path id="svg_56" d="m38.8,-41c0,0.1 0,0.1 0,0.2c-0.1,0.1 -0.1,0.1 -0.2,0.1c-0.1,0.1 -0.1,0.3 -0.1,0.4c-0.2,0.1 0,0.2 0,0.3c0,0 0,0.1 0,0.2c0,0.1 0,0.3 0.1,0.4c0.1,0.2 0.3,0.4 0.4,0.5c0.2,0.1 0.4,0.6 0.6,0.6c0.2,0 0.4,-0.1 0.5,-0.1c0.2,0 0.4,0 0.6,-0.1c0.2,-0.1 0.1,-0.3 0.3,-0.5c0.1,-0.1 0.3,0 0.4,-0.1c0.2,-0.1 0.3,-0.3 0.4,-0.5c0,-0.1 0,-0.1 0,-0.2c0,-0.1 0.1,-0.2 0.1,-0.3c0,-0.1 -0.1,-0.1 -0.1,-0.2c0,-0.1 0,-0.2 0,-0.3c0,-0.2 0,-0.4 -0.1,-0.5c-0.4,-0.7 -1.2,-0.9 -2,-0.8c-0.2,0 -0.3,0.1 -0.4,0.2c-0.2,0.1 -0.1,0.2 -0.3,0.2c-0.1,0 -0.2,0.1 -0.2,0.2c0,0.2 0,0.2 0,0.3c0,0 0,0 0,0" fill="#FFFFFF"/>
      <path id="svg_57" d="m31.1,-41c0,0.1 0,0.1 0,0.2c-0.1,0.1 -0.1,0.1 -0.2,0.1c-0.1,0.1 -0.1,0.3 -0.1,0.4c-0.2,0.1 0,0.2 0,0.3c0,0 0,0.1 0,0.2c0,0.1 0,0.3 0.1,0.4c0.1,0.2 0.3,0.4 0.4,0.5c0.2,0.1 0.4,0.6 0.6,0.6c0.2,0 0.4,-0.1 0.5,-0.1c0.2,0 0.4,0 0.6,-0.1c0.2,-0.1 0.1,-0.3 0.3,-0.5c0.1,-0.1 0.3,0 0.4,-0.1c0.2,-0.1 0.3,-0.3 0.4,-0.5c0,-0.1 0,-0.1 0,-0.2c0,-0.1 0.1,-0.2 0.1,-0.3c0,-0.1 -0.1,-0.1 -0.1,-0.2c0,-0.1 0,-0.2 0,-0.3c0,-0.2 0,-0.4 -0.1,-0.5c-0.4,-0.7 -1.2,-0.9 -2,-0.8c-0.2,0 -0.3,0.1 -0.4,0.2c-0.2,0.1 -0.1,0.2 -0.3,0.2c-0.1,0 -0.2,0.1 -0.2,0.2c0,0.2 0,0.2 0,0.3c0,0 0,0 0,0" fill="#FFFFFF"/>
      <path id="svg_58" d="m23.5,-41c0,0.1 0,0.1 0,0.2c-0.1,0.1 -0.1,0.1 -0.2,0.1c-0.1,0.1 -0.1,0.3 -0.1,0.4c-0.2,0.1 0,0.2 0,0.3c0,0 0,0.1 0,0.2c0,0.1 0,0.3 0.1,0.4c0.1,0.2 0.3,0.4 0.4,0.5c0.2,0.1 0.4,0.6 0.6,0.6c0.2,0 0.4,-0.1 0.5,-0.1c0.2,0 0.4,0 0.6,-0.1c0.2,-0.1 0.1,-0.3 0.3,-0.5c0.1,-0.1 0.3,0 0.4,-0.1c0.2,-0.1 0.3,-0.3 0.4,-0.5c0,-0.1 0,-0.1 0,-0.2c0,-0.1 0.1,-0.2 0.1,-0.3c0,-0.1 -0.1,-0.1 -0.1,-0.2c0,-0.1 0,-0.2 0,-0.3c0,-0.2 0,-0.4 -0.1,-0.5c-0.4,-0.7 -1.2,-0.9 -2,-0.8c-0.2,0 -0.3,0.1 -0.4,0.2c-0.2,0.1 -0.1,0.2 -0.3,0.2c-0.1,0 -0.2,0.1 -0.2,0.2c0,0.2 0,0.2 0,0.3c0,0 0,0 0,0" fill="#FFFFFF"/>
      <path id="svg_59" d="m15.8,-41c0,0.1 0,0.1 0,0.2c-0.1,0.1 -0.1,0.1 -0.2,0.1c-0.1,0.1 -0.1,0.3 -0.1,0.4c-0.2,0.1 0,0.2 0,0.3c0,0 0,0.1 0,0.2c0,0.1 0,0.3 0.1,0.4c0.1,0.2 0.3,0.4 0.4,0.5c0.2,0.1 0.4,0.6 0.6,0.6c0.2,0 0.4,-0.1 0.5,-0.1c0.2,0 0.4,0 0.6,-0.1c0.2,-0.1 0.1,-0.3 0.3,-0.5c0.1,-0.1 0.3,0 0.4,-0.1c0.2,-0.1 0.3,-0.3 0.4,-0.5c0,-0.1 0,-0.1 0,-0.2c0,-0.1 0.1,-0.2 0.1,-0.3c0,-0.1 -0.1,-0.1 -0.1,-0.2c0,-0.1 0,-0.2 0,-0.3c0,-0.2 0,-0.4 -0.1,-0.5c-0.4,-0.7 -1.2,-0.9 -2,-0.8c-0.2,0 -0.3,0.1 -0.4,0.2c-0.2,0.1 -0.1,0.2 -0.3,0.2c-0.1,0 -0.2,0.1 -0.2,0.2c0,0.2 0,0.2 0,0.3c0,0 0,0 0,0" fill="#FFFFFF"/>
      <path id="svg_60" d="m8.2,-41c0,0.1 0,0.1 0,0.2c-0.1,0 -0.2,0 -0.2,0.1c-0.1,0.1 -0.1,0.3 -0.1,0.4c-0.2,0.1 0,0.2 0,0.3c0,0 0,0.1 0,0.2c0,0.1 0,0.3 0.1,0.4c0.1,0.2 0.3,0.4 0.4,0.5c0.2,0.1 0.4,0.6 0.6,0.6c0.2,0 0.4,-0.1 0.5,-0.1c0.2,0 0.4,0 0.6,-0.1c0.2,-0.1 0.1,-0.3 0.3,-0.5c0.1,-0.1 0.3,0 0.4,-0.1c0.2,-0.1 0.3,-0.3 0.4,-0.5c0,-0.1 0,-0.1 0,-0.2c0,-0.1 0.1,-0.2 0.1,-0.3c0,-0.1 -0.1,-0.1 -0.1,-0.2c0,-0.1 0,-0.2 0,-0.3c0,-0.2 0,-0.4 -0.1,-0.5c-0.4,-0.7 -1.2,-0.9 -2,-0.8c-0.2,0 -0.3,0.1 -0.4,0.2c-0.2,0.1 -0.1,0.2 -0.3,0.2c-0.1,0 -0.2,0.1 -0.2,0.2c0,0.2 0,0.2 0,0.3c-0.1,0 -0.1,0 0,0" fill="#FFFFFF"/>
      <path id="svg_61" d="m0.5,-41c0,0.1 0,0.1 0,0.2c-0.1,0.1 -0.1,0.1 -0.2,0.1c-0.1,0.1 -0.1,0.3 -0.1,0.4c-0.2,0.1 0,0.2 0,0.3c0,0 0,0.1 0,0.2c0,0.1 0,0.3 0.1,0.4c0.1,0.2 0.3,0.4 0.4,0.5c0.2,0.1 0.4,0.6 0.6,0.6c0.2,0 0.4,-0.1 0.5,-0.1c0.2,0 0.4,0 0.6,-0.1c0.2,-0.1 0.1,-0.3 0.3,-0.5c0.1,0 0.3,0 0.4,0c0.2,-0.1 0.3,-0.3 0.4,-0.5c0,-0.1 0,-0.1 0,-0.2c0,-0.1 0.1,-0.2 0.1,-0.3c0,-0.1 -0.1,-0.1 -0.1,-0.2c0,-0.1 0,-0.2 0,-0.3c0,-0.2 0,-0.4 -0.1,-0.5c-0.4,-0.7 -1.2,-0.9 -2,-0.8c-0.2,0 -0.3,0.1 -0.4,0.2c-0.2,0.1 -0.1,0.2 -0.3,0.2c-0.1,0 -0.2,0.1 -0.2,0.2c0,0.1 0,0.1 0,0.2c0,0 0,0 0,0" fill="#FFFFFF"/>
     </g>
     <g id="svg_62">
      <path id="svg_63" d="m69.4,-33.4c0,0.1 0,0.1 0,0.2c-0.1,0.1 -0.1,0.1 -0.2,0.1c-0.1,0.1 -0.1,0.3 -0.1,0.4c-0.2,0.1 0,0.2 0,0.3c0,0 0,0.1 0,0.2c0,0.1 0,0.3 0.1,0.4c0.1,0.2 0.3,0.4 0.4,0.5c0.2,0.1 0.4,0.6 0.6,0.6c0.2,0 0.4,-0.1 0.5,-0.1c0.2,0 0.4,0 0.6,-0.1c0.2,-0.1 0.1,-0.3 0.3,-0.5c0.1,-0.1 0.3,0 0.4,-0.1c0.2,-0.1 0.3,-0.3 0.4,-0.5c0,-0.1 0,-0.1 0,-0.2c0,-0.1 0.1,-0.2 0.1,-0.3c0,-0.1 -0.1,-0.1 -0.1,-0.2c0,-0.1 0,-0.2 0,-0.3c0,-0.2 0,-0.4 -0.1,-0.5c-0.4,-0.7 -1.2,-0.9 -2,-0.8c-0.2,0 -0.3,0.1 -0.4,0.2c-0.2,0.1 -0.1,0.2 -0.3,0.2c-0.1,0 -0.2,0.1 -0.2,0.2c0,0.3 0,0.2 0,0.3c0,0 0,0 0,0" fill="#FFFFFF"/>
      <path id="svg_64" d="m61.8,-33.4c0,0.1 0,0.1 0,0.2c-0.1,0.1 -0.1,0.1 -0.2,0.1c-0.1,0.1 -0.1,0.3 -0.1,0.4c-0.2,0.1 0,0.2 0,0.3c0,0 0,0.1 0,0.2c0,0.1 0,0.3 0.1,0.4c0.1,0.2 0.3,0.4 0.4,0.5c0.2,0.1 0.4,0.6 0.6,0.6c0.2,0 0.4,-0.1 0.5,-0.1c0.2,0 0.4,0 0.6,-0.1c0.2,-0.1 0.1,-0.3 0.3,-0.5c0.1,-0.1 0.3,0 0.4,-0.1c0.2,-0.1 0.3,-0.3 0.4,-0.5c0,-0.1 0,-0.1 0,-0.2c0,-0.1 0.1,-0.2 0.1,-0.3c0,-0.1 -0.1,-0.1 -0.1,-0.2c0,-0.1 0,-0.2 0,-0.3c0,-0.2 0,-0.4 -0.1,-0.5c-0.4,-0.7 -1.2,-0.9 -2,-0.8c-0.2,0 -0.3,0.1 -0.4,0.2c-0.2,0.1 -0.1,0.2 -0.3,0.2c-0.1,0 -0.2,0.1 -0.2,0.2c0,0.3 0,0.2 0,0.3c0,0 0,0 0,0" fill="#FFFFFF"/>
      <path id="svg_65" d="m54.1,-33.4c0,0.1 0,0.1 0,0.2c-0.1,0.1 -0.1,0.1 -0.2,0.1c-0.1,0.1 -0.1,0.3 -0.1,0.4c-0.2,0.1 0,0.2 0,0.3c0,0 0,0.1 0,0.2c0,0.1 0,0.3 0.1,0.4c0.1,0.2 0.3,0.4 0.4,0.5c0.2,0.1 0.4,0.6 0.6,0.6c0.2,0 0.4,-0.1 0.5,-0.1c0.2,0 0.4,0 0.6,-0.1c0.2,-0.1 0.1,-0.3 0.3,-0.5c0.1,-0.1 0.3,0 0.4,-0.1c0.2,-0.1 0.3,-0.3 0.4,-0.5c0,-0.1 0,-0.1 0,-0.2c0,-0.1 0.1,-0.2 0.1,-0.3c0,-0.1 -0.1,-0.1 -0.1,-0.2c0,-0.1 0,-0.2 0,-0.3c0,-0.2 0,-0.4 -0.1,-0.5c-0.4,-0.7 -1.2,-0.9 -2,-0.8c-0.2,0 -0.3,0.1 -0.4,0.2c-0.2,0.1 -0.1,0.2 -0.3,0.2c-0.1,0 -0.2,0.1 -0.2,0.2c0,0.3 0,0.2 0,0.3c0,0 0,0 0,0" fill="#FFFFFF"/>
      <path id="svg_66" d="m46.5,-33.4c0,0.1 0,0.1 0,0.2c-0.1,0.1 -0.1,0.1 -0.2,0.1c-0.1,0.1 -0.1,0.3 -0.1,0.4c-0.2,0.1 0,0.2 0,0.3c0,0 0,0.1 0,0.2c0,0.1 0,0.3 0.1,0.4c0.1,0.2 0.3,0.4 0.4,0.5c0.2,0.1 0.4,0.6 0.6,0.6c0.2,0 0.4,-0.1 0.5,-0.1c0.2,0 0.4,0 0.6,-0.1c0.2,-0.1 0.1,-0.3 0.3,-0.5c0.1,-0.1 0.3,0 0.4,-0.1c0.2,-0.1 0.3,-0.3 0.4,-0.5c0,-0.1 0,-0.1 0,-0.2c0,-0.1 0.1,-0.2 0.1,-0.3c0,-0.1 -0.1,-0.1 -0.1,-0.2c0,-0.1 0,-0.2 0,-0.3c0,-0.2 0,-0.4 -0.1,-0.5c-0.4,-0.7 -1.2,-0.9 -2,-0.8c-0.2,0 -0.3,0.1 -0.4,0.2c-0.2,0.1 -0.1,0.2 -0.3,0.2c-0.1,0 -0.2,0.1 -0.2,0.2c0,0.3 0,0.2 0,0.3c0,0 0,0 0,0" fill="#FFFFFF"/>
      <path id="svg_67" d="m38.8,-33.4c0,0.1 0,0.1 0,0.2c-0.1,0.1 -0.1,0.1 -0.2,0.1c-0.1,0.1 -0.1,0.3 -0.1,0.4c-0.2,0.1 0,0.2 0,0.3c0,0 0,0.1 0,0.2c0,0.1 0,0.3 0.1,0.4c0.1,0.2 0.3,0.4 0.4,0.5c0.2,0.1 0.4,0.6 0.6,0.6c0.2,0 0.4,-0.1 0.5,-0.1c0.2,0 0.4,0 0.6,-0.1c0.2,-0.1 0.1,-0.3 0.3,-0.5c0.1,-0.1 0.3,0 0.4,-0.1c0.2,-0.1 0.3,-0.3 0.4,-0.5c0,-0.1 0,-0.1 0,-0.2c0,-0.1 0.1,-0.2 0.1,-0.3c0,-0.1 -0.1,-0.1 -0.1,-0.2c0,-0.1 0,-0.2 0,-0.3c0,-0.2 0,-0.4 -0.1,-0.5c-0.4,-0.7 -1.2,-0.9 -2,-0.8c-0.2,0 -0.3,0.1 -0.4,0.2c-0.2,0.1 -0.1,0.2 -0.3,0.2c-0.1,0 -0.2,0.1 -0.2,0.2c0,0.3 0,0.2 0,0.3c0,0 0,0 0,0" fill="#FFFFFF"/>
      <path id="svg_68" d="m31.1,-33.4c0,0.1 0,0.1 0,0.2c-0.1,0.1 -0.1,0.1 -0.2,0.1c-0.1,0.1 -0.1,0.3 -0.1,0.4c-0.2,0.1 0,0.2 0,0.3c0,0 0,0.1 0,0.2c0,0.1 0,0.3 0.1,0.4c0.1,0.2 0.3,0.4 0.4,0.5c0.2,0.1 0.4,0.6 0.6,0.6c0.2,0 0.4,-0.1 0.5,-0.1c0.2,0 0.4,0 0.6,-0.1c0.2,-0.1 0.1,-0.3 0.3,-0.5c0.1,-0.1 0.3,0 0.4,-0.1c0.2,-0.1 0.3,-0.3 0.4,-0.5c0,-0.1 0,-0.1 0,-0.2c0,-0.1 0.1,-0.2 0.1,-0.3c0,-0.1 -0.1,-0.1 -0.1,-0.2c0,-0.1 0,-0.2 0,-0.3c0,-0.2 0,-0.4 -0.1,-0.5c-0.4,-0.7 -1.2,-0.9 -2,-0.8c-0.2,0 -0.3,0.1 -0.4,0.2c-0.2,0.1 -0.1,0.2 -0.3,0.2c-0.1,0 -0.2,0.1 -0.2,0.2c0,0.3 0,0.2 0,0.3c0,0 0,0 0,0" fill="#FFFFFF"/>
      <path id="svg_69" d="m23.5,-33.4c0,0.1 0,0.1 0,0.2c-0.1,0.1 -0.1,0.1 -0.2,0.1c-0.1,0.1 -0.1,0.3 -0.1,0.4c-0.2,0.1 0,0.2 0,0.3c0,0 0,0.1 0,0.2c0,0.1 0,0.3 0.1,0.4c0.1,0.2 0.3,0.4 0.4,0.5c0.2,0.1 0.4,0.6 0.6,0.6c0.2,0 0.4,-0.1 0.5,-0.1c0.2,0 0.4,0 0.6,-0.1c0.2,-0.1 0.1,-0.3 0.3,-0.5c0.1,-0.1 0.3,0 0.4,-0.1c0.2,-0.1 0.3,-0.3 0.4,-0.5c0,-0.1 0,-0.1 0,-0.2c0,-0.1 0.1,-0.2 0.1,-0.3c0,-0.1 -0.1,-0.1 -0.1,-0.2c0,-0.1 0,-0.2 0,-0.3c0,-0.2 0,-0.4 -0.1,-0.5c-0.4,-0.7 -1.2,-0.9 -2,-0.8c-0.2,0 -0.3,0.1 -0.4,0.2c-0.2,0.1 -0.1,0.2 -0.3,0.2c-0.1,0 -0.2,0.1 -0.2,0.2c0,0.3 0,0.2 0,0.3c0,0 0,0 0,0" fill="#FFFFFF"/>
      <path id="svg_70" d="m15.8,-33.4c0,0.1 0,0.1 0,0.2c-0.1,0.1 -0.1,0.1 -0.2,0.1c-0.1,0.1 -0.1,0.3 -0.1,0.4c-0.2,0.1 0,0.2 0,0.3c0,0 0,0.1 0,0.2c0,0.1 0,0.3 0.1,0.4c0.1,0.2 0.3,0.4 0.4,0.5c0.2,0.1 0.4,0.6 0.6,0.6c0.2,0 0.4,-0.1 0.5,-0.1c0.2,0 0.4,0 0.6,-0.1c0.2,-0.1 0.1,-0.3 0.3,-0.5c0.1,-0.1 0.3,0 0.4,-0.1c0.2,-0.1 0.3,-0.3 0.4,-0.5c0,-0.1 0,-0.1 0,-0.2c0,-0.1 0.1,-0.2 0.1,-0.3c0,-0.1 -0.1,-0.1 -0.1,-0.2c0,-0.1 0,-0.2 0,-0.3c0,-0.2 0,-0.4 -0.1,-0.5c-0.4,-0.7 -1.2,-0.9 -2,-0.8c-0.2,0 -0.3,0.1 -0.4,0.2c-0.2,0.1 -0.1,0.2 -0.3,0.2c-0.1,0 -0.2,0.1 -0.2,0.2c0,0.3 0,0.2 0,0.3c0,0 0,0 0,0" fill="#FFFFFF"/>
      <path id="svg_71" d="m8.2,-33.4c0,0.1 0,0.1 0,0.2c-0.1,0.1 -0.2,0.1 -0.2,0.1c-0.1,0.1 -0.1,0.3 -0.1,0.4c-0.2,0.1 0,0.2 0,0.3c0,0 0,0.1 0,0.2c0,0.1 0,0.3 0.1,0.4c0.1,0.2 0.3,0.4 0.4,0.5c0.2,0.1 0.4,0.6 0.6,0.6c0.2,0 0.4,-0.1 0.5,-0.1c0.2,0 0.4,0 0.6,-0.1c0.2,-0.1 0.1,-0.3 0.3,-0.5c0.1,-0.1 0.3,0 0.4,-0.1c0.2,-0.1 0.3,-0.3 0.4,-0.5c0,-0.1 0,-0.1 0,-0.2c0,-0.1 0.1,-0.2 0.1,-0.3c0,-0.1 -0.1,-0.1 -0.1,-0.2c0,-0.1 0,-0.2 0,-0.3c0,-0.2 0,-0.4 -0.1,-0.5c-0.4,-0.7 -1.2,-0.9 -2,-0.8c-0.2,0 -0.3,0.1 -0.4,0.2c-0.2,0.1 -0.1,0.2 -0.3,0.2c-0.1,0 -0.2,0.1 -0.2,0.2c0,0.3 0,0.2 0,0.3c-0.1,0 -0.1,0 0,0" fill="#FFFFFF"/>
      <path id="svg_72" d="m0.5,-33.4c0,0.1 0,0.1 0,0.2c-0.1,0.1 -0.1,0.1 -0.2,0.1c-0.1,0.1 -0.1,0.3 -0.1,0.4c-0.2,0.1 0,0.2 0,0.3c0,0 0,0.1 0,0.2c0,0.1 0,0.3 0.1,0.4c0.1,0.2 0.3,0.4 0.4,0.5c0.2,0.1 0.4,0.6 0.6,0.6c0.2,0 0.4,-0.1 0.5,-0.1c0.2,0 0.4,0 0.6,-0.1c0.2,-0.1 0.1,-0.3 0.3,-0.5c0.1,-0.1 0.3,0 0.4,-0.1c0.2,-0.1 0.3,-0.3 0.4,-0.5c0,-0.1 0,-0.1 0,-0.2c0,-0.1 0.1,-0.2 0.1,-0.3c0,-0.1 -0.1,-0.1 -0.1,-0.2c0,-0.1 0,-0.2 0,-0.3c0,-0.2 0,-0.4 -0.1,-0.5c-0.4,-0.7 -1.2,-0.9 -2,-0.8c-0.2,0 -0.3,0.1 -0.4,0.2c-0.2,0.1 -0.1,0.2 -0.3,0.2c-0.1,0 -0.2,0.1 -0.2,0.2c0,0.3 0,0.2 0,0.3c0,0 0,0 0,0" fill="#FFFFFF"/>
     </g>
     <g id="svg_73">
      <path id="svg_74" d="m69.4,-25.7c0,0.1 0,0.1 0,0.2c-0.1,0.1 -0.1,0.1 -0.2,0.1c-0.1,0.1 -0.1,0.3 -0.1,0.4c-0.2,0.1 0,0.2 0,0.3c0,0 0,0.1 0,0.2c0,0.1 0,0.3 0.1,0.4c0.1,0.2 0.3,0.4 0.4,0.5c0.2,0.1 0.4,0.6 0.6,0.6c0.2,0 0.4,-0.1 0.5,-0.1c0.2,0 0.4,0 0.6,-0.1c0.2,-0.1 0.1,-0.3 0.3,-0.5c0.1,-0.1 0.3,0 0.4,-0.1c0.2,-0.1 0.3,-0.3 0.4,-0.5c0,-0.1 0,-0.1 0,-0.2c0,-0.1 0.1,-0.2 0.1,-0.3c0,-0.1 -0.1,-0.1 -0.1,-0.2c0,-0.1 0,-0.2 0,-0.3c0,-0.2 0,-0.4 -0.1,-0.5c-0.4,-0.7 -1.2,-0.9 -2,-0.8c-0.2,0 -0.3,0.1 -0.4,0.2c-0.2,0.1 -0.1,0.2 -0.3,0.2c-0.1,0 -0.2,0.1 -0.2,0.2c0,0.2 0,0.2 0,0.3c0,0 0,0 0,0" fill="#FFFFFF"/>
      <path id="svg_75" d="m61.8,-25.7c0,0.1 0,0.1 0,0.2c-0.1,0.1 -0.1,0.1 -0.2,0.1c-0.1,0.1 -0.1,0.3 -0.1,0.4c-0.2,0.1 0,0.2 0,0.3c0,0 0,0.1 0,0.2c0,0.1 0,0.3 0.1,0.4c0.1,0.2 0.3,0.4 0.4,0.5c0.2,0.1 0.4,0.6 0.6,0.6c0.2,0 0.4,-0.1 0.5,-0.1c0.2,0 0.4,0 0.6,-0.1c0.2,-0.1 0.1,-0.3 0.3,-0.5c0.1,-0.1 0.3,0 0.4,-0.1c0.2,-0.1 0.3,-0.3 0.4,-0.5c0,-0.1 0,-0.1 0,-0.2c0,-0.1 0.1,-0.2 0.1,-0.3c0,-0.1 -0.1,-0.1 -0.1,-0.2c0,-0.1 0,-0.2 0,-0.3c0,-0.2 0,-0.4 -0.1,-0.5c-0.4,-0.7 -1.2,-0.9 -2,-0.8c-0.2,0 -0.3,0.1 -0.4,0.2c-0.2,0.1 -0.1,0.2 -0.3,0.2c-0.1,0 -0.2,0.1 -0.2,0.2c0,0.2 0,0.2 0,0.3c0,0 0,0 0,0" fill="#FFFFFF"/>
      <path id="svg_76" d="m54.1,-25.7c0,0.1 0,0.1 0,0.2c-0.1,0.1 -0.1,0.1 -0.2,0.1c-0.1,0.1 -0.1,0.3 -0.1,0.4c-0.2,0.1 0,0.2 0,0.3c0,0 0,0.1 0,0.2c0,0.1 0,0.3 0.1,0.4c0.1,0.2 0.3,0.4 0.4,0.5c0.2,0.1 0.4,0.6 0.6,0.6c0.2,0 0.4,-0.1 0.5,-0.1c0.2,0 0.4,0 0.6,-0.1c0.2,-0.1 0.1,-0.3 0.3,-0.5c0.1,-0.1 0.3,0 0.4,-0.1c0.2,-0.1 0.3,-0.3 0.4,-0.5c0,-0.1 0,-0.1 0,-0.2c0,-0.1 0.1,-0.2 0.1,-0.3c0,-0.1 -0.1,-0.1 -0.1,-0.2c0,-0.1 0,-0.2 0,-0.3c0,-0.2 0,-0.4 -0.1,-0.5c-0.4,-0.7 -1.2,-0.9 -2,-0.8c-0.2,0 -0.3,0.1 -0.4,0.2c-0.2,0.1 -0.1,0.2 -0.3,0.2c-0.1,0 -0.2,0.1 -0.2,0.2c0,0.2 0,0.2 0,0.3c0,0 0,0 0,0" fill="#FFFFFF"/>
      <path id="svg_77" d="m46.5,-25.7c0,0.1 0,0.1 0,0.2c-0.1,0.1 -0.1,0.1 -0.2,0.1c-0.1,0.1 -0.1,0.3 -0.1,0.4c-0.2,0.1 0,0.2 0,0.3c0,0 0,0.1 0,0.2c0,0.1 0,0.3 0.1,0.4c0.1,0.2 0.3,0.4 0.4,0.5c0.2,0.1 0.4,0.6 0.6,0.6c0.2,0 0.4,-0.1 0.5,-0.1c0.2,0 0.4,0 0.6,-0.1c0.2,-0.1 0.1,-0.3 0.3,-0.5c0.1,-0.1 0.3,0 0.4,-0.1c0.2,-0.1 0.3,-0.3 0.4,-0.5c0,-0.1 0,-0.1 0,-0.2c0,-0.1 0.1,-0.2 0.1,-0.3c0,-0.1 -0.1,-0.1 -0.1,-0.2c0,-0.1 0,-0.2 0,-0.3c0,-0.2 0,-0.4 -0.1,-0.5c-0.4,-0.7 -1.2,-0.9 -2,-0.8c-0.2,0 -0.3,0.1 -0.4,0.2c-0.2,0.1 -0.1,0.2 -0.3,0.2c-0.1,0 -0.2,0.1 -0.2,0.2c0,0.2 0,0.2 0,0.3c0,0 0,0 0,0" fill="#FFFFFF"/>
      <path id="svg_78" d="m38.8,-25.7c0,0.1 0,0.1 0,0.2c-0.1,0.1 -0.1,0.1 -0.2,0.1c-0.1,0.1 -0.1,0.3 -0.1,0.4c-0.2,0.1 0,0.2 0,0.3c0,0 0,0.1 0,0.2c0,0.1 0,0.3 0.1,0.4c0.1,0.2 0.3,0.4 0.4,0.5c0.2,0.1 0.4,0.6 0.6,0.6c0.2,0 0.4,-0.1 0.5,-0.1c0.2,0 0.4,0 0.6,-0.1c0.2,-0.1 0.1,-0.3 0.3,-0.5c0.1,-0.1 0.3,0 0.4,-0.1c0.2,-0.1 0.3,-0.3 0.4,-0.5c0,-0.1 0,-0.1 0,-0.2c0,-0.1 0.1,-0.2 0.1,-0.3c0,-0.1 -0.1,-0.1 -0.1,-0.2c0,-0.1 0,-0.2 0,-0.3c0,-0.2 0,-0.4 -0.1,-0.5c-0.4,-0.7 -1.2,-0.9 -2,-0.8c-0.2,0 -0.3,0.1 -0.4,0.2c-0.2,0.1 -0.1,0.2 -0.3,0.2c-0.1,0 -0.2,0.1 -0.2,0.2c0,0.2 0,0.2 0,0.3c0,0 0,0 0,0" fill="#FFFFFF"/>
      <path id="svg_79" d="m31.1,-25.7c0,0.1 0,0.1 0,0.2c-0.1,0.1 -0.1,0.1 -0.2,0.1c-0.1,0.1 -0.1,0.3 -0.1,0.4c-0.2,0.1 0,0.2 0,0.3c0,0 0,0.1 0,0.2c0,0.1 0,0.3 0.1,0.4c0.1,0.2 0.3,0.4 0.4,0.5c0.2,0.1 0.4,0.6 0.6,0.6c0.2,0 0.4,-0.1 0.5,-0.1c0.2,0 0.4,0 0.6,-0.1c0.2,-0.1 0.1,-0.3 0.3,-0.5c0.1,-0.1 0.3,0 0.4,-0.1c0.2,-0.1 0.3,-0.3 0.4,-0.5c0,-0.1 0,-0.1 0,-0.2c0,-0.1 0.1,-0.2 0.1,-0.3c0,-0.1 -0.1,-0.1 -0.1,-0.2c0,-0.1 0,-0.2 0,-0.3c0,-0.2 0,-0.4 -0.1,-0.5c-0.4,-0.7 -1.2,-0.9 -2,-0.8c-0.2,0 -0.3,0.1 -0.4,0.2c-0.2,0.1 -0.1,0.2 -0.3,0.2c-0.1,0 -0.2,0.1 -0.2,0.2c0,0.2 0,0.2 0,0.3c0,0 0,0 0,0" fill="#FFFFFF"/>
      <path id="svg_80" d="m23.5,-25.7c0,0.1 0,0.1 0,0.2c-0.1,0.1 -0.1,0.1 -0.2,0.1c-0.1,0.1 -0.1,0.3 -0.1,0.4c-0.2,0.1 0,0.2 0,0.3c0,0 0,0.1 0,0.2c0,0.1 0,0.3 0.1,0.4c0.1,0.2 0.3,0.4 0.4,0.5c0.2,0.1 0.4,0.6 0.6,0.6c0.2,0 0.4,-0.1 0.5,-0.1c0.2,0 0.4,0 0.6,-0.1c0.2,-0.1 0.1,-0.3 0.3,-0.5c0.1,-0.1 0.3,0 0.4,-0.1c0.2,-0.1 0.3,-0.3 0.4,-0.5c0,-0.1 0,-0.1 0,-0.2c0,-0.1 0.1,-0.2 0.1,-0.3c0,-0.1 -0.1,-0.1 -0.1,-0.2c0,-0.1 0,-0.2 0,-0.3c0,-0.2 0,-0.4 -0.1,-0.5c-0.4,-0.7 -1.2,-0.9 -2,-0.8c-0.2,0 -0.3,0.1 -0.4,0.2c-0.2,0.1 -0.1,0.2 -0.3,0.2c-0.1,0 -0.2,0.1 -0.2,0.2c0,0.2 0,0.2 0,0.3c0,0 0,0 0,0" fill="#FFFFFF"/>
      <path id="svg_81" d="m15.8,-25.7c0,0.1 0,0.1 0,0.2c-0.1,0.1 -0.1,0.1 -0.2,0.1c-0.1,0.1 -0.1,0.3 -0.1,0.4c-0.2,0.1 0,0.2 0,0.3c0,0 0,0.1 0,0.2c0,0.1 0,0.3 0.1,0.4c0.1,0.2 0.3,0.4 0.4,0.5c0.2,0.1 0.4,0.6 0.6,0.6c0.2,0 0.4,-0.1 0.5,-0.1c0.2,0 0.4,0 0.6,-0.1c0.2,-0.1 0.1,-0.3 0.3,-0.5c0.1,-0.1 0.3,0 0.4,-0.1c0.2,-0.1 0.3,-0.3 0.4,-0.5c0,-0.1 0,-0.1 0,-0.2c0,-0.1 0.1,-0.2 0.1,-0.3c0,-0.1 -0.1,-0.1 -0.1,-0.2c0,-0.1 0,-0.2 0,-0.3c0,-0.2 0,-0.4 -0.1,-0.5c-0.4,-0.7 -1.2,-0.9 -2,-0.8c-0.2,0 -0.3,0.1 -0.4,0.2c-0.2,0.1 -0.1,0.2 -0.3,0.2c-0.1,0 -0.2,0.1 -0.2,0.2c0,0.2 0,0.2 0,0.3c0,0 0,0 0,0" fill="#FFFFFF"/>
      <path id="svg_82" d="m8.2,-25.7c0,0.1 0,0.1 0,0.2c-0.1,0.1 -0.2,0 -0.2,0.1c-0.1,0.1 -0.1,0.3 -0.1,0.4c-0.2,0.1 0,0.2 0,0.3c0,0 0,0.1 0,0.2c0,0.1 0,0.3 0.1,0.4c0,0.1 0.2,0.3 0.3,0.5c0.2,0.1 0.4,0.6 0.6,0.6c0.2,0 0.4,-0.1 0.5,-0.1c0.2,0 0.4,0 0.6,-0.1c0.2,-0.1 0.1,-0.3 0.3,-0.5c0.1,-0.1 0.3,0 0.4,-0.1c0.2,-0.1 0.3,-0.3 0.4,-0.5c0,-0.1 0,-0.1 0,-0.2c0,-0.1 0.1,-0.2 0.1,-0.3c0,-0.1 -0.1,-0.1 -0.1,-0.2c0,-0.1 0,-0.2 0,-0.3c0,-0.2 0,-0.4 -0.1,-0.5c-0.4,-0.7 -1.2,-0.9 -2,-0.8c-0.2,0 -0.3,0.1 -0.4,0.2c-0.2,0.1 -0.1,0.2 -0.3,0.2c-0.1,0 -0.2,0.1 -0.2,0.2c0.1,0.2 0.1,0.2 0.1,0.3c-0.1,0 -0.1,0 0,0" fill="#FFFFFF"/>
      <path id="svg_83" d="m0.5,-25.7c0,0.1 0,0.1 0,0.2c-0.1,0.1 -0.1,0.1 -0.2,0.1c-0.1,0.1 -0.1,0.3 -0.1,0.4c-0.2,0.1 0,0.2 0,0.3c0,0 0,0.1 0,0.2c0,0.1 0,0.3 0.1,0.4c0.1,0.2 0.3,0.4 0.4,0.5c0.2,0.1 0.3,0.5 0.6,0.6c0.2,0 0.4,-0.1 0.5,-0.1c0.2,0 0.4,0 0.6,-0.1c0.2,-0.1 0.1,-0.3 0.3,-0.5c0.1,-0.1 0.3,0 0.4,-0.1c0.2,-0.1 0.3,-0.3 0.4,-0.5c0,-0.1 0,-0.1 0,-0.2c0,-0.1 0.1,-0.2 0.1,-0.3c0,-0.1 -0.1,-0.1 -0.1,-0.2c0,-0.1 0,-0.2 0,-0.3c0,-0.2 0,-0.4 -0.1,-0.5c-0.4,-0.7 -1.2,-0.9 -2,-0.8c-0.2,0 -0.3,0.1 -0.4,0.2c-0.2,0.1 -0.1,0.2 -0.3,0.2c-0.1,0 -0.2,0.1 -0.2,0.2c0,0.2 0,0.2 0,0.3c0,0 0,0 0,0" fill="#FFFFFF"/>
     </g>
     <g id="svg_84">
      <path id="svg_85" d="m69.4,-18.1c0,0.1 0,0.1 0,0.2c-0.1,0.1 -0.1,0.1 -0.2,0.1c-0.1,0.1 -0.1,0.3 -0.1,0.4c-0.2,0.1 0,0.2 0,0.3c0,0 0,0.1 0,0.2c0,0.1 0,0.3 0.1,0.4c0.1,0.2 0.3,0.4 0.4,0.5c0.2,0.1 0.4,0.6 0.6,0.6c0.2,0 0.4,-0.1 0.5,-0.1c0.2,0 0.4,0 0.6,-0.1c0.2,-0.1 0.1,-0.3 0.3,-0.5c0.1,-0.1 0.3,0 0.4,-0.1c0.2,-0.1 0.3,-0.3 0.4,-0.5c0,-0.1 0,-0.1 0,-0.2c0,-0.1 0.1,-0.2 0.1,-0.3c0,-0.1 -0.1,-0.1 -0.1,-0.2c0,-0.1 0,-0.2 0,-0.3c0,-0.2 0,-0.4 -0.1,-0.5c-0.4,-0.7 -1.2,-0.9 -2,-0.8c-0.2,0 -0.3,0.1 -0.4,0.2c-0.2,0.1 -0.1,0.2 -0.3,0.2c-0.1,0 -0.2,0.1 -0.2,0.2c0,0.3 0,0.2 0,0.3c0,0.1 0,0 0,0" fill="#FFFFFF"/>
      <path id="svg_86" d="m61.8,-18.1c0,0.1 0,0.1 0,0.2c-0.1,0.1 -0.1,0.1 -0.2,0.1c-0.1,0.1 -0.1,0.3 -0.1,0.4c-0.2,0.1 0,0.2 0,0.3c0,0 0,0.1 0,0.2c0,0.1 0,0.3 0.1,0.4c0.1,0.2 0.3,0.4 0.4,0.5c0.2,0.1 0.4,0.6 0.6,0.6c0.2,0 0.4,-0.1 0.5,-0.1c0.2,0 0.4,0 0.6,-0.1c0.2,-0.1 0.1,-0.3 0.3,-0.5c0.1,-0.1 0.3,0 0.4,-0.1c0.2,-0.1 0.3,-0.3 0.4,-0.5c0,-0.1 0,-0.1 0,-0.2c0,-0.1 0.1,-0.2 0.1,-0.3c0,-0.1 -0.1,-0.1 -0.1,-0.2c0,-0.1 0,-0.2 0,-0.3c0,-0.2 0,-0.4 -0.1,-0.5c-0.4,-0.7 -1.2,-0.9 -2,-0.8c-0.2,0 -0.3,0.1 -0.4,0.2c-0.2,0.1 -0.1,0.2 -0.3,0.2c-0.1,0 -0.2,0.1 -0.2,0.2c0,0.3 0,0.2 0,0.3c0,0.1 0,0 0,0" fill="#FFFFFF"/>
      <path id="svg_87" d="m54.1,-18.1c0,0.1 0,0.1 0,0.2c-0.1,0.1 -0.1,0.1 -0.2,0.1c-0.1,0.1 -0.1,0.3 -0.1,0.4c-0.2,0.1 0,0.2 0,0.3c0,0 0,0.1 0,0.2c0,0.1 0,0.3 0.1,0.4c0.1,0.2 0.3,0.4 0.4,0.5c0.2,0.1 0.4,0.6 0.6,0.6c0.2,0 0.4,-0.1 0.5,-0.1c0.2,0 0.4,0 0.6,-0.1c0.2,-0.1 0.1,-0.3 0.3,-0.5c0.1,-0.1 0.3,0 0.4,-0.1c0.2,-0.1 0.3,-0.3 0.4,-0.5c0,-0.1 0,-0.1 0,-0.2c0,-0.1 0.1,-0.2 0.1,-0.3c0,-0.1 -0.1,-0.1 -0.1,-0.2c0,-0.1 0,-0.2 0,-0.3c0,-0.2 0,-0.4 -0.1,-0.5c-0.4,-0.7 -1.2,-0.9 -2,-0.8c-0.2,0 -0.3,0.1 -0.4,0.2c-0.2,0.1 -0.1,0.2 -0.3,0.2c-0.1,0 -0.2,0.1 -0.2,0.2c0,0.3 0,0.2 0,0.3c0,0.1 0,0 0,0" fill="#FFFFFF"/>
      <path id="svg_88" d="m46.5,-18.1c0,0.1 0,0.1 0,0.2c-0.1,0.1 -0.1,0.1 -0.2,0.1c-0.1,0.1 -0.1,0.3 -0.1,0.4c-0.2,0.1 0,0.2 0,0.3c0,0 0,0.1 0,0.2c0,0.1 0,0.3 0.1,0.4c0.1,0.2 0.3,0.4 0.4,0.5c0.2,0.1 0.4,0.6 0.6,0.6c0.2,0 0.4,-0.1 0.5,-0.1c0.2,0 0.4,0 0.6,-0.1c0.2,-0.1 0.1,-0.3 0.3,-0.5c0.1,-0.1 0.3,0 0.4,-0.1c0.2,-0.1 0.3,-0.3 0.4,-0.5c0,-0.1 0,-0.1 0,-0.2c0,-0.1 0.1,-0.2 0.1,-0.3c0,-0.1 -0.1,-0.1 -0.1,-0.2c0,-0.1 0,-0.2 0,-0.3c0,-0.2 0,-0.4 -0.1,-0.5c-0.4,-0.7 -1.2,-0.9 -2,-0.8c-0.2,0 -0.3,0.1 -0.4,0.2c-0.2,0.1 -0.1,0.2 -0.3,0.2c-0.1,0 -0.2,0.1 -0.2,0.2c0,0.3 0,0.2 0,0.3c0,0.1 0,0 0,0" fill="#FFFFFF"/>
      <path id="svg_89" d="m38.8,-18.1c0,0.1 0,0.1 0,0.2c-0.1,0.1 -0.1,0.1 -0.2,0.1c-0.1,0.1 -0.1,0.3 -0.1,0.4c-0.2,0.1 0,0.2 0,0.3c0,0 0,0.1 0,0.2c0,0.1 0,0.3 0.1,0.4c0.1,0.2 0.3,0.4 0.4,0.5c0.2,0.1 0.4,0.6 0.6,0.6c0.2,0 0.4,-0.1 0.5,-0.1c0.2,0 0.4,0 0.6,-0.1c0.2,-0.1 0.1,-0.3 0.3,-0.5c0.1,-0.1 0.3,0 0.4,-0.1c0.2,-0.1 0.3,-0.3 0.4,-0.5c0,-0.1 0,-0.1 0,-0.2c0,-0.1 0.1,-0.2 0.1,-0.3c0,-0.1 -0.1,-0.1 -0.1,-0.2c0,-0.1 0,-0.2 0,-0.3c0,-0.2 0,-0.4 -0.1,-0.5c-0.4,-0.7 -1.2,-0.9 -2,-0.8c-0.2,0 -0.3,0.1 -0.4,0.2c-0.2,0.1 -0.1,0.2 -0.3,0.2c-0.1,0 -0.2,0.1 -0.2,0.2c0,0.3 0,0.2 0,0.3c0,0.1 0,0 0,0" fill="#FFFFFF"/>
      <path id="svg_90" d="m31.1,-18.1c0,0.1 0,0.1 0,0.2c-0.1,0.1 -0.1,0.1 -0.2,0.1c-0.1,0.1 -0.1,0.3 -0.1,0.4c-0.2,0.1 0,0.2 0,0.3c0,0 0,0.1 0,0.2c0,0.1 0,0.3 0.1,0.4c0.1,0.2 0.3,0.4 0.4,0.5c0.2,0.1 0.4,0.6 0.6,0.6c0.2,0 0.4,-0.1 0.5,-0.1c0.2,0 0.4,0 0.6,-0.1c0.2,-0.1 0.1,-0.3 0.3,-0.5c0.1,-0.1 0.3,0 0.4,-0.1c0.2,-0.1 0.3,-0.3 0.4,-0.5c0,-0.1 0,-0.1 0,-0.2c0,-0.1 0.1,-0.2 0.1,-0.3c0,-0.1 -0.1,-0.1 -0.1,-0.2c0,-0.1 0,-0.2 0,-0.3c0,-0.2 0,-0.4 -0.1,-0.5c-0.4,-0.7 -1.2,-0.9 -2,-0.8c-0.2,0 -0.3,0.1 -0.4,0.2c-0.2,0.1 -0.1,0.2 -0.3,0.2c-0.1,0 -0.2,0.1 -0.2,0.2c0,0.3 0,0.2 0,0.3c0,0.1 0,0 0,0" fill="#FFFFFF"/>
      <path id="svg_91" d="m23.5,-18.1c0,0.1 0,0.1 0,0.2c-0.1,0.1 -0.1,0.1 -0.2,0.1c-0.1,0.1 -0.1,0.3 -0.1,0.4c-0.2,0.1 0,0.2 0,0.3c0,0 0,0.1 0,0.2c0,0.1 0,0.3 0.1,0.4c0.1,0.2 0.3,0.4 0.4,0.5c0.2,0.1 0.4,0.6 0.6,0.6c0.2,0 0.4,-0.1 0.5,-0.1c0.2,0 0.4,0 0.6,-0.1c0.2,-0.1 0.1,-0.3 0.3,-0.5c0.1,-0.1 0.3,0 0.4,-0.1c0.2,-0.1 0.3,-0.3 0.4,-0.5c0,-0.1 0,-0.1 0,-0.2c0,-0.1 0.1,-0.2 0.1,-0.3c0,-0.1 -0.1,-0.1 -0.1,-0.2c0,-0.1 0,-0.2 0,-0.3c0,-0.2 0,-0.4 -0.1,-0.5c-0.4,-0.7 -1.2,-0.9 -2,-0.8c-0.2,0 -0.3,0.1 -0.4,0.2c-0.2,0.1 -0.1,0.2 -0.3,0.2c-0.1,0 -0.2,0.1 -0.2,0.2c0,0.3 0,0.2 0,0.3c0,0.1 0,0 0,0" fill="#FFFFFF"/>
      <path id="svg_92" d="m15.8,-18.1c0,0.1 0,0.1 0,0.2c-0.1,0.1 -0.1,0.1 -0.2,0.1c-0.1,0.1 -0.1,0.3 -0.1,0.4c-0.2,0.1 0,0.2 0,0.3c0,0 0,0.1 0,0.2c0,0.1 0,0.3 0.1,0.4c0.1,0.2 0.3,0.4 0.4,0.5c0.2,0.1 0.4,0.6 0.6,0.6c0.2,0 0.4,-0.1 0.5,-0.1c0.2,0 0.4,0 0.6,-0.1c0.2,-0.1 0.1,-0.3 0.3,-0.5c0.1,-0.1 0.3,0 0.4,-0.1c0.2,-0.1 0.3,-0.3 0.4,-0.5c0,-0.1 0,-0.1 0,-0.2c0,-0.1 0.1,-0.2 0.1,-0.3c0,-0.1 -0.1,-0.1 -0.1,-0.2c0,-0.1 0,-0.2 0,-0.3c0,-0.2 0,-0.4 -0.1,-0.5c-0.4,-0.7 -1.2,-0.9 -2,-0.8c-0.2,0 -0.3,0.1 -0.4,0.2c-0.2,0.1 -0.1,0.2 -0.3,0.2c-0.1,0 -0.2,0.1 -0.2,0.2c0,0.3 0,0.2 0,0.3c0,0.1 0,0 0,0" fill="#FFFFFF"/>
      <path id="svg_93" d="m8.2,-18.1c0,0.1 0,0.1 0,0.2c-0.1,0.1 -0.2,0.1 -0.2,0.1c-0.1,0.1 -0.1,0.3 -0.1,0.4c-0.2,0.1 0,0.2 0,0.3c0,0 0,0.1 0,0.2c0,0.1 0,0.3 0.1,0.4c0,0.2 0.2,0.4 0.3,0.5c0.2,0.1 0.4,0.6 0.6,0.6c0.2,0 0.4,-0.1 0.5,-0.1c0.2,0 0.4,0 0.6,-0.1c0.2,-0.1 0.1,-0.3 0.3,-0.5c0.1,-0.1 0.3,0 0.4,-0.1c0.2,-0.1 0.3,-0.3 0.4,-0.5c0,-0.1 0,-0.1 0,-0.2c0,-0.1 0.1,-0.2 0.1,-0.3c0,-0.1 -0.1,-0.1 -0.1,-0.2c0,-0.1 0,-0.2 0,-0.3c0,-0.2 0,-0.4 -0.1,-0.5c-0.4,-0.7 -1.2,-0.9 -2,-0.8c-0.2,0 -0.3,0.1 -0.4,0.2c-0.2,0.1 -0.1,0.2 -0.3,0.2c-0.1,0 -0.2,0.1 -0.2,0.2c0.1,0.3 0.1,0.2 0.1,0.3c-0.1,0.1 -0.1,0 0,0" fill="#FFFFFF"/>
      <path id="svg_94" d="m0.5,-18.1c0,0.1 0,0.1 0,0.2c-0.1,0.1 -0.1,0.1 -0.2,0.1c-0.1,0.1 -0.1,0.3 -0.1,0.4c-0.2,0.1 0,0.2 0,0.3c0,0 0,0.1 0,0.2c0,0.1 0,0.3 0.1,0.4c0.1,0.2 0.3,0.4 0.4,0.5c0.2,0.1 0.4,0.6 0.6,0.6c0.2,0 0.4,-0.1 0.5,-0.1c0.2,0 0.4,0 0.6,-0.1c0.2,-0.1 0.1,-0.3 0.3,-0.5c0.1,0 0.3,0.1 0.4,0.1c0.2,-0.1 0.3,-0.3 0.4,-0.5c0,-0.1 0,-0.1 0,-0.2c0,-0.1 0.1,-0.2 0.1,-0.3c0,-0.1 -0.1,-0.1 -0.1,-0.2c0,-0.1 0,-0.2 0,-0.3c0,-0.2 0,-0.4 -0.1,-0.5c-0.4,-0.7 -1.2,-0.9 -2,-0.8c-0.2,0 -0.3,0.1 -0.4,0.2c-0.2,0.1 -0.1,0.2 -0.3,0.2c-0.1,0 -0.2,0.1 -0.2,0.2c0,0.1 0,0 0,0.1c0,0.1 0,0 0,0" fill="#FFFFFF"/>
     </g>
     <g id="svg_95">
      <path id="svg_96" d="m69.4,-10.4c0,0.1 0,0.1 0,0.2c-0.1,0.1 -0.1,0.1 -0.2,0.1c-0.1,0.1 -0.1,0.3 -0.1,0.4c-0.2,0.1 0,0.2 0,0.3c0,0 0,0.1 0,0.2c0,0.1 0,0.3 0.1,0.4c0.1,0.2 0.3,0.4 0.4,0.5c0.2,0.1 0.4,0.6 0.6,0.6c0.2,0 0.4,-0.1 0.5,-0.1c0.2,0 0.4,0 0.6,-0.1c0.2,-0.1 0.1,-0.3 0.3,-0.5c0.1,-0.1 0.3,0 0.4,-0.1c0.2,-0.1 0.3,-0.3 0.4,-0.5c0,-0.1 0,-0.1 0,-0.2c0,-0.1 0.1,-0.2 0.1,-0.3c0,-0.1 -0.1,-0.1 -0.1,-0.2c0,-0.1 0,-0.2 0,-0.3c0,-0.2 0,-0.4 -0.1,-0.5c-0.4,-0.7 -1.2,-0.9 -2,-0.8c-0.2,0 -0.3,0.1 -0.4,0.2c-0.2,0.1 -0.1,0.2 -0.3,0.2c-0.1,0 -0.2,0.1 -0.2,0.2c0,0.2 0,0.2 0,0.3c0,0 0,0 0,0" fill="#FFFFFF"/>
      <path id="svg_97" d="m61.8,-10.4c0,0.1 0,0.1 0,0.2c-0.1,0.1 -0.1,0.1 -0.2,0.1c-0.1,0.1 -0.1,0.3 -0.1,0.4c-0.2,0.1 0,0.2 0,0.3c0,0 0,0.1 0,0.2c0,0.1 0,0.3 0.1,0.4c0.1,0.2 0.3,0.4 0.4,0.5c0.2,0.1 0.4,0.6 0.6,0.6c0.2,0 0.4,-0.1 0.5,-0.1c0.2,0 0.4,0 0.6,-0.1c0.2,-0.1 0.1,-0.3 0.3,-0.4c0.1,-0.1 0.3,0 0.4,-0.1c0.2,-0.1 0.3,-0.3 0.4,-0.5c0,-0.1 0,-0.1 0,-0.2c0,-0.1 0.1,-0.2 0.1,-0.3c0,-0.1 -0.1,-0.1 -0.1,-0.2c0,-0.1 0,-0.2 0,-0.3c0,-0.2 0,-0.4 -0.1,-0.5c-0.4,-0.7 -1.2,-0.9 -2,-0.8c-0.2,0 -0.3,0.1 -0.4,0.2c-0.2,0.1 -0.1,0.2 -0.3,0.2c-0.1,0 -0.2,0.1 -0.2,0.2c0,0.1 0,0.1 0,0.2c0,0 0,0 0,0" fill="#FFFFFF"/>
      <path id="svg_98" d="m54.1,-10.4c0,0.1 0,0.1 0,0.2c-0.1,0.1 -0.1,0.1 -0.2,0.1c-0.1,0.1 -0.1,0.3 -0.1,0.4c-0.2,0.1 0,0.2 0,0.3c0,0 0,0.1 0,0.2c0,0.1 0,0.3 0.1,0.4c0.1,0.2 0.3,0.4 0.4,0.5c0.2,0.1 0.4,0.6 0.6,0.6c0.2,0 0.4,-0.1 0.5,-0.1c0.2,0 0.4,0 0.6,-0.1c0.2,-0.1 0.1,-0.3 0.3,-0.5c0.1,-0.1 0.3,0 0.4,-0.1c0.2,-0.1 0.3,-0.3 0.4,-0.5c0,-0.1 0,-0.1 0,-0.2c0,-0.1 0.1,-0.2 0.1,-0.3c0,-0.1 -0.1,-0.1 -0.1,-0.2c0,-0.1 0,-0.2 0,-0.3c0,-0.2 0,-0.4 -0.1,-0.5c-0.4,-0.7 -1.2,-0.9 -2,-0.8c-0.2,0 -0.3,0.1 -0.4,0.2c-0.2,0.1 -0.1,0.2 -0.3,0.2c-0.1,0 -0.2,0.1 -0.2,0.2c0,0.2 0,0.2 0,0.3c0,0 0,0 0,0" fill="#FFFFFF"/>
      <path id="svg_99" d="m46.5,-10.4c0,0.1 0,0.1 0,0.2c-0.1,0.1 -0.1,0.1 -0.2,0.1c-0.1,0.1 -0.1,0.3 -0.1,0.4c-0.2,0.1 0,0.2 0,0.3c0,0 0,0.1 0,0.2c0,0.1 0,0.3 0.1,0.4c0.1,0.2 0.3,0.4 0.4,0.5c0.2,0.1 0.4,0.6 0.6,0.6c0.2,0 0.4,-0.1 0.5,-0.1c0.2,0 0.4,0 0.6,-0.1c0.2,-0.1 0.1,-0.3 0.3,-0.5c0.1,-0.1 0.3,0 0.4,-0.1c0.2,-0.1 0.3,-0.3 0.4,-0.5c0,-0.1 0,-0.1 0,-0.2c0,-0.1 0.1,-0.2 0.1,-0.3c0,-0.1 -0.1,-0.1 -0.1,-0.2c0,-0.1 0,-0.2 0,-0.3c0,-0.2 0,-0.4 -0.1,-0.5c-0.4,-0.7 -1.2,-0.9 -2,-0.8c-0.2,0 -0.3,0.1 -0.4,0.2c-0.2,0.1 -0.1,0.2 -0.3,0.2c-0.1,0 -0.2,0.1 -0.2,0.2c0,0.2 0,0.2 0,0.3c0,0 0,0 0,0" fill="#FFFFFF"/>
      <path id="svg_100" d="m38.8,-10.4c0,0.1 0,0.1 0,0.2c-0.1,0.1 -0.1,0.1 -0.2,0.1c-0.1,0.1 -0.1,0.3 -0.1,0.4c-0.2,0.1 0,0.2 0,0.3c0,0 0,0.1 0,0.2c0,0.1 0,0.3 0.1,0.4c0.1,0.2 0.3,0.4 0.4,0.5c0.2,0.1 0.4,0.6 0.6,0.6c0.2,0 0.4,-0.1 0.5,-0.1c0.2,0 0.4,0 0.6,-0.1c0.2,-0.1 0.1,-0.3 0.3,-0.4c0.1,-0.1 0.3,0 0.4,-0.1c0.2,-0.1 0.3,-0.3 0.4,-0.5c0,-0.1 0,-0.1 0,-0.2c0,-0.1 0.1,-0.2 0.1,-0.3c0,-0.1 -0.1,-0.1 -0.1,-0.2c0,-0.1 0,-0.2 0,-0.3c0,-0.2 0,-0.4 -0.1,-0.5c-0.4,-0.7 -1.2,-0.9 -2,-0.8c-0.2,0 -0.3,0.1 -0.4,0.2c-0.2,0.1 -0.1,0.2 -0.3,0.2c-0.1,0 -0.2,0.1 -0.2,0.2c0,0.1 0,0.1 0,0.2c0,0 0,0 0,0" fill="#FFFFFF"/>
      <path id="svg_101" d="m31.1,-10.4c0,0.1 0,0.1 0,0.2c-0.1,0.1 -0.1,0.1 -0.2,0.1c-0.1,0.1 -0.1,0.3 -0.1,0.4c-0.2,0.1 0,0.2 0,0.3c0,0 0,0.1 0,0.2c0,0.1 0,0.3 0.1,0.4c0.1,0.2 0.3,0.4 0.4,0.5c0.2,0.1 0.4,0.6 0.6,0.6c0.2,0 0.4,-0.1 0.5,-0.1c0.2,0 0.4,0 0.6,-0.1c0.2,-0.1 0.1,-0.3 0.3,-0.5c0.1,-0.1 0.3,0 0.4,-0.1c0.2,-0.1 0.3,-0.3 0.4,-0.5c0,-0.1 0,-0.1 0,-0.2c0,-0.1 0.1,-0.2 0.1,-0.3c0,-0.1 -0.1,-0.1 -0.1,-0.2c0,-0.1 0,-0.2 0,-0.3c0,-0.2 0,-0.4 -0.1,-0.5c-0.4,-0.7 -1.2,-0.9 -2,-0.8c-0.2,0 -0.3,0.1 -0.4,0.2c-0.2,0.1 -0.1,0.2 -0.3,0.2c-0.1,0 -0.2,0.1 -0.2,0.2c0,0.2 0,0.2 0,0.3c0,0 0,0 0,0" fill="#FFFFFF"/>
      <path id="svg_102" d="m23.5,-10.4c0,0.1 0,0.1 0,0.2c-0.1,0.1 -0.1,0.1 -0.2,0.1c-0.1,0.1 -0.1,0.3 -0.1,0.4c-0.2,0.1 0,0.2 0,0.3c0,0 0,0.1 0,0.2c0,0.1 0,0.3 0.1,0.4c0.1,0.2 0.3,0.4 0.4,0.5c0.2,0.1 0.4,0.6 0.6,0.6c0.2,0 0.4,-0.1 0.5,-0.1c0.2,0 0.4,0 0.6,-0.1c0.2,-0.1 0.1,-0.3 0.3,-0.5c0.1,-0.1 0.3,0 0.4,-0.1c0.2,-0.1 0.3,-0.3 0.4,-0.5c0,-0.1 0,-0.1 0,-0.2c0,-0.1 0.1,-0.2 0.1,-0.3c0,-0.1 -0.1,-0.1 -0.1,-0.2c0,-0.1 0,-0.2 0,-0.3c0,-0.2 0,-0.4 -0.1,-0.5c-0.4,-0.7 -1.2,-0.9 -2,-0.8c-0.2,0 -0.3,0.1 -0.4,0.2c-0.2,0.1 -0.1,0.2 -0.3,0.2c-0.1,0 -0.2,0.1 -0.2,0.2c0,0.2 0,0.2 0,0.3c0,0 0,0 0,0" fill="#FFFFFF"/>
      <path id="svg_103" d="m15.8,-10.4c0,0.1 0,0.1 0,0.2c-0.1,0.1 -0.1,0.1 -0.2,0.1c-0.1,0.1 -0.1,0.3 -0.1,0.4c-0.2,0.1 0,0.2 0,0.3c0,0 0,0.1 0,0.2c0,0.1 0,0.3 0.1,0.4c0.1,0.2 0.3,0.4 0.4,0.5c0.2,0.1 0.4,0.6 0.6,0.6c0.2,0 0.4,-0.1 0.5,-0.1c0.2,0 0.4,0 0.6,-0.1c0.2,-0.1 0.1,-0.3 0.3,-0.4c0.1,-0.1 0.3,0 0.4,-0.1c0.2,-0.1 0.3,-0.3 0.4,-0.5c0,-0.1 0,-0.1 0,-0.2c0,-0.1 0.1,-0.2 0.1,-0.3c0,-0.1 -0.1,-0.1 -0.1,-0.2c0,-0.1 0,-0.2 0,-0.3c0,-0.2 0,-0.4 -0.1,-0.5c-0.4,-0.7 -1.2,-0.9 -2,-0.8c-0.2,0 -0.3,0.1 -0.4,0.2c-0.2,0.1 -0.1,0.2 -0.3,0.2c-0.1,0 -0.2,0.1 -0.2,0.2c0,0.1 0,0.1 0,0.2c0,0 0,0 0,0" fill="#FFFFFF"/>
      <path id="svg_104" d="m8.2,-10.4c0,0.1 0,0.1 0,0.2c-0.1,0.1 -0.2,0 -0.2,0.1c-0.1,0.1 -0.1,0.3 -0.1,0.3c-0.2,0.1 0,0.2 0,0.3c0,0 0,0.1 0,0.2c0,0.1 0,0.3 0.1,0.4c0,0.2 0.2,0.4 0.3,0.6c0.2,0.1 0.4,0.6 0.6,0.6c0.2,0 0.4,-0.1 0.5,-0.1c0.2,0 0.4,0 0.6,-0.1c0.2,-0.1 0.1,-0.3 0.3,-0.5c0.1,-0.1 0.3,0 0.4,-0.1c0.2,-0.1 0.3,-0.3 0.4,-0.5c0,-0.1 0,-0.1 0,-0.2c0,-0.1 0.1,-0.2 0.1,-0.3c0,-0.1 -0.1,-0.1 -0.1,-0.2c0,-0.1 0,-0.2 0,-0.3c0,-0.2 0,-0.4 -0.1,-0.5c-0.4,-0.7 -1.2,-0.9 -2,-0.8c-0.2,0 -0.3,0.1 -0.4,0.2c-0.2,0.1 -0.1,0.2 -0.3,0.2c-0.1,0 -0.2,0.1 -0.2,0.2c0.1,0.2 0.1,0.2 0.1,0.3c-0.1,0 -0.1,0 0,0" fill="#FFFFFF"/>
      <path id="svg_105" d="m0.5,-10.4c0,0.1 0,0.1 0,0.2c-0.1,0.1 -0.1,0.1 -0.2,0.1c0,0.1 -0.1,0.3 -0.1,0.3c-0.2,0.1 0,0.2 0,0.3c0,0 0,0.1 0,0.2c0,0.1 0,0.3 0.1,0.4c0.1,0.2 0.3,0.4 0.4,0.5c0.2,0.2 0.3,0.6 0.6,0.7c0.2,0 0.4,-0.1 0.5,-0.1c0.2,0 0.4,0 0.6,-0.1c0.2,-0.1 0.1,-0.3 0.3,-0.4c0.1,-0.1 0.3,0 0.4,-0.1c0.2,-0.1 0.3,-0.3 0.4,-0.5c0,-0.1 0,-0.1 0,-0.2c0,-0.1 0.1,-0.2 0.1,-0.3c0,-0.1 -0.1,-0.1 -0.1,-0.2c0,-0.1 0,-0.2 0,-0.3c0,-0.2 0,-0.4 -0.1,-0.5c-0.4,-0.7 -1.2,-0.9 -2,-0.8c-0.2,0 -0.3,0.1 -0.4,0.2c-0.2,0.1 -0.1,0.2 -0.3,0.2c-0.1,0 -0.2,0.1 -0.2,0.2c0,0.1 0,0.1 0,0.2c0,0 0,0 0,0" fill="#FFFFFF"/>
     </g>
    </g>
    <g id="svg_106">
     <path id="svg_107" d="m69.4,-2.8c0,0.1 0,0.1 0,0.2c-0.1,0.1 -0.1,0.1 -0.2,0.1c-0.1,0.1 -0.1,0.3 -0.1,0.4c-0.2,0.1 0,0.2 0,0.3c0,0 0,0.1 0,0.2c0,0.1 0,0.3 0.1,0.4c0.1,0.2 0.3,0.4 0.4,0.5c0.2,0.2 0.4,0.6 0.6,0.7c0.2,0 0.4,-0.1 0.5,-0.1c0.2,0 0.4,0 0.6,-0.1c0.2,-0.1 0.1,-0.3 0.3,-0.5c0.1,-0.1 0.3,0 0.4,-0.1c0.2,-0.1 0.3,-0.3 0.4,-0.5c0,-0.1 0,-0.1 0,-0.2c0,-0.1 0.1,-0.2 0.1,-0.3c0,-0.1 -0.1,-0.1 -0.1,-0.2c0,-0.1 0,-0.2 0,-0.3c0,-0.2 0,-0.4 -0.1,-0.5c-0.4,-0.7 -1.2,-0.9 -2,-0.8c-0.2,0 -0.3,0.1 -0.4,0.2c-0.2,0.1 -0.1,0.2 -0.3,0.2c-0.1,0 -0.2,0.1 -0.2,0.2c0,0.2 0,0.1 0,0.2c0,0.1 0,0 0,0" fill="#FFFFFF"/>
     <path id="svg_108" d="m61.8,-2.8c0,0.1 0,0.1 0,0.2c-0.1,0.1 -0.1,0.1 -0.2,0.1c-0.1,0.1 -0.1,0.3 -0.1,0.4c-0.2,0.1 0,0.2 0,0.3c0,0 0,0.1 0,0.2c0,0.1 0,0.3 0.1,0.4c0,0.2 0.2,0.4 0.4,0.5c0.2,0.1 0.4,0.6 0.6,0.6c0.2,0 0.4,-0.1 0.5,-0.1c0.2,0 0.4,0 0.6,-0.1c0.2,-0.1 0.1,-0.3 0.3,-0.5c0.1,-0.1 0.3,0 0.4,-0.1c0.2,-0.1 0.3,-0.3 0.4,-0.5c0,-0.1 0,-0.1 0,-0.2c0,-0.1 0.1,-0.2 0.1,-0.3c0,-0.1 -0.1,-0.1 -0.1,-0.2c0,-0.1 0,-0.2 0,-0.3c0,-0.2 0,-0.4 -0.1,-0.5c-0.4,-0.7 -1.2,-0.9 -2,-0.8c-0.2,0 -0.3,0.1 -0.4,0.2c-0.2,0.1 -0.1,0.2 -0.3,0.2c-0.1,0 -0.2,0.1 -0.2,0.2c0,0.3 0,0.2 0,0.3c0,0.1 0,0 0,0" fill="#FFFFFF"/>
     <path id="svg_109" d="m54.1,-2.8c0,0.1 0,0.1 0,0.2c-0.1,0.1 -0.1,0.1 -0.2,0.1c-0.1,0.1 -0.1,0.3 -0.1,0.4c-0.2,0.1 0,0.2 0,0.3c0,0 0,0.1 0,0.2c0,0.1 0,0.3 0.1,0.4c0.1,0.2 0.2,0.4 0.4,0.5c0.2,0.1 0.4,0.6 0.6,0.6c0.2,0 0.4,-0.1 0.5,-0.1c0.2,0 0.4,0 0.6,-0.1c0.2,-0.1 0.1,-0.3 0.3,-0.5c0.1,-0.1 0.3,0 0.4,-0.1c0.2,0.1 0.3,-0.1 0.4,-0.3c0,-0.1 0,-0.1 0,-0.2c0,-0.1 0.1,-0.2 0.1,-0.3c0,-0.1 -0.1,-0.1 -0.1,-0.2c0,-0.1 0,-0.2 0,-0.3c0,-0.2 0,-0.4 -0.1,-0.5c-0.4,-0.7 -1.2,-0.9 -2,-0.8c-0.2,0 -0.3,0.1 -0.4,0.2c-0.2,0.1 -0.1,0.2 -0.3,0.2c-0.1,0 -0.2,0.1 -0.2,0.2c0,0.1 0,0 0,0.1c0,0.1 0,0 0,0" fill="#FFFFFF"/>
     <path id="svg_110" d="m46.5,-2.8c0,0.1 0,0.1 0,0.2c-0.1,0.1 -0.1,0.1 -0.2,0.1c-0.1,0.1 -0.1,0.3 -0.1,0.4c-0.2,0.1 0,0.2 0,0.3c0,0 0,0.1 0,0.2c0,0.1 0,0.3 0.1,0.4c0.1,0.2 0.3,0.4 0.4,0.5c0.1,0.2 0.3,0.6 0.5,0.7c0.2,0 0.4,-0.1 0.5,-0.1c0.2,0 0.4,0 0.6,-0.1c0.2,-0.1 0.1,-0.3 0.3,-0.5c0.1,-0.1 0.3,0 0.4,-0.1c0.2,-0.1 0.3,-0.3 0.4,-0.5c0,-0.1 0,-0.1 0,-0.2c0,-0.1 0.1,-0.2 0.1,-0.3c0,-0.1 -0.1,-0.1 -0.1,-0.2c0,-0.1 0,-0.2 0,-0.3c0,-0.2 0,-0.4 -0.1,-0.5c-0.4,-0.7 -1.2,-0.9 -2,-0.8c-0.2,0 -0.3,0.1 -0.4,0.2c-0.2,0.1 -0.1,0.2 -0.3,0.2c-0.1,0 -0.2,0.1 -0.2,0.2c0.1,0.2 0.1,0.1 0.1,0.2c0,0.1 0,0 0,0" fill="#FFFFFF"/>
     <path id="svg_111" d="m38.8,-2.8c0,0.1 0,0.1 0,0.2c-0.1,0.1 -0.1,0.1 -0.2,0.1c-0.1,0.1 -0.1,0.3 -0.1,0.4c-0.2,0.1 0,0.2 0,0.3c0,0 0,0.1 0,0.2c0,0.1 0,0.3 0.1,0.4c0,0.2 0.2,0.4 0.4,0.5c0.2,0.1 0.4,0.6 0.6,0.6c0.2,0 0.4,-0.1 0.5,-0.1c0.2,0 0.4,0 0.6,-0.1c0.2,-0.1 0.1,-0.3 0.3,-0.5c0.1,-0.1 0.3,0 0.4,-0.1c0.2,-0.1 0.3,-0.3 0.4,-0.5c0,-0.1 0,-0.1 0,-0.2c0,-0.1 0.1,-0.2 0.1,-0.3c0,-0.1 -0.1,-0.1 -0.1,-0.2c0,-0.1 0,-0.2 0,-0.3c0,-0.2 0,-0.4 -0.1,-0.5c-0.4,-0.7 -1.2,-0.9 -2,-0.8c-0.2,0 -0.3,0.1 -0.4,0.2c-0.2,0.1 -0.1,0.2 -0.3,0.2c-0.1,0 -0.2,0.1 -0.2,0.2c0,0.3 0,0.2 0,0.3c0,0.1 0,0 0,0" fill="#FFFFFF"/>
     <path id="svg_112" d="m31.1,-2.8c0,0.1 0,0.1 0,0.2c-0.1,0.1 -0.1,0.1 -0.2,0.1c-0.1,0.1 -0.1,0.3 -0.1,0.4c-0.2,0.1 0,0.2 0,0.3c0,0 0,0.1 0,0.2c0,0.1 0,0.3 0.1,0.4c0.1,0.2 0.2,0.4 0.4,0.5c0.2,0.1 0.4,0.6 0.6,0.6c0.2,0 0.4,-0.1 0.5,-0.1c0.2,0 0.4,0 0.6,-0.1c0.2,-0.1 0.1,-0.3 0.3,-0.5c0.1,-0.1 0.3,0 0.4,-0.1c0.2,-0.1 0.3,-0.3 0.4,-0.5c0,-0.1 0,-0.1 0,-0.2c0,-0.1 0.1,-0.2 0.1,-0.3c0,-0.1 -0.1,-0.1 -0.1,-0.2c0,-0.1 0,-0.2 0,-0.3c0,-0.2 0,-0.4 -0.1,-0.5c-0.4,-0.7 -1.2,-0.9 -2,-0.8c-0.2,0 -0.3,0.1 -0.4,0.2c-0.2,0.1 -0.1,0.2 -0.3,0.2c-0.1,0 -0.2,0.1 -0.2,0.2c0,0.3 0,0.2 0,0.3c0,0.1 0,0 0,0" fill="#FFFFFF"/>
     <path id="svg_113" d="m23.5,-2.8c0,0.1 0,0.1 0,0.2c-0.1,0.1 -0.1,0.1 -0.2,0.1c-0.1,0.1 -0.1,0.3 -0.1,0.4c-0.2,0.1 0,0.2 0,0.3c0,0 0,0.1 0,0.2c0,0.1 0,0.3 0.1,0.4c0.1,0.2 0.3,0.4 0.4,0.5c0.1,0.2 0.3,0.6 0.6,0.7c0.2,0 0.4,-0.1 0.5,-0.1c0.2,0 0.4,0 0.6,-0.1c0.2,-0.1 0.1,-0.3 0.3,-0.5c0.1,-0.1 0.3,0 0.4,-0.1c0.2,-0.1 0.3,-0.3 0.4,-0.5c0,-0.1 0,-0.1 0,-0.2c0,-0.1 0.1,-0.2 0.1,-0.3c0,-0.1 -0.1,-0.1 -0.1,-0.2c0,-0.1 0,-0.2 0,-0.3c0,-0.2 0,-0.4 -0.1,-0.5c-0.4,-0.7 -1.2,-0.9 -2,-0.8c-0.2,0 -0.3,0.1 -0.4,0.2c-0.2,0.1 -0.1,0.2 -0.3,0.2c-0.1,0 -0.2,0.1 -0.2,0.2c0,0.2 0,0.1 0,0.2c0,0.1 0,0 0,0" fill="#FFFFFF"/>
     <path id="svg_114" d="m15.8,-2.8c0,0.1 0,0.1 0,0.2c-0.1,0.1 -0.1,0.1 -0.2,0.1c-0.1,0.1 -0.1,0.3 -0.1,0.4c-0.2,0.1 0,0.2 0,0.3c0,0 0,0.1 0,0.2c0,0.1 0,0.3 0.1,0.4c0.1,0.2 0.2,0.4 0.4,0.5c0.2,0.1 0.4,0.6 0.6,0.6c0.2,0 0.4,-0.1 0.5,-0.1c0.2,0 0.4,0 0.6,-0.1c0.2,-0.1 0.1,-0.3 0.3,-0.5c0.1,-0.1 0.3,0 0.4,-0.1c0.2,-0.1 0.3,-0.3 0.4,-0.5c0,-0.1 0,-0.1 0,-0.2c0,-0.1 0.1,-0.2 0.1,-0.3c0,-0.1 -0.1,-0.1 -0.1,-0.2c0,-0.1 0,-0.2 0,-0.3c0,-0.2 0,-0.4 -0.1,-0.5c-0.4,-0.7 -1.2,-0.9 -2,-0.8c-0.2,0 -0.3,0.1 -0.4,0.2c-0.2,0.1 -0.1,0.2 -0.3,0.2c-0.1,0 -0.2,0.1 -0.2,0.2c0,0.3 0,0.2 0,0.3c0,0.1 0,0 0,0" fill="#FFFFFF"/>
     <path id="svg_115" d="m8.2,-2.8c0,0.1 0,0.1 0,0.2c-0.1,0.1 -0.2,0.1 -0.2,0.1c-0.1,0.1 -0.1,0.3 -0.1,0.4c-0.2,0.1 0,0.2 0,0.3c0,0 0,0.1 0,0.2c0,0.1 0,0.3 0.1,0.4c0,0.2 0.2,0.4 0.3,0.5c0.2,0.2 0.4,0.6 0.6,0.7c0.2,0 0.4,-0.1 0.5,-0.1c0.2,0 0.4,0 0.6,-0.1c0.2,-0.1 0.1,-0.3 0.3,-0.5c0.1,-0.1 0.3,0 0.4,-0.1c0.2,-0.1 0.3,-0.3 0.4,-0.5c0,-0.1 0,-0.1 0,-0.2c0,-0.1 0.1,-0.2 0.1,-0.3c0,-0.1 -0.1,-0.1 -0.1,-0.2c0,-0.1 0,-0.2 0,-0.3c0,-0.2 0,-0.4 -0.1,-0.5c-0.4,-0.7 -1.2,-0.9 -2,-0.8c0,0.1 -0.2,0.2 -0.3,0.2c-0.2,0.1 -0.1,0.2 -0.3,0.3c-0.1,0 -0.2,0.1 -0.2,0.2c0,0.1 0,0 0,0.1c-0.1,0.1 -0.1,0 0,0" fill="#FFFFFF"/>
     <path id="svg_116" d="m0.5,-2.8c0,0.1 0,0.1 0,0.2c-0.1,0.1 -0.1,0.1 -0.2,0.1c0,0.1 -0.1,0.3 -0.1,0.4c-0.2,0.1 0,0.2 0,0.3c0,0 0,0.1 0,0.2c0,0.1 0,0.3 0.1,0.4c0,0.2 0.2,0.4 0.4,0.5c0.2,0.2 0.3,0.6 0.6,0.7c0.2,0 0.4,-0.1 0.5,-0.1c0.2,0 0.4,0 0.6,-0.1c0.2,-0.1 0.1,-0.3 0.3,-0.5c0.1,-0.1 0.3,0 0.4,-0.1c0.2,0 0.3,-0.2 0.4,-0.4c0,-0.1 0,-0.1 0,-0.2c0,-0.1 0.1,-0.2 0.1,-0.3c0,-0.1 -0.1,-0.1 -0.1,-0.2c0,-0.1 0,-0.2 0,-0.3c0,-0.2 0,-0.4 -0.1,-0.5c-0.4,-0.7 -1.2,-0.9 -2,-0.8c-0.1,0 -0.2,0.1 -0.4,0.1c-0.1,0.1 -0.1,0.2 -0.3,0.3c-0.1,0 -0.2,0.1 -0.2,0.2c0,0.1 0,0 0,0.1c0,0.1 0,0 0,0" fill="#FFFFFF"/>
    </g>
   </g>
  </pattern>
 </defs>
 <g>
  <title>background</title>
  <rect fill="none" id="canvas_background" height="402" width="582" y="-1" x="-1"/>
 </g>
 <g>
  <title>Layer 1</title>
  <g id="Guides_For_Artboard_1_"/>
  <g id="Guides_For_Artboard"/>
  <g id="Layer_1">
   <g id="svg_117">
    <path id="svg_118" d="m56.5,4.9l1.3,0l0,4.9l0,0c0.3,-0.4 0.5,-0.7 0.8,-1.1l3.1,-3.8l1.6,0l-3.6,4.3l3.9,5.8l-1.5,0l-3.3,-5l-1,1.1l0,3.9l-1.3,0l0,-10.1z"/>
    <path id="svg_119" d="m70.7,13c0,0.7 0,1.4 0.1,2l-1.2,0l-0.1,-1.2l0,0c-0.3,0.6 -1.1,1.3 -2.4,1.3c-1.1,0 -2.5,-0.6 -2.5,-3.2l0,-4.1l1.3,0l0,4c0,1.4 0.4,2.3 1.6,2.3c0.9,0 1.5,-0.6 1.7,-1.2c0.1,-0.2 0.1,-0.4 0.1,-0.7l0,-4.4l1.3,0l0,5.2l0.1,0z"/>
    <path id="svg_120" d="m73,4.4l1.3,0l0,10.6l-1.3,0l0,-10.6z"/>
    <path id="svg_121" d="m78.3,6l0,1.7l1.9,0l0,1l-1.9,0l0,3.9c0,0.9 0.3,1.4 1,1.4c0.4,0 0.6,0 0.8,-0.1l0.1,1c-0.3,0.1 -0.7,0.2 -1.2,0.2c-0.6,0 -1.1,-0.2 -1.4,-0.6c-0.4,-0.4 -0.5,-1 -0.5,-1.9l0,-3.9l-1.1,0l0,-1l1,0l0,-1.3l1.3,-0.4z"/>
    <path id="svg_122" d="m87.8,13c0,0.7 0,1.4 0.1,2l-1.2,0l-0.1,-1.2l0,0c-0.3,0.6 -1.1,1.3 -2.4,1.3c-1.1,0 -2.5,-0.6 -2.5,-3.2l0,-4.1l1.3,0l0,4c0,1.4 0.4,2.3 1.6,2.3c0.9,0 1.5,-0.6 1.7,-1.2c0.1,-0.2 0.1,-0.4 0.1,-0.7l0,-4.4l1.3,0l0,5.2l0.1,0z"/>
    <path id="svg_123" d="m90.2,10c0,-0.9 0,-1.6 -0.1,-2.3l1.1,0l0,1.4l0.1,0c0.3,-1 1.1,-1.6 2,-1.6c0.1,0 0.3,0 0.4,0l0,1.2c-0.1,0 -0.3,0 -0.4,0c-0.9,0 -1.6,0.7 -1.8,1.7c0,0.2 -0.1,0.4 -0.1,0.6l0,4l-1.3,0l0,-5l0.1,0z"/>
    <path id="svg_124" d="m100.2,13.2c0,0.6 0,1.2 0.1,1.7l-1.2,0l-0.1,-0.8l0,0c-0.4,0.6 -1.2,1.1 -2.2,1.1c-1.5,0 -2.2,-1 -2.2,-2.1c0,-1.7 1.6,-2.7 4.3,-2.7l0,-0.1c0,-0.6 -0.2,-1.7 -1.6,-1.7c-0.7,0 -1.4,0.2 -1.9,0.5l-0.3,-0.9c0.6,-0.4 1.5,-0.6 2.4,-0.6c2.2,0 2.7,1.5 2.7,3l0,2.6zm-1.3,-1.9c-1.4,0 -3.1,0.2 -3.1,1.6c0,0.9 0.6,1.3 1.2,1.3c0.9,0 1.5,-0.6 1.7,-1.2c0,-0.1 0.1,-0.3 0.1,-0.4l0,-1.3l0.1,0zm0.7,-6.7l-1.8,2.1l-0.9,0l1.3,-2.1l1.4,0z"/>
    <path id="svg_125" d="m102.5,4.4l1.3,0l0,10.6l-1.3,0l0,-10.6z"/>
    <path id="svg_126" d="m107.6,5.7c0,0.4 -0.3,0.8 -0.8,0.8c-0.5,0 -0.8,-0.4 -0.8,-0.8c0,-0.5 0.3,-0.8 0.8,-0.8c0.5,0 0.8,0.4 0.8,0.8zm-1.5,9.3l0,-7.2l1.3,0l0,7.2l-1.3,0z"/>
    <path id="svg_127" d="m109.6,13.6c0.4,0.3 1.1,0.5 1.7,0.5c1,0 1.4,-0.5 1.4,-1.1c0,-0.6 -0.4,-1 -1.3,-1.3c-1.3,-0.5 -1.9,-1.2 -1.9,-2c0,-1.2 0.9,-2.1 2.5,-2.1c0.7,0 1.4,0.2 1.8,0.4l-0.3,1c-0.3,-0.2 -0.8,-0.4 -1.5,-0.4c-0.8,0 -1.2,0.4 -1.2,1c0,0.6 0.4,0.9 1.4,1.2c1.3,0.5 1.9,1.1 1.9,2.2c0,1.3 -1,2.2 -2.7,2.2c-0.8,0 -1.5,-0.2 -2,-0.5l0.2,-1.1z"/>
    <path id="svg_128" d="m119.9,11.6c0,1.8 1.2,2.5 2.5,2.5c0.9,0 1.5,-0.2 2,-0.4l0.2,0.9c-0.5,0.2 -1.3,0.5 -2.4,0.5c-2.2,0 -3.6,-1.5 -3.6,-3.7s1.3,-3.9 3.4,-3.9c2.4,0 3,2.1 3,3.4c0,0.3 0,0.5 0,0.6l-5.1,0l0,0.1zm3.8,-0.9c0,-0.8 -0.3,-2.1 -1.8,-2.1c-1.3,0 -1.9,1.2 -2,2.1l3.8,0zm0.3,-6.1l-1.8,2.1l-0.9,0l1.3,-2.1l1.4,0z"/>
    <path id="svg_129" d="m126.6,13.6c0.4,0.3 1.1,0.5 1.7,0.5c1,0 1.4,-0.5 1.4,-1.1c0,-0.6 -0.4,-1 -1.3,-1.3c-1.3,-0.5 -1.9,-1.2 -1.9,-2c0,-1.2 0.9,-2.1 2.5,-2.1c0.7,0 1.4,0.2 1.8,0.4l-0.3,1c-0.3,-0.2 -0.8,-0.4 -1.5,-0.4c-0.8,0 -1.2,0.4 -1.2,1c0,0.6 0.4,0.9 1.4,1.2c1.3,0.5 1.9,1.1 1.9,2.2c0,1.3 -1,2.2 -2.7,2.2c-0.8,0 -1.5,-0.2 -2,-0.5l0.2,-1.1z"/>
    <path id="svg_130" d="m136.2,4.9l1.3,0l0,4.9l0,0c0.3,-0.4 0.5,-0.7 0.8,-1.1l3.1,-3.8l1.6,0l-3.6,4.3l3.9,5.8l-1.5,0l-3.3,-4.9l-1,1.1l0,3.8l-1.3,0l0,-10.1z"/>
    <path id="svg_131" d="m150.9,11.3c0,2.7 -1.9,3.8 -3.6,3.8c-2,0 -3.5,-1.4 -3.5,-3.7c0,-2.4 1.6,-3.8 3.6,-3.8c2.1,0 3.5,1.5 3.5,3.7zm-5.7,0.1c0,1.6 0.9,2.8 2.2,2.8c1.3,0 2.2,-1.2 2.2,-2.8c0,-1.2 -0.6,-2.8 -2.2,-2.8c-1.5,0 -2.2,1.4 -2.2,2.8z"/>
    <path id="svg_132" d="m152.7,9.7c0,-0.7 0,-1.4 -0.1,-2l1.1,0l0.1,1.2l0,0c0.4,-0.7 1.1,-1.3 2.3,-1.3c1,0 1.7,0.6 2,1.4l0,0c0.2,-0.4 0.5,-0.7 0.8,-0.9c0.4,-0.3 0.9,-0.5 1.6,-0.5c1,0 2.4,0.6 2.4,3.1l0,4.3l-1.3,0l0,-4.1c0,-1.4 -0.5,-2.2 -1.6,-2.2c-0.7,0 -1.3,0.6 -1.6,1.2c-0.1,0.2 -0.1,0.4 -0.1,0.7l0,4.4l-1.3,0l0,-4.3c0,-1.1 -0.5,-2 -1.5,-2c-0.8,0 -1.4,0.7 -1.6,1.3c-0.1,0.2 -0.1,0.4 -0.1,0.6l0,4.4l-1.3,0l0,-5.3l0.2,0z"/>
    <path id="svg_133" d="m165.3,9.7c0,-0.7 0,-1.4 -0.1,-2l1.1,0l0.1,1.2l0,0c0.4,-0.7 1.1,-1.3 2.3,-1.3c1,0 1.7,0.6 2,1.4l0,0c0.2,-0.4 0.5,-0.7 0.8,-0.9c0.4,-0.3 0.9,-0.5 1.6,-0.5c1,0 2.4,0.6 2.4,3.1l0,4.3l-1.3,0l0,-4.1c0,-1.4 -0.5,-2.2 -1.6,-2.2c-0.7,0 -1.3,0.6 -1.6,1.2c-0.1,0.2 -0.1,0.4 -0.1,0.7l0,4.4l-1.3,0l0,-4.3c0,-1.1 -0.5,-2 -1.5,-2c-0.8,0 -1.4,0.7 -1.6,1.3c-0.1,0.2 -0.1,0.4 -0.1,0.6l0,4.4l-1.3,0l0,-5.3l0.2,0z"/>
    <path id="svg_134" d="m184,13c0,0.7 0,1.4 0.1,2l-1.2,0l-0.1,-1.2l0,0c-0.3,0.6 -1.1,1.3 -2.4,1.3c-1.1,0 -2.5,-0.6 -2.5,-3.2l0,-4.1l1.3,0l0,4c0,1.4 0.4,2.3 1.6,2.3c0.9,0 1.5,-0.6 1.7,-1.2c0.1,-0.2 0.1,-0.4 0.1,-0.7l0,-4.4l1.3,0l0,5.2l0.1,0z"/>
    <path id="svg_135" d="m186.3,9.7c0,-0.7 0,-1.4 -0.1,-2l1.2,0l0.1,1.2l0,0c0.4,-0.7 1.2,-1.4 2.4,-1.4c1,0 2.6,0.6 2.6,3.1l0,4.4l-1.3,0l0,-4.2c0,-1.2 -0.4,-2.1 -1.7,-2.1c-0.9,0 -1.5,0.6 -1.8,1.3c-0.1,0.2 -0.1,0.4 -0.1,0.6l0,4.4l-1.3,0l0,-5.3z"/>
    <path id="svg_136" d="m196.2,5.7c0,0.4 -0.3,0.8 -0.8,0.8c-0.5,0 -0.8,-0.4 -0.8,-0.8c0,-0.5 0.3,-0.8 0.8,-0.8c0.5,0 0.8,0.4 0.8,0.8zm-1.4,9.3l0,-7.2l1.3,0l0,7.2l-1.3,0z"/>
    <path id="svg_137" d="m199.7,11.1l0,0c0.2,-0.3 0.5,-0.6 0.7,-0.8l2.1,-2.5l1.6,0l-2.8,3l3.2,4.3l-1.6,0l-2.5,-3.5l-0.7,0.7l0,2.7l-1.3,0l0,-10.6l1.3,0l0,6.7z"/>
    <path id="svg_138" d="m210.9,13.2c0,0.6 0,1.2 0.1,1.7l-1.2,0l-0.1,-0.9l0,0c-0.4,0.6 -1.2,1.1 -2.2,1.1c-1.5,0 -2.2,-1 -2.2,-2.1c0,-1.7 1.6,-2.7 4.3,-2.7l0,-0.1c0,-0.6 -0.2,-1.7 -1.6,-1.7c-0.7,0 -1.4,0.2 -1.9,0.5l-0.3,-0.9c0.6,-0.4 1.5,-0.6 2.4,-0.6c2.2,0 2.7,1.5 2.7,3l0,2.7zm-1.3,-1.9c-1.4,0 -3.1,0.2 -3.1,1.6c0,0.9 0.6,1.3 1.2,1.3c0.9,0 1.5,-0.6 1.7,-1.2c0,-0.1 0.1,-0.3 0.1,-0.4l0,-1.3l0.1,0zm0.7,-6.7l-1.8,2.1l-0.9,0l1.3,-2.1l1.4,0z"/>
    <path id="svg_139" d="m218.3,14.7c-0.3,0.2 -1.1,0.4 -2.1,0.4c-2.2,0 -3.6,-1.5 -3.6,-3.7c0,-2.2 1.5,-3.8 3.9,-3.8c0.8,0 1.5,0.2 1.8,0.4l-0.3,1c-0.3,-0.2 -0.8,-0.3 -1.5,-0.3c-1.7,0 -2.6,1.2 -2.6,2.7c0,1.7 1.1,2.7 2.5,2.7c0.7,0 1.2,-0.2 1.6,-0.4l0.3,1z"/>
    <path id="svg_140" d="m221.5,5.7c0,0.4 -0.3,0.8 -0.8,0.8c-0.5,0 -0.8,-0.4 -0.8,-0.8c0,-0.5 0.3,-0.8 0.8,-0.8c0.4,0 0.8,0.4 0.8,0.8zm-1.5,9.3l0,-7.2l1.3,0l0,7.2l-1.3,0z"/>
    <path id="svg_141" d="m230.2,11.3c0,2.7 -1.9,3.8 -3.6,3.8c-2,0 -3.5,-1.4 -3.5,-3.7c0,-2.4 1.6,-3.8 3.6,-3.8c2.1,0 3.5,1.5 3.5,3.7zm-5.8,0.1c0,1.6 0.9,2.8 2.2,2.8c1.3,0 2.2,-1.2 2.2,-2.8c0,-1.2 -0.6,-2.8 -2.2,-2.8c-1.5,0 -2.2,1.4 -2.2,2.8zm4.2,-6.8l-1.8,2.1l-0.9,0l1.3,-2.1l1.4,0z"/>
    <path id="svg_142" d="m231.8,13.6c0.4,0.3 1.1,0.5 1.7,0.5c1,0 1.4,-0.5 1.4,-1.1c0,-0.6 -0.4,-1 -1.3,-1.3c-1.3,-0.5 -1.9,-1.2 -1.9,-2c0,-1.2 0.9,-2.1 2.5,-2.1c0.7,0 1.4,0.2 1.8,0.4l-0.3,1c-0.3,-0.2 -0.8,-0.4 -1.5,-0.4c-0.8,0 -1.2,0.4 -1.2,1c0,0.6 0.4,0.9 1.4,1.2c1.3,0.5 1.9,1.1 1.9,2.2c0,1.3 -1,2.2 -2.7,2.2c-0.8,0 -1.5,-0.2 -2,-0.5l0.2,-1.1z"/>
    <path id="svg_143" d="m241.4,4.9l1.3,0l0,4.9l0,0c0.3,-0.4 0.5,-0.7 0.8,-1.1l3.1,-3.8l1.6,0l-3.6,4.3l3.9,5.8l-1.5,0l-3.3,-4.9l-1,1.1l0,3.8l-1.3,0l0,-10.1z"/>
    <path id="svg_144" d="m256.1,11.3c0,2.7 -1.9,3.8 -3.6,3.8c-2,0 -3.5,-1.4 -3.5,-3.7c0,-2.4 1.6,-3.8 3.6,-3.8c2.1,0 3.5,1.5 3.5,3.7zm-5.7,0.1c0,1.6 0.9,2.8 2.2,2.8c1.3,0 2.2,-1.2 2.2,-2.8c0,-1.2 -0.6,-2.8 -2.2,-2.8c-1.5,0 -2.2,1.4 -2.2,2.8zm0.8,-4.9c-0.4,0 -0.7,-0.4 -0.7,-0.8c0,-0.4 0.3,-0.8 0.8,-0.8c0.4,0 0.7,0.3 0.7,0.8c0,0.4 -0.3,0.8 -0.8,0.8l0,0zm2.8,0c-0.4,0 -0.7,-0.4 -0.7,-0.8c0,-0.4 0.3,-0.8 0.7,-0.8c0.4,0 0.7,0.3 0.7,0.8c0,0.4 -0.3,0.8 -0.7,0.8l0,0z"/>
    <path id="svg_145" d="m257,14.2l3.3,-4.3c0.3,-0.4 0.6,-0.7 0.9,-1.1l0,0l-3.9,0l0,-1l5.5,0l0,0.8l-3.2,4.2c-0.3,0.4 -0.6,0.8 -0.9,1.1l0,0l4.2,0l0,1l-5.9,0l0,-0.7z"/>
    <path id="svg_146" d="m264.4,10.1c0,-0.9 0,-1.7 -0.1,-2.4l1.2,0l0.1,1.2l0,0c0.5,-0.9 1.4,-1.4 2.6,-1.4c1.7,0 3.1,1.5 3.1,3.7c0,2.6 -1.6,3.9 -3.3,3.9c-1,0 -1.8,-0.4 -2.2,-1.1l0,0l0,3.9l-1.3,0l0,-7.8l-0.1,0zm1.3,1.9c0,0.2 0,0.4 0.1,0.5c0.2,0.9 1,1.5 2,1.5c1.4,0 2.2,-1.1 2.2,-2.8c0,-1.4 -0.8,-2.7 -2.1,-2.7c-0.9,0 -1.7,0.6 -2,1.6c0,0.2 -0.1,0.4 -0.1,0.5l0,1.4l-0.1,0z"/>
    <path id="svg_147" d="m279.6,11.3c0,2.7 -1.9,3.8 -3.6,3.8c-2,0 -3.5,-1.4 -3.5,-3.7c0,-2.4 1.6,-3.8 3.6,-3.8c2.1,0 3.5,1.5 3.5,3.7zm-5.8,0.1c0,1.6 0.9,2.8 2.2,2.8c1.3,0 2.2,-1.2 2.2,-2.8c0,-1.2 -0.6,-2.8 -2.2,-2.8c-1.5,0 -2.2,1.4 -2.2,2.8z"/>
    <path id="svg_148" d="m281.4,9.7c0,-0.7 0,-1.4 -0.1,-2l1.2,0l0.1,1.2l0,0c0.4,-0.7 1.2,-1.4 2.4,-1.4c1,0 2.6,0.6 2.6,3.1l0,4.4l-1.3,0l0,-4.2c0,-1.2 -0.4,-2.1 -1.7,-2.1c-0.9,0 -1.5,0.6 -1.8,1.3c-0.1,0.2 -0.1,0.4 -0.1,0.6l0,4.4l-1.3,0l0,-5.3z"/>
    <path id="svg_149" d="m291.3,6l0,1.7l1.9,0l0,1l-1.9,0l0,3.9c0,0.9 0.3,1.4 1,1.4c0.4,0 0.6,0 0.8,-0.1l0.1,1c-0.3,0.1 -0.7,0.2 -1.2,0.2c-0.6,0 -1.1,-0.2 -1.4,-0.6c-0.4,-0.4 -0.5,-1 -0.5,-1.9l0,-3.9l-1.1,0l0,-1l1.1,0l0,-1.3l1.2,-0.4z"/>
    <path id="svg_150" d="m299.8,11.8l-1,3.2l-1.3,0l3.4,-10.1l1.6,0l3.4,10.1l-1.4,0l-1.1,-3.2l-3.6,0zm3.3,-1l-1,-2.9c-0.2,-0.7 -0.4,-1.3 -0.5,-1.8l0,0c-0.1,0.6 -0.3,1.2 -0.5,1.8l-1,2.9l3,0z"/>
    <path id="svg_151" d="m307.4,4.4l1.3,0l0,10.6l-1.3,0l0,-10.6z"/>
    <path id="svg_152" d="m316.1,13.2c0,0.6 0,1.2 0.1,1.7l-1.2,0l-0.1,-0.9l0,0c-0.4,0.6 -1.2,1.1 -2.2,1.1c-1.5,0 -2.2,-1 -2.2,-2.1c0,-1.7 1.6,-2.7 4.3,-2.7l0,-0.1c0,-0.6 -0.2,-1.7 -1.6,-1.7c-0.7,0 -1.4,0.2 -1.9,0.5l-0.3,-0.9c0.6,-0.4 1.5,-0.6 2.4,-0.6c2.2,0 2.7,1.5 2.7,3l0,2.7zm-1.2,-1.9c-1.4,0 -3.1,0.2 -3.1,1.6c0,0.9 0.6,1.3 1.2,1.3c0.9,0 1.5,-0.6 1.7,-1.2c0,-0.1 0.1,-0.3 0.1,-0.4l0,-1.3l0.1,0z"/>
    <path id="svg_153" d="m318.4,10.1c0,-0.9 0,-1.7 -0.1,-2.4l1.2,0l0.1,1.2l0,0c0.5,-0.9 1.4,-1.4 2.6,-1.4c1.7,0 3.1,1.5 3.1,3.7c0,2.6 -1.6,3.9 -3.3,3.9c-1,0 -1.8,-0.4 -2.2,-1.1l0,0l0,3.9l-1.3,0l0,-7.8l-0.1,0zm1.3,1.9c0,0.2 0,0.4 0.1,0.5c0.2,0.9 1,1.5 2,1.5c1.4,0 2.2,-1.1 2.2,-2.8c0,-1.4 -0.8,-2.7 -2.1,-2.7c-0.9,0 -1.7,0.6 -2,1.6c0,0.2 -0.1,0.4 -0.1,0.5l0,1.4l-0.1,0z"/>
    <path id="svg_154" d="m329.7,4.6l-1.8,2.1l-0.9,0l1.3,-2.1l1.4,0zm-2.6,10.4l0,-7.2l1.3,0l0,7.2l-1.3,0z"/>
    <path id="svg_155" d="m332.3,6l0,1.7l1.9,0l0,1l-1.9,0l0,3.9c0,0.9 0.3,1.4 1,1.4c0.4,0 0.6,0 0.8,-0.1l0.1,1c-0.3,0.1 -0.7,0.2 -1.2,0.2c-0.6,0 -1.1,-0.2 -1.4,-0.6c-0.4,-0.4 -0.5,-1 -0.5,-1.9l0,-3.9l-1.1,0l0,-1l1.1,0l0,-1.3l1.2,-0.4z"/>
    <path id="svg_156" d="m336.4,7.8l1.4,4.1c0.2,0.7 0.4,1.3 0.6,1.9l0,0c0.2,-0.6 0.4,-1.2 0.6,-1.9l1.4,-4.1l1.4,0l-2.8,7.2l-1.3,0l-2.7,-7.2l1.4,0z"/>
    <path id="svg_157" d="m348.3,13.2c0,0.6 0,1.2 0.1,1.7l-1.2,0l-0.1,-0.9l0,0c-0.4,0.6 -1.2,1.1 -2.2,1.1c-1.5,0 -2.2,-1 -2.2,-2.1c0,-1.7 1.6,-2.7 4.3,-2.7l0,-0.1c0,-0.6 -0.2,-1.7 -1.6,-1.7c-0.7,0 -1.4,0.2 -1.9,0.5l-0.3,-0.9c0.6,-0.4 1.5,-0.6 2.4,-0.6c2.2,0 2.7,1.5 2.7,3l0,2.7zm-1.3,-1.9c-1.4,0 -3.1,0.2 -3.1,1.6c0,0.9 0.6,1.3 1.2,1.3c0.9,0 1.5,-0.6 1.7,-1.2c0,-0.1 0.1,-0.3 0.1,-0.4l0,-1.3l0.1,0zm0.7,-6.7l-1.8,2.1l-0.9,0l1.3,-2.1l1.4,0z"/>
    <path id="svg_158" d="m350.5,9.7c0,-0.7 0,-1.4 -0.1,-2l1.2,0l0.1,1.2l0,0c0.4,-0.7 1.2,-1.4 2.4,-1.4c1,0 2.6,0.6 2.6,3.1l0,4.4l-1.3,0l0,-4.2c0,-1.2 -0.4,-2.1 -1.7,-2.1c-0.9,0 -1.5,0.6 -1.8,1.3c-0.1,0.2 -0.1,0.4 -0.1,0.6l0,4.4l-1.3,0l0,-5.3z"/>
    <path id="svg_159" d="m359.3,7.8l1.6,4.3c0.2,0.5 0.3,1 0.5,1.5l0,0c0.1,-0.4 0.3,-1 0.5,-1.5l1.4,-4.2l1.4,0l-2,5.1c-0.9,2.5 -1.6,3.7 -2.5,4.5c-0.6,0.6 -1.3,0.8 -1.6,0.9l-0.3,-1.1c0.3,-0.1 0.8,-0.3 1.1,-0.6c0.4,-0.3 0.8,-0.8 1.1,-1.5c0.1,-0.1 0.1,-0.2 0.1,-0.3c0,-0.1 0,-0.2 -0.1,-0.3l-2.7,-6.7l1.5,0l0,-0.1z"/>
    <path id="svg_160" d="m63.6,39.5c-0.5,0.2 -1.4,0.5 -2.7,0.5c-2.8,0 -5,-1.8 -5,-5.1c0,-3.1 2.1,-5.3 5.3,-5.3c1.3,0 2,0.3 2.4,0.4l-0.3,1.1c-0.5,-0.2 -1.2,-0.4 -2,-0.4c-2.4,0 -3.9,1.5 -3.9,4.1c0,2.5 1.4,4 3.9,4c0.8,0 1.6,-0.2 2.1,-0.4l0.2,1.1z"/>
    <path id="svg_161" d="m65.9,36.5c0,1.8 1.2,2.5 2.5,2.5c0.9,0 1.5,-0.2 2,-0.4l0.2,0.9c-0.5,0.2 -1.3,0.5 -2.4,0.5c-2.2,0 -3.6,-1.5 -3.6,-3.7c0,-2.2 1.3,-3.9 3.4,-3.9c2.4,0 3,2.1 3,3.4c0,0.3 0,0.5 0,0.6l-5.1,0l0,0.1zm3.8,-1c0,-0.8 -0.3,-2.1 -1.8,-2.1c-1.3,0 -1.9,1.2 -2,2.1l3.8,0z"/>
    <path id="svg_162" d="m72.8,34.6c0,-0.7 0,-1.4 -0.1,-2l1.2,0l0.1,1.2l0,0c0.4,-0.7 1.2,-1.4 2.4,-1.4c1,0 2.6,0.6 2.6,3.1l0,4.3l-1.3,0l0,-4.2c0,-1.2 -0.4,-2.1 -1.7,-2.1c-0.9,0 -1.5,0.6 -1.8,1.3c-0.1,0.2 -0.1,0.4 -0.1,0.6l0,4.3l-1.3,0l0,-5.1z"/>
    <path id="svg_163" d="m82.7,30.9l0,1.7l1.9,0l0,1l-1.9,0l0,3.9c0,0.9 0.3,1.4 1,1.4c0.4,0 0.6,0 0.8,-0.1l0.1,1c-0.3,0.1 -0.7,0.2 -1.2,0.2c-0.6,0 -1.1,-0.2 -1.4,-0.6c-0.4,-0.4 -0.5,-1 -0.5,-1.9l0,-3.9l-1.1,0l0,-1l1.1,0l0,-1.3l1.2,-0.4z"/>
    <path id="svg_164" d="m86.9,36.5c0,1.8 1.2,2.5 2.5,2.5c0.9,0 1.5,-0.2 2,-0.4l0.2,0.9c-0.5,0.2 -1.3,0.5 -2.4,0.5c-2.2,0 -3.6,-1.5 -3.6,-3.7c0,-2.2 1.3,-3.9 3.4,-3.9c2.4,0 3,2.1 3,3.4c0,0.3 0,0.5 0,0.6l-5.1,0l0,0.1zm3.8,-1c0,-0.8 -0.3,-2.1 -1.8,-2.1c-1.3,0 -1.9,1.2 -2,2.1l3.8,0z"/>
    <path id="svg_165" d="m93.8,34.9c0,-0.9 0,-1.6 -0.1,-2.3l1.1,0l0,1.4l0.2,0c0.3,-1 1.1,-1.6 2,-1.6c0.1,0 0.3,0 0.4,0l0,1.2c-0.1,0 -0.3,0 -0.4,0c-0.9,0 -1.6,0.7 -1.8,1.7c0,0.2 -0.1,0.4 -0.1,0.6l0,3.9l-1.3,0l0,-4.9z"/>
    <path id="svg_166" d="m102.2,39.9l0,-6.2l-1,0l0,-1l1,0l0,-0.3c0,-1 0.2,-1.9 0.8,-2.5c0.5,-0.5 1.1,-0.7 1.8,-0.7c0.5,0 0.9,0.1 1.1,0.2l-0.2,1c-0.2,-0.1 -0.5,-0.2 -0.8,-0.2c-1.1,0 -1.4,1 -1.4,2.1l0,0.4l1.7,0l0,1l-1.7,0l0,6.2l-1.3,0z"/>
    <path id="svg_167" d="m113,36.2c0,2.7 -1.9,3.8 -3.6,3.8c-2,0 -3.5,-1.4 -3.5,-3.7c0,-2.4 1.6,-3.8 3.6,-3.8c2.1,0 3.5,1.5 3.5,3.7zm-5.8,0.1c0,1.6 0.9,2.8 2.2,2.8c1.3,0 2.2,-1.2 2.2,-2.8c0,-1.2 -0.6,-2.8 -2.2,-2.8c-1.5,0 -2.2,1.4 -2.2,2.8z"/>
    <path id="svg_168" d="m114.8,34.9c0,-0.9 0,-1.6 -0.1,-2.3l1.1,0l0,1.4l0.1,0c0.3,-1 1.1,-1.6 2,-1.6c0.1,0 0.3,0 0.4,0l0,1.2c-0.1,0 -0.3,0 -0.4,0c-0.9,0 -1.6,0.7 -1.8,1.7c0,0.2 -0.1,0.4 -0.1,0.6l0,3.9l-1.3,0l0,-4.9l0.1,0z"/>
    <path id="svg_169" d="m130.2,39.5c-0.5,0.2 -1.4,0.5 -2.7,0.5c-2.8,0 -5,-1.8 -5,-5.1c0,-3.1 2.1,-5.3 5.3,-5.3c1.3,0 2,0.3 2.4,0.4l-0.3,1.1c-0.5,-0.2 -1.2,-0.4 -2,-0.4c-2.4,0 -3.9,1.5 -3.9,4.1c0,2.5 1.4,4 3.9,4c0.8,0 1.6,-0.2 2.1,-0.4l0.2,1.1z"/>
    <path id="svg_170" d="m137.8,37.9c0,0.7 0,1.4 0.1,2l-1.2,0l-0.1,-1.2l0,0c-0.3,0.6 -1.1,1.3 -2.4,1.3c-1.1,0 -2.5,-0.6 -2.5,-3.2l0,-4.2l1.3,0l0,4c0,1.4 0.4,2.3 1.6,2.3c0.9,0 1.5,-0.6 1.7,-1.2c0.1,-0.2 0.1,-0.4 0.1,-0.7l0,-4.4l1.3,0l0,5.3l0.1,0z"/>
    <path id="svg_171" d="m140.1,29.3l1.3,0l0,10.6l-1.3,0l0,-10.6z"/>
    <path id="svg_172" d="m145.4,30.9l0,1.7l1.9,0l0,1l-1.9,0l0,3.9c0,0.9 0.3,1.4 1,1.4c0.4,0 0.6,0 0.8,-0.1l0.1,1c-0.3,0.1 -0.7,0.2 -1.2,0.2c-0.6,0 -1.1,-0.2 -1.4,-0.6c-0.4,-0.4 -0.5,-1 -0.5,-1.9l0,-3.9l-1.2,0l0,-1l1.1,0l0,-1.3l1.3,-0.4z"/>
    <path id="svg_173" d="m154.9,37.9c0,0.7 0,1.4 0.1,2l-1.2,0l-0.1,-1.2l0,0c-0.3,0.6 -1.1,1.3 -2.4,1.3c-1.1,0 -2.5,-0.6 -2.5,-3.2l0,-4.2l1.3,0l0,4c0,1.4 0.4,2.3 1.6,2.3c0.9,0 1.5,-0.6 1.7,-1.2c0.1,-0.2 0.1,-0.4 0.1,-0.7l0,-4.4l1.3,0l0,5.3l0.1,0z"/>
    <path id="svg_174" d="m157.3,34.9c0,-0.9 0,-1.6 -0.1,-2.3l1.1,0l0,1.4l0.1,0c0.3,-1 1.1,-1.6 2,-1.6c0.1,0 0.3,0 0.4,0l0,1.2c-0.1,0 -0.3,0 -0.4,0c-0.9,0 -1.6,0.7 -1.8,1.7c0,0.2 -0.1,0.4 -0.1,0.6l0,3.9l-1.3,0l0,-4.9l0.1,0z"/>
    <path id="svg_175" d="m162.9,36.5c0,1.8 1.2,2.5 2.5,2.5c0.9,0 1.5,-0.2 2,-0.4l0.2,0.9c-0.5,0.2 -1.3,0.5 -2.4,0.5c-2.2,0 -3.6,-1.5 -3.6,-3.7c0,-2.2 1.3,-3.9 3.4,-3.9c2.4,0 3,2.1 3,3.4c0,0.3 0,0.5 0,0.6l-5.1,0l0,0.1zm3.8,-1c0,-0.8 -0.3,-2.1 -1.8,-2.1c-1.3,0 -1.9,1.2 -2,2.1l3.8,0z"/>
    <path id="svg_176" d="m179.4,39.9c-0.3,-0.3 -0.6,-0.6 -0.9,-1c-0.9,0.8 -1.8,1.1 -2.9,1.1c-2,0 -3.1,-1.3 -3.1,-2.8c0,-1.4 0.8,-2.3 2,-2.9l0,0c-0.5,-0.7 -0.8,-1.4 -0.8,-2.1c0,-1.2 0.9,-2.5 2.6,-2.5c1.3,0 2.2,0.8 2.2,2.1c0,1.1 -0.6,1.9 -2.2,2.7l0,0c0.9,1 1.8,2.1 2.4,2.8c0.5,-0.7 0.8,-1.7 1,-2.9l1.2,0c-0.3,1.6 -0.7,2.8 -1.4,3.7c0.5,0.6 1.1,1.1 1.7,1.8l-1.8,0zm-3.6,-0.9c0.9,0 1.6,-0.4 2.1,-0.9c-0.6,-0.7 -1.7,-1.9 -2.8,-3.2c-0.5,0.3 -1.3,1 -1.3,2c-0.1,1.3 0.8,2.1 2,2.1l0,0zm0.2,-8.5c-0.8,0 -1.3,0.7 -1.3,1.5c0,0.7 0.3,1.3 0.8,1.8c1,-0.6 1.7,-1.1 1.7,-2c0,-0.6 -0.3,-1.3 -1.2,-1.3l0,0z"/>
    <path id="svg_177" d="m192.7,39.5c-0.5,0.2 -1.4,0.5 -2.7,0.5c-2.8,0 -5,-1.8 -5,-5.1c0,-3.1 2.1,-5.3 5.3,-5.3c1.3,0 2,0.3 2.4,0.4l-0.3,1.1c-0.5,-0.2 -1.2,-0.4 -2,-0.4c-2.4,0 -3.9,1.5 -3.9,4.1c0,2.5 1.4,4 3.9,4c0.8,0 1.6,-0.2 2.1,-0.4l0.2,1.1z"/>
    <path id="svg_178" d="m200.8,36.2c0,2.7 -1.9,3.8 -3.6,3.8c-2,0 -3.5,-1.4 -3.5,-3.7c0,-2.4 1.6,-3.8 3.6,-3.8c2.1,0 3.5,1.5 3.5,3.7zm-5.8,0.1c0,1.6 0.9,2.8 2.2,2.8c1.3,0 2.2,-1.2 2.2,-2.8c0,-1.2 -0.6,-2.8 -2.2,-2.8c-1.5,0 -2.2,1.4 -2.2,2.8z"/>
    <path id="svg_179" d="m202.6,34.6c0,-0.7 0,-1.4 -0.1,-2l1.1,0l0.1,1.2l0,0c0.4,-0.7 1.1,-1.3 2.3,-1.3c1,0 1.7,0.6 2,1.4l0,0c0.2,-0.4 0.5,-0.7 0.8,-0.9c0.4,-0.3 0.9,-0.5 1.6,-0.5c1,0 2.4,0.6 2.4,3.1l0,4.3l-1.3,0l0,-4.1c0,-1.4 -0.5,-2.2 -1.6,-2.2c-0.7,0 -1.3,0.6 -1.6,1.2c-0.1,0.2 -0.1,0.4 -0.1,0.7l0,4.5l-1.3,0l0,-4.3c0,-1.1 -0.5,-2 -1.5,-2c-0.8,0 -1.4,0.7 -1.6,1.3c-0.1,0.2 -0.1,0.4 -0.1,0.6l0,4.4l-1.3,0l0,-5.4l0.2,0z"/>
    <path id="svg_180" d="m215.2,34.6c0,-0.7 0,-1.4 -0.1,-2l1.1,0l0.1,1.2l0,0c0.4,-0.7 1.1,-1.3 2.3,-1.3c1,0 1.7,0.6 2,1.4l0,0c0.2,-0.4 0.5,-0.7 0.8,-0.9c0.4,-0.3 0.9,-0.5 1.6,-0.5c1,0 2.4,0.6 2.4,3.1l0,4.3l-1.3,0l0,-4.1c0,-1.4 -0.5,-2.2 -1.6,-2.2c-0.7,0 -1.3,0.6 -1.6,1.2c-0.1,0.2 -0.1,0.4 -0.1,0.7l0,4.5l-1.3,0l0,-4.3c0,-1.1 -0.5,-2 -1.5,-2c-0.8,0 -1.4,0.7 -1.6,1.3c-0.1,0.2 -0.1,0.4 -0.1,0.6l0,4.4l-1.3,0l0,-5.4l0.2,0z"/>
    <path id="svg_181" d="m233.8,37.9c0,0.7 0,1.4 0.1,2l-1.2,0l-0.1,-1.2l0,0c-0.3,0.6 -1.1,1.3 -2.4,1.3c-1.1,0 -2.5,-0.6 -2.5,-3.2l0,-4.2l1.3,0l0,4c0,1.4 0.4,2.3 1.6,2.3c0.9,0 1.5,-0.6 1.7,-1.2c0.1,-0.2 0.1,-0.4 0.1,-0.7l0,-4.4l1.3,0l0,5.3l0.1,0z"/>
    <path id="svg_182" d="m236.2,34.6c0,-0.7 0,-1.4 -0.1,-2l1.2,0l0.1,1.2l0,0c0.4,-0.7 1.2,-1.4 2.4,-1.4c1,0 2.6,0.6 2.6,3.1l0,4.3l-1.4,0l0,-4.2c0,-1.2 -0.4,-2.1 -1.7,-2.1c-0.9,0 -1.5,0.6 -1.8,1.3c-0.1,0.2 -0.1,0.4 -0.1,0.6l0,4.3l-1.3,0l0,-5.1l0.1,0z"/>
    <path id="svg_183" d="m246.1,30.6c0,0.4 -0.3,0.8 -0.8,0.8c-0.5,0 -0.8,-0.4 -0.8,-0.8c0,-0.5 0.3,-0.8 0.8,-0.8c0.4,0 0.8,0.3 0.8,0.8zm-1.5,9.3l0,-7.2l1.3,0l0,7.2l-1.3,0z"/>
    <path id="svg_184" d="m253.4,39.6c-0.3,0.2 -1.1,0.4 -2.1,0.4c-2.2,0 -3.6,-1.5 -3.6,-3.7c0,-2.2 1.5,-3.8 3.9,-3.8c0.8,0 1.5,0.2 1.8,0.4l-0.3,1c-0.3,-0.2 -0.8,-0.3 -1.5,-0.3c-1.7,0 -2.6,1.2 -2.6,2.7c0,1.7 1.1,2.7 2.5,2.7c0.7,0 1.2,-0.2 1.6,-0.4l0.3,1z"/>
    <path id="svg_185" d="m260.1,38.1c0,0.6 0,1.2 0.1,1.7l-1.2,0l0,-0.8l0,0c-0.4,0.6 -1.2,1.1 -2.2,1.1c-1.5,0 -2.2,-1 -2.2,-2.1c0,-1.7 1.6,-2.7 4.3,-2.7l0,-0.1c0,-0.6 -0.2,-1.7 -1.6,-1.7c-0.7,0 -1.4,0.2 -1.9,0.5l-0.3,-0.9c0.6,-0.4 1.5,-0.6 2.4,-0.6c2.2,0 2.7,1.5 2.7,3l0,2.6l-0.1,0zm-1.2,-1.9c-1.4,0 -3.1,0.2 -3.1,1.6c0,0.9 0.6,1.3 1.2,1.3c0.9,0 1.5,-0.6 1.7,-1.2c0,-0.1 0.1,-0.3 0.1,-0.4l0,-1.3l0.1,0z"/>
    <path id="svg_186" d="m263.9,30.9l0,1.7l1.9,0l0,1l-1.9,0l0,3.9c0,0.9 0.3,1.4 1,1.4c0.4,0 0.6,0 0.8,-0.1l0.1,1c-0.3,0.1 -0.7,0.2 -1.2,0.2c-0.6,0 -1.1,-0.2 -1.4,-0.6c-0.4,-0.4 -0.5,-1 -0.5,-1.9l0,-3.9l-1.1,0l0,-1l1.1,0l0,-1.3l1.2,-0.4z"/>
    <path id="svg_187" d="m268.9,30.6c0,0.4 -0.3,0.8 -0.8,0.8c-0.5,0 -0.8,-0.4 -0.8,-0.8c0,-0.5 0.3,-0.8 0.8,-0.8c0.5,0 0.8,0.3 0.8,0.8zm-1.5,9.3l0,-7.2l1.3,0l0,7.2l-1.3,0z"/>
    <path id="svg_188" d="m277.6,36.2c0,2.7 -1.8,3.8 -3.6,3.8c-2,0 -3.5,-1.4 -3.5,-3.7c0,-2.4 1.6,-3.8 3.6,-3.8c2.1,0 3.5,1.5 3.5,3.7zm-5.7,0.1c0,1.6 0.9,2.8 2.2,2.8c1.3,0 2.2,-1.2 2.2,-2.8c0,-1.2 -0.6,-2.8 -2.2,-2.8c-1.5,0 -2.2,1.4 -2.2,2.8z"/>
    <path id="svg_189" d="m279.4,34.6c0,-0.7 0,-1.4 -0.1,-2l1.2,0l0.1,1.2l0,0c0.4,-0.7 1.2,-1.4 2.4,-1.4c1,0 2.6,0.6 2.6,3.1l0,4.3l-1.3,0l0,-4.2c0,-1.2 -0.4,-2.1 -1.7,-2.1c-0.9,0 -1.5,0.6 -1.8,1.3c-0.1,0.2 -0.1,0.4 -0.1,0.6l0,4.3l-1.3,0l0,-5.1z"/>
    <path id="svg_190" d="m291.2,29.8l5.4,0l0,1.1l-4.1,0l0,3.3l3.8,0l0,1.1l-3.8,0l0,4.6l-1.3,0l0,-10.1z"/>
    <path id="svg_191" d="m304.7,36.2c0,2.7 -1.8,3.8 -3.6,3.8c-2,0 -3.5,-1.4 -3.5,-3.7c0,-2.4 1.6,-3.8 3.6,-3.8c2.1,0 3.5,1.5 3.5,3.7zm-5.8,0.1c0,1.6 0.9,2.8 2.2,2.8c1.3,0 2.2,-1.2 2.2,-2.8c0,-1.2 -0.6,-2.8 -2.2,-2.8c-1.5,0 -2.2,1.4 -2.2,2.8z"/>
    <path id="svg_192" d="m312.5,37.9c0,0.7 0,1.4 0.1,2l-1.2,0l-0.1,-1.2l0,0c-0.3,0.6 -1.1,1.3 -2.4,1.3c-1.1,0 -2.5,-0.6 -2.5,-3.2l0,-4.2l1.3,0l0,4c0,1.4 0.4,2.3 1.6,2.3c0.9,0 1.5,-0.6 1.7,-1.2c0.1,-0.2 0.1,-0.4 0.1,-0.7l0,-4.4l1.3,0l0,5.3l0.1,0z"/>
    <path id="svg_193" d="m314.9,34.6c0,-0.7 0,-1.4 -0.1,-2l1.2,0l0.1,1.2l0,0c0.4,-0.7 1.2,-1.4 2.4,-1.4c1,0 2.6,0.6 2.6,3.1l0,4.3l-1.3,0l0,-4.2c0,-1.2 -0.4,-2.1 -1.7,-2.1c-0.9,0 -1.5,0.6 -1.8,1.3c-0.1,0.2 -0.1,0.4 -0.1,0.6l0,4.3l-1.3,0l0,-5.1z"/>
    <path id="svg_194" d="m329.5,29.3l0,8.7c0,0.6 0,1.4 0.1,1.9l-1.2,0l-0.1,-1.3l0,0c-0.4,0.8 -1.3,1.4 -2.5,1.4c-1.7,0 -3.1,-1.5 -3.1,-3.7c0,-2.4 1.5,-3.9 3.2,-3.9c1.1,0 1.9,0.5 2.2,1.1l0,0l0,-4.3l1.4,0l0,0.1zm-1.3,6.3c0,-0.2 0,-0.4 -0.1,-0.6c-0.2,-0.8 -0.9,-1.5 -1.9,-1.5c-1.4,0 -2.2,1.2 -2.2,2.8c0,1.5 0.7,2.7 2.1,2.7c0.9,0 1.7,-0.6 1.9,-1.6c0,-0.2 0.1,-0.4 0.1,-0.6l0,-1.2l0.1,0z"/>
    <path id="svg_195" d="m336.9,38.1c0,0.6 0,1.2 0.1,1.7l-1.2,0l-0.1,-0.9l0,0c-0.4,0.6 -1.2,1.1 -2.2,1.1c-1.5,0 -2.2,-1 -2.2,-2.1c0,-1.7 1.6,-2.7 4.3,-2.7l0,-0.1c0,-0.6 -0.2,-1.7 -1.6,-1.7c-0.7,0 -1.4,0.2 -1.9,0.5l-0.3,-0.9c0.6,-0.4 1.5,-0.6 2.4,-0.6c2.2,0 2.7,1.5 2.7,3l0,2.7zm-1.2,-1.9c-1.4,0 -3.1,0.2 -3.1,1.6c0,0.9 0.6,1.3 1.2,1.3c0.9,0 1.5,-0.6 1.7,-1.2c0,-0.1 0.1,-0.3 0.1,-0.4l0,-1.3l0.1,0z"/>
    <path id="svg_196" d="m340.7,30.9l0,1.7l1.9,0l0,1l-1.9,0l0,3.9c0,0.9 0.3,1.4 1,1.4c0.4,0 0.6,0 0.8,-0.1l0.1,1c-0.3,0.1 -0.7,0.2 -1.2,0.2c-0.6,0 -1.1,-0.2 -1.4,-0.6c-0.4,-0.4 -0.5,-1 -0.5,-1.9l0,-3.9l-1.1,0l0,-1l1.1,0l0,-1.3l1.2,-0.4z"/>
    <path id="svg_197" d="m345.7,30.6c0,0.4 -0.3,0.8 -0.8,0.8c-0.5,0 -0.8,-0.4 -0.8,-0.8c0,-0.5 0.3,-0.8 0.8,-0.8c0.5,0 0.8,0.3 0.8,0.8zm-1.5,9.3l0,-7.2l1.3,0l0,7.2l-1.3,0z"/>
    <path id="svg_198" d="m354.4,36.2c0,2.7 -1.8,3.8 -3.6,3.8c-2,0 -3.5,-1.4 -3.5,-3.7c0,-2.4 1.6,-3.8 3.6,-3.8c2.1,0 3.5,1.5 3.5,3.7zm-5.7,0.1c0,1.6 0.9,2.8 2.2,2.8c1.3,0 2.2,-1.2 2.2,-2.8c0,-1.2 -0.6,-2.8 -2.2,-2.8c-1.5,0 -2.2,1.4 -2.2,2.8z"/>
    <path id="svg_199" d="m356.2,34.6c0,-0.7 0,-1.4 -0.1,-2l1.2,0l0.1,1.2l0,0c0.4,-0.7 1.2,-1.4 2.4,-1.4c1,0 2.6,0.6 2.6,3.1l0,4.3l-1.3,0l0,-4.2c0,-1.2 -0.4,-2.1 -1.7,-2.1c-0.9,0 -1.5,0.6 -1.8,1.3c-0.1,0.2 -0.1,0.4 -0.1,0.6l0,4.3l-1.3,0l0,-5.1z"/>
   </g>
   <g id="svg_200">
    <rect id="svg_201" height="126.3" width="41.7" fill="#ED1C24" y="3.9" x="4.2"/>
    <g id="svg_202">
     <path id="svg_203" d="m28.5,31.2c-0.7,2.3 -1.8,4.1 -3.3,5.5c-1.7,1.4 -3.6,2.2 -5.7,2.2c-2.7,0 -4.8,-1 -6.4,-3.1c-1.5,-1.9 -2.2,-4.3 -2.2,-7.2c0,-3.6 1,-6.7 2.9,-9.4c2.1,-3 4.8,-4.5 8,-4.5c2.5,0 4.4,0.8 5.9,2.4c1.5,1.6 2.2,3.7 2.2,6.3l-4.6,0.4c0,-1.4 -0.3,-2.6 -0.8,-3.5c-0.6,-1.1 -1.6,-1.6 -2.8,-1.6c-1.9,0 -3.3,1.3 -4.4,4c-0.9,2.1 -1.3,4.3 -1.3,6.6c0,1.5 0.2,2.7 0.7,3.6c0.6,1.2 1.6,1.7 2.9,1.7c2,0 3.6,-1.5 4.5,-4.5l4.4,1.1z"/>
     <path id="svg_204" d="m32.5,22.6c0.3,1.2 1.1,1.9 2.3,1.9c0.5,0 1,-0.2 1.3,-0.5c0.4,-0.3 0.5,-0.8 0.5,-1.3c0,-0.8 -0.4,-1.3 -1.1,-1.5c-0.3,-0.1 -0.9,-0.1 -2,-0.1l0.3,-1.9c1.1,0 1.8,0 2,-0.1c0.8,-0.2 1.2,-0.7 1.2,-1.4c0,-0.5 -0.1,-0.9 -0.5,-1.1c-0.3,-0.3 -0.7,-0.4 -1.2,-0.4c-0.9,0 -1.5,0.5 -2,1.5l-1.8,-0.7c0.8,-1.8 2.1,-2.7 4,-2.7c1,0 1.8,0.3 2.6,0.8c0.8,0.6 1.2,1.4 1.2,2.4c0,1.4 -0.7,2.3 -2.2,2.7c1.2,0.5 1.8,1.4 1.8,2.6c0,1.2 -0.4,2.1 -1.3,2.7c-0.8,0.6 -1.8,0.9 -2.9,0.9c-1.1,0 -2,-0.3 -2.7,-0.8c-0.8,-0.5 -1.3,-1.3 -1.6,-2.4l2.1,-0.6z"/>
    </g>
   </g>
  </g>
 </g>
</svg>