<svg xmlns="http://www.w3.org/2000/svg" viewBox="0 0 83.97 56.86"><polygon class="cls-1" points="55.38 2.27 59.69 2.27 59.69 21.16 61.96 21.16 61.96 0 56.65 0 55.38 2.27"/><polygon class="cls-1" points="64.76 0 64.76 2.27 80.08 2.27 69.3 21.16 71.94 21.16 83.97 0 64.76 0"/><path class="cls-1" d="M28.43,0H0V56.86H28.43A28.43,28.43,0,0,0,28.43,0Zm0,54.44h-26v-52h26a26,26,0,0,1,0,52Z"/><polygon
	class="cls-1"
	points="35.74 16.99 35.74 16.99 35.74 16.99 26.04 26.68 16.35 16.99 14.64 18.7 14.64 18.7 14.64 18.7 24.33 28.4 14.57 38.16 16.27 39.88 16.28 39.88 16.28 39.88 26.05 30.11 35.74 39.81 36.43 39.12 37.46 38.09 37.46 38.09 37.46 38.09 37.45 38.09 27.76 28.4 32.61 23.54 37.46 18.7 37.46 18.7 37.46 18.7 35.74 16.99"/></svg>
