<?xml version="1.0" encoding="UTF-8" standalone="no"?>
<!-- Created with Inkscape (http://www.inkscape.org/) -->

<svg
	 xmlns:dc="http://purl.org/dc/elements/1.1/"
	 xmlns:cc="http://creativecommons.org/ns#"
	 xmlns:rdf="http://www.w3.org/1999/02/22-rdf-syntax-ns#"
	 xmlns:svg="http://www.w3.org/2000/svg"
	 xmlns="http://www.w3.org/2000/svg"
	 xmlns:sodipodi="http://sodipodi.sourceforge.net/DTD/sodipodi-0.dtd"
	 xmlns:inkscape="http://www.inkscape.org/namespaces/inkscape"
	 version="1.1"
	 id="svg2"
	 xml:space="preserve"
	 width="1066.6667"
	 height="1066.6667"
	 viewBox="0 0 1066.6667 1066.6667"
	 sodipodi:docname="logo_szamlazz.hu.svg"
	 inkscape:version="0.92.4 5da689c313, 2019-01-14"><metadata
		 id="metadata8"><rdf:RDF><cc:Work
				 rdf:about=""><dc:format>image/svg+xml</dc:format><dc:type
					 rdf:resource="http://purl.org/dc/dcmitype/StillImage" /><dc:title></dc:title></cc:Work></rdf:RDF></metadata><defs
		 id="defs6"><clipPath
			 clipPathUnits="userSpaceOnUse"
			 id="clipPath20"><path
				 d="M 0,800 H 800 V 0 H 0 Z"
				 id="path18"
				 inkscape:connector-curvature="0" /></clipPath></defs><sodipodi:namedview
		 pagecolor="#ff6630"
		 bordercolor="#666666"
		 borderopacity="1"
		 objecttolerance="10"
		 gridtolerance="10"
		 guidetolerance="10"
		 inkscape:pageopacity="0"
		 inkscape:pageshadow="2"
		 inkscape:window-width="828"
		 inkscape:window-height="1065"
		 id="namedview4"
		 showgrid="false"
		 inkscape:zoom="0.22124998"
		 inkscape:cx="-461.01698"
		 inkscape:cy="533.33337"
		 inkscape:window-x="1090"
		 inkscape:window-y="14"
		 inkscape:window-maximized="0"
		 inkscape:current-layer="g10" /><g
		 id="g10"
		 inkscape:groupmode="layer"
		 inkscape:label="szamlazzhu_logo_allo_narancs"
		 transform="matrix(1.3333333,0,0,-1.3333333,0,1066.6667)"><path
			 d="M 0,0 H 800 V 800 H 0 Z"
			 style="fill:#ff6630;fill-opacity:0;fill-rule:nonzero;stroke:none"
			 id="path12"
			 inkscape:connector-curvature="0" /><g
			 id="g14"><g
				 id="g16"
				 clip-path="url(#clipPath20)"><g
					 id="g22"
					 transform="translate(474.745,628.2271)"><path
						 d="m 0,0 v 28.791 l -213.143,-1.147 0.077,-27.322 z m -66.85,-8.314 -145.991,-0.037 c -0.083,-0.607 -0.063,-25.055 -0.048,-27.81 l -0.071,-0.006 146.292,-0.177 z M -250.848,71.21 37.334,70.326 v -330.672 h -288.005 c -0.088,103.506 -0.177,331.556 -0.177,331.556 z m 57.782,-379.642 -0.27,20.085 c 48.837,-0.069 173.07,0.039 259.739,0.324 0,96.873 0.265,194.808 0.265,291.681 L 99.2,3.57 c 0,0 -7.857,-215.48 -12.386,-323.194 -8.894,1.104 -276.858,11.282 -279.88,11.192 z M 126.51,29.115 c -1.542,0.101 -39.855,0.768 -59.842,1.21 v 66.668 h -344.006 v -384.006 h 56.001 c 0,0 0.372,-32.059 0.411,-48.133 l 332.544,-13.202 c 0.272,13.223 14.784,376.083 14.892,377.463 z"
						 style="fill:#ff6630;fill-opacity:1;fill-rule:nonzero;stroke:none"
						 id="path24"
						 inkscape:connector-curvature="0" /></g><g
					 id="g26"
					 transform="translate(94.4482,150.0518)"><path
						 d="m 0,0 v -1.281 c 0,-6.879 5.44,-12.321 12.32,-12.321 6.24,0 12.321,4.641 12.321,13.442 0,8.64 -6.561,11.519 -12.321,12.48 -11.52,2.08 -25.6,7.84 -25.6,26.241 0,16.96 12.64,26.72 25.6,26.72 14.08,0 25.601,-11.521 25.601,-25.601 V 38.4 h -13.28 v 1.28 C 24.641,46.561 19.2,52 12.16,52 5.92,52 0,47.361 0,38.561 0,29.92 6.4,27.041 12.32,26.08 23.84,24 37.921,18.24 37.921,-0.16 c 0,-16.961 -12.641,-26.721 -25.601,-26.721 -14.08,0 -25.6,11.52 -25.6,25.6 l 0,1.281 z"
						 style="fill:#ff6630;fill-opacity:1;fill-rule:nonzero;stroke:none"
						 id="path28"
						 inkscape:connector-curvature="0" /></g><g
					 id="g30"
					 transform="translate(141.0063,137.7315)"><path
						 d="m 0,0 c 0,15.359 7.36,23.84 14.4,31.52 7.36,8 19.681,16.48 19.681,31.521 H 0 V 76.32 H 47.361 V 63.041 C 47.361,47.68 40,39.201 32.96,31.52 25.601,23.52 13.28,15.039 13.28,0 H 47.361 V -13.281 H 0 Z"
						 style="fill:#ff6630;fill-opacity:1;fill-rule:nonzero;stroke:none"
						 id="path32"
						 inkscape:connector-curvature="0" /></g><g
					 id="g34"
					 transform="translate(231.8862,246.0538)"><path
						 d="m 0,0 h 13.28 l -16,-24 H -16 Z m 4.64,-70.242 v 13.92 c 0,6.881 -5.44,12.32 -12.321,12.32 -6.88,0 -12.319,-5.439 -12.319,-12.32 v -13.92 z m -37.921,13.92 c 0,14.08 11.52,25.601 25.6,25.601 14.081,0 25.601,-11.521 25.601,-25.601 v -65.282 H 4.64 v 38.083 H -20 v -38.083 h -13.281 z"
						 style="fill:#ff6630;fill-opacity:1;fill-rule:nonzero;stroke:none"
						 id="path36"
						 inkscape:connector-curvature="0" /></g><g
					 id="g38"
					 transform="translate(262.604,189.7315)"><path
						 d="m 0,0 c 0,14.08 11.521,25.602 25.601,25.602 8.96,0 15.2,-5.122 18.88,-10.081 3.84,4.959 10.081,10.081 19.04,10.081 C 77.602,25.602 89.122,14.08 89.122,0 V -65.281 H 75.842 V 0 c 0,6.881 -5.44,12.32 -12.321,12.32 C 56.802,12.32 51.201,6.881 51.201,0 V -65.281 H 37.921 V 0 c 0,6.881 -5.92,12.32 -12.32,12.32 -6.88,0 -12.32,-5.439 -12.32,-12.32 V -65.281 H 0 Z"
						 style="fill:#ff6630;fill-opacity:1;fill-rule:nonzero;stroke:none"
						 id="path40"
						 inkscape:connector-curvature="0" /></g><g
					 id="g42"
					 transform="translate(364.5229,214.0518)"><path
						 d="m 0,0 h 13.281 v -76.32 h 31.52 v -13.282 l -44.801,0 z"
						 style="fill:#ff6630;fill-opacity:1;fill-rule:nonzero;stroke:none"
						 id="path44"
						 inkscape:connector-curvature="0" /></g><g
					 id="g46"
					 transform="translate(451.5635,246.0538)"><path
						 d="m 0,0 h 13.28 l -16,-24 H -16 Z m 4.64,-70.242 v 13.92 c 0,6.881 -5.44,12.32 -12.321,12.32 -6.88,0 -12.319,-5.439 -12.319,-12.32 v -13.92 z m -37.921,13.92 c 0,14.08 11.52,25.601 25.6,25.601 14.081,0 25.601,-11.521 25.601,-25.601 v -65.282 H 4.64 v 38.083 H -20 v -38.083 h -13.281 z"
						 style="fill:#ff6630;fill-opacity:1;fill-rule:nonzero;stroke:none"
						 id="path48"
						 inkscape:connector-curvature="0" /></g><g
					 id="g50"
					 transform="translate(479.7217,137.7315)"><path
						 d="m 0,0 c 0,15.359 7.36,23.84 14.4,31.52 7.361,8 19.681,16.48 19.681,31.521 H 0 V 76.32 H 47.361 V 63.041 c 0,-15.361 -7.36,-23.84 -14.4,-31.521 C 25.601,23.52 13.28,15.039 13.28,0 H 47.361 V -13.281 H 0 Z"
						 style="fill:#ff6630;fill-opacity:1;fill-rule:nonzero;stroke:none"
						 id="path52"
						 inkscape:connector-curvature="0" /></g><g
					 id="g54"
					 transform="translate(534.7607,137.7315)"><path
						 d="m 0,0 c 0,15.359 7.36,23.84 14.4,31.52 7.361,8 19.681,16.48 19.681,31.521 H 0 V 76.32 H 47.361 V 63.041 c 0,-15.361 -7.36,-23.84 -14.4,-31.521 C 25.601,23.52 13.28,15.039 13.28,0 H 47.361 V -13.281 H 0 Z"
						 style="fill:#ff6630;fill-opacity:1;fill-rule:nonzero;stroke:none"
						 id="path56"
						 inkscape:connector-curvature="0" /></g><path
					 d="m 590.76,137.731 h 13.28 V 124.45 h -13.28 z"
					 style="fill:#ff6630;fill-opacity:1;fill-rule:nonzero;stroke:none"
					 id="path58"
					 inkscape:connector-curvature="0" /><g
					 id="g60"
					 transform="translate(615.2383,214.0518)"><path
						 d="M 0,0 H 13.28 V -38.24 H 37.921 V 0 h 13.28 V -89.602 H 37.921 V -51.52 H 13.28 V -89.602 H 0 Z"
						 style="fill:#ff6630;fill-opacity:1;fill-rule:nonzero;stroke:none"
						 id="path62"
						 inkscape:connector-curvature="0" /></g><g
					 id="g64"
					 transform="translate(679.2373,148.7706)"><path
						 d="M 0,0 V 65.281 H 13.28 V 0 c 0,-6.879 5.441,-12.32 12.321,-12.32 6.879,0 12.32,5.441 12.32,12.32 v 65.281 h 13.28 V 0 c 0,-14.08 -11.52,-25.6 -25.6,-25.6 C 11.521,-25.6 0,-14.08 0,0"
						 style="fill:#ff6630;fill-opacity:1;fill-rule:nonzero;stroke:none"
						 id="path66"
						 inkscape:connector-curvature="0" /></g><g
					 id="g68"
					 transform="translate(83.5996,94.3965)"><path
						 d="M 0,0 H 11.198 V -3.319 H 3.319 v -6.24 h 7.24 v -3.319 h -7.24 v -6.199 h 7.879 v -3.319 l -11.198,0 z"
						 style="fill:#ff6630;fill-opacity:1;fill-rule:nonzero;stroke:none"
						 id="path70"
						 inkscape:connector-curvature="0" /></g><g
					 id="g72"
					 transform="translate(112.3994,78.0791)"><path
						 d="m 0,0 v 10.238 c 0,3.52 2.88,6.399 6.399,6.399 3.519,0 6.399,-2.879 6.399,-6.399 V 9.918 H 9.479 v 0.32 c 0,1.72 -1.36,3.079 -3.08,3.079 -1.72,0 -3.08,-1.359 -3.08,-3.079 L 3.319,0 c 0,-1.72 1.36,-3.08 3.08,-3.08 1.72,0 3.08,1.36 3.08,3.08 v 3.439 h -3.08 v 3.32 h 6.399 V 0 c 0,-3.52 -2.88,-6.399 -6.399,-6.399 C 2.88,-6.399 0,-3.52 0,0"
						 style="fill:#ff6630;fill-opacity:1;fill-rule:nonzero;stroke:none"
						 id="path74"
						 inkscape:connector-curvature="0" /></g><g
					 id="g76"
					 transform="translate(148.1187,81.1582)"><path
						 d="m 0,0 c -2.72,0.76 -4.719,3.239 -4.719,6.199 v 7.039 H -1.4 V 6.199 c 0,-1.72 1.36,-3.079 3.08,-3.079 1.719,0 3.079,1.359 3.079,3.079 v 7.039 h 3.32 V 6.199 C 8.079,3.239 6.079,0.76 3.319,0 V -9.158 H 0 Z"
						 style="fill:#ff6630;fill-opacity:1;fill-rule:nonzero;stroke:none"
						 id="path78"
						 inkscape:connector-curvature="0" /></g><g
					 id="g80"
					 transform="translate(177.3188,78.3985)"><path
						 d="m 0,0 v -0.319 c 0,-1.72 1.36,-3.08 3.08,-3.08 1.56,0 3.079,1.16 3.079,3.36 C 6.159,2.12 4.52,2.84 3.08,3.08 0.2,3.6 -3.319,5.04 -3.319,9.639 c 0,4.239 3.159,6.678 6.399,6.678 3.519,0 6.399,-2.879 6.399,-6.398 v -0.32 h -3.32 v 0.32 c 0,1.72 -1.36,3.079 -3.119,3.079 C 1.48,12.998 0,11.839 0,9.639 0,7.479 1.6,6.76 3.08,6.52 5.959,5.999 9.479,4.56 9.479,-0.039 c 0,-4.239 -3.16,-6.68 -6.399,-6.68 -3.52,0 -6.399,2.88 -6.399,6.4 l 0,0.319 z"
						 style="fill:#ff6630;fill-opacity:1;fill-rule:nonzero;stroke:none"
						 id="path82"
						 inkscape:connector-curvature="0" /></g><g
					 id="g84"
					 transform="translate(204.1592,75.3194)"><path
						 d="m 0,0 c 0,3.84 1.839,5.959 3.599,7.879 1.84,2 4.92,4.119 4.92,7.879 H 0 v 3.319 h 11.838 v -3.319 c 0,-3.84 -1.84,-5.959 -3.6,-7.879 C 6.399,5.879 3.319,3.76 3.319,0 h 8.519 V -3.319 H 0 Z"
						 style="fill:#ff6630;fill-opacity:1;fill-rule:nonzero;stroke:none"
						 id="path86"
						 inkscape:connector-curvature="0" /></g><g
					 id="g88"
					 transform="translate(233.7588,94.3965)"><path
						 d="M 0,0 H 11.198 V -3.319 H 3.319 v -6.24 h 7.24 v -3.319 h -7.24 v -6.199 h 7.879 v -3.319 l -11.198,0 z"
						 style="fill:#ff6630;fill-opacity:1;fill-rule:nonzero;stroke:none"
						 id="path90"
						 inkscape:connector-curvature="0" /></g><g
					 id="g92"
					 transform="translate(268.9575,84.8379)"><path
						 d="m 0,0 c 1.72,0 3.08,1.399 3.08,3.159 0,1.6 -1.36,3.08 -3.08,3.08 H -3.08 V 0 Z M -6.399,9.559 H 0 c 3.52,0 6.399,-2.92 6.399,-6.4 0,-2.119 -1,-3.719 -2.48,-4.919 1.44,-1.359 2.08,-2.719 2.08,-4.479 v -6.599 H 2.68 v 6.599 c 0,1.519 -1.24,2.92 -2.96,2.92 h -2.8 v -9.519 h -3.319 z"
						 style="fill:#ff6630;fill-opacity:1;fill-rule:nonzero;stroke:none"
						 id="path94"
						 inkscape:connector-curvature="0" /></g><g
					 id="g96"
					 transform="translate(304.6367,102.3946)"><path
						 d="M 0,0 H 3.319 L -0.48,-5.719 H -3.799 Z M -5.919,0 H -2.6 l -3.799,-5.719 h -3.319 z m -5.359,-24.315 v 16.317 h 3.319 v -16.317 c 0,-1.72 1.36,-3.081 3.08,-3.081 1.719,0 3.079,1.361 3.079,3.081 v 16.317 h 3.32 v -16.317 c 0,-3.52 -2.88,-6.4 -6.399,-6.4 -3.519,0 -6.399,2.88 -6.399,6.4"
						 style="fill:#ff6630;fill-opacity:1;fill-rule:nonzero;stroke:none"
						 id="path98"
						 inkscape:connector-curvature="0" /></g><g
					 id="g100"
					 transform="translate(324.5581,94.3965)"><path
						 d="M 0,0 H 11.198 V -3.319 H 3.319 v -6.24 h 7.239 v -3.319 H 3.319 v -6.199 h 7.879 v -3.319 l -11.198,0 z"
						 style="fill:#ff6630;fill-opacity:1;fill-rule:nonzero;stroke:none"
						 id="path102"
						 inkscape:connector-curvature="0" /></g><g
					 id="g104"
					 transform="translate(353.3579,88.3174)"><path
						 d="M 0,0 C 0,3.52 2.879,6.398 6.399,6.398 9.918,6.398 12.798,3.52 12.798,0 V -16.317 H 9.479 V 0 c 0,1.72 -1.36,3.079 -3.08,3.079 C 4.679,3.079 3.319,1.72 3.319,0 V -16.317 H 0 Z"
						 style="fill:#ff6630;fill-opacity:1;fill-rule:nonzero;stroke:none"
						 id="path106"
						 inkscape:connector-curvature="0" /></g><g
					 id="g108"
					 transform="translate(440.5566,102.3946)"><path
						 d="m 0,0 h 3.32 l -4,-5.999 H -3.999 Z M -7.918,-7.998 H 3.279 v -3.319 H -4.6 v -6.24 h 7.24 v -3.319 H -4.6 v -6.199 h 7.879 v -3.32 H -7.918 Z"
						 style="fill:#ff6630;fill-opacity:1;fill-rule:nonzero;stroke:none"
						 id="path110"
						 inkscape:connector-curvature="0" /></g><g
					 id="g112"
					 transform="translate(455.1582,78.3985)"><path
						 d="m 0,0 v -0.319 c 0,-1.72 1.359,-3.08 3.079,-3.08 1.56,0 3.079,1.16 3.079,3.36 C 6.158,2.12 4.52,2.84 3.079,3.08 0.199,3.6 -3.32,5.04 -3.32,9.639 c 0,4.239 3.16,6.678 6.399,6.678 3.52,0 6.4,-2.879 6.4,-6.398 V 9.599 H 6.158 v 0.32 c 0,1.72 -1.359,3.079 -3.119,3.079 C 1.479,12.998 0,11.839 0,9.639 0,7.479 1.6,6.76 3.079,6.52 c 2.88,-0.521 6.4,-1.96 6.4,-6.559 0,-4.239 -3.161,-6.68 -6.4,-6.68 -3.519,0 -6.399,2.88 -6.399,6.4 l 0,0.319 z"
						 style="fill:#ff6630;fill-opacity:1;fill-rule:nonzero;stroke:none"
						 id="path114"
						 inkscape:connector-curvature="0" /></g><g
					 id="g116"
					 transform="translate(521.5176,78.0791)"><path
						 d="m 0,0 v 10.238 c 0,3.52 2.88,6.399 6.399,6.399 3.52,0 6.4,-2.879 6.4,-6.399 v -0.32 h -3.32 v 0.32 c 0,1.72 -1.36,3.079 -3.08,3.079 -1.719,0 -3.079,-1.359 -3.079,-3.079 L 3.32,0 c 0,-1.72 1.36,-3.08 3.079,-3.08 1.72,0 3.08,1.36 3.08,3.08 v 3.439 h -3.08 v 3.32 h 6.4 V 0 c 0,-3.52 -2.88,-6.399 -6.4,-6.399 C 2.88,-6.399 0,-3.52 0,0"
						 style="fill:#ff6630;fill-opacity:1;fill-rule:nonzero;stroke:none"
						 id="path118"
						 inkscape:connector-curvature="0" /></g><g
					 id="g120"
					 transform="translate(557.2373,81.1582)"><path
						 d="m 0,0 c -2.72,0.76 -4.72,3.239 -4.72,6.199 v 7.039 h 3.321 V 6.199 c 0,-1.72 1.359,-3.079 3.079,-3.079 1.719,0 3.079,1.359 3.079,3.079 v 7.039 h 3.32 V 6.199 C 8.079,3.239 6.079,0.76 3.319,0 V -9.158 H 0 Z"
						 style="fill:#ff6630;fill-opacity:1;fill-rule:nonzero;stroke:none"
						 id="path122"
						 inkscape:connector-curvature="0" /></g><g
					 id="g124"
					 transform="translate(593.7969,78.0791)"><path
						 d="m 0,0 v 10.238 c 0,1.72 -1.36,3.079 -3.08,3.079 -1.72,0 -3.08,-1.359 -3.08,-3.079 V 0 c 0,-1.72 1.36,-3.08 3.08,-3.08 C -1.36,-3.08 0,-1.72 0,0 m -9.479,0 v 10.238 c 0,3.52 2.879,6.399 6.399,6.399 3.519,0 6.398,-2.879 6.398,-6.399 L 3.318,0 c 0,-3.52 -2.879,-6.399 -6.398,-6.399 -3.52,0 -6.399,2.879 -6.399,6.399"
						 style="fill:#ff6630;fill-opacity:1;fill-rule:nonzero;stroke:none"
						 id="path126"
						 inkscape:connector-curvature="0" /></g><g
					 id="g128"
					 transform="translate(622.7168,84.8379)"><path
						 d="m 0,0 c 1.719,0 3.079,1.399 3.079,3.159 0,1.6 -1.36,3.08 -3.079,3.08 H -3.08 V 0 Z M -6.399,9.559 H 0 c 3.52,0 6.398,-2.92 6.398,-6.4 0,-2.119 -1,-3.719 -2.479,-4.919 1.44,-1.359 2.079,-2.719 2.079,-4.479 v -6.599 H 2.68 v 6.599 c 0,1.519 -1.241,2.92 -2.96,2.92 h -2.8 v -9.519 h -3.319 z"
						 style="fill:#ff6630;fill-opacity:1;fill-rule:nonzero;stroke:none"
						 id="path130"
						 inkscape:connector-curvature="0" /></g><g
					 id="g132"
					 transform="translate(650.8369,78.3985)"><path
						 d="m 0,0 v -0.319 c 0,-1.72 1.36,-3.08 3.079,-3.08 1.561,0 3.08,1.16 3.08,3.36 C 6.159,2.12 4.52,2.84 3.079,3.08 0.2,3.6 -3.319,5.04 -3.319,9.639 c 0,4.239 3.16,6.678 6.398,6.678 3.52,0 6.4,-2.879 6.4,-6.398 v -0.32 h -3.32 v 0.32 c 0,1.72 -1.359,3.079 -3.119,3.079 C 1.479,12.998 0,11.839 0,9.639 0,7.479 1.601,6.76 3.079,6.52 c 2.88,-0.521 6.4,-1.96 6.4,-6.559 0,-4.239 -3.16,-6.68 -6.4,-6.68 -3.519,0 -6.398,2.88 -6.398,6.4 l 0,0.319 z"
						 style="fill:#ff6630;fill-opacity:1;fill-rule:nonzero;stroke:none"
						 id="path134"
						 inkscape:connector-curvature="0" /></g><g
					 id="g136"
					 transform="translate(688.5957,84.8379)"><path
						 d="m 0,0 v 3.479 c 0,1.72 -1.359,3.08 -3.08,3.08 -1.719,0 -3.079,-1.36 -3.079,-3.08 l 0,-3.479 z m -9.479,3.479 c 0,3.52 2.88,6.399 6.399,6.399 3.519,0 6.399,-2.879 6.399,-6.399 V -12.838 H 0 v 9.519 h -6.159 v -9.519 h -3.32 z"
						 style="fill:#ff6630;fill-opacity:1;fill-rule:nonzero;stroke:none"
						 id="path138"
						 inkscape:connector-curvature="0" /></g><g
					 id="g140"
					 transform="translate(711.1172,88.3174)"><path
						 d="m 0,0 c 0,3.52 2.88,6.398 6.398,6.398 3.52,0 6.4,-2.878 6.4,-6.398 V -16.317 H 9.479 V 0 c 0,1.72 -1.36,3.079 -3.081,3.079 C 4.68,3.079 3.319,1.72 3.319,0 V -16.317 H 0 Z"
						 style="fill:#ff6630;fill-opacity:1;fill-rule:nonzero;stroke:none"
						 id="path142"
						 inkscape:connector-curvature="0" /></g></g></g></g></svg>
